<svg width="81" height="125" viewBox="0 0 81 125" fill="none" xmlns="http://www.w3.org/2000/svg">
<g style="mix-blend-mode:soft-light">
<path d="M176.536 112.6C173.719 117.479 168.653 120.804 161.821 122.599C154.986 124.395 146.421 124.647 136.688 123.405C117.225 120.921 93.1916 112.473 69.2189 98.6321C45.2462 84.7915 25.9136 68.2022 14.0303 52.5882C8.08796 44.7803 4.0239 37.2367 2.16156 30.4198C0.29989 23.6054 0.646847 17.5563 3.46401 12.6768C6.28118 7.79731 11.3465 4.47223 18.1787 2.67729C25.0135 0.881699 33.5785 0.629464 43.3115 1.87175C62.7752 4.35604 86.8083 12.8039 110.781 26.6446C134.754 40.4852 154.086 57.0745 165.97 72.6884C171.912 80.4963 175.976 88.0399 177.838 94.8568C179.7 101.671 179.353 107.72 176.536 112.6Z" stroke="white"/>
</g>
<g style="mix-blend-mode:soft-light">
<path d="M176.536 12.6766C179.353 17.556 179.7 23.6052 177.838 30.4196C175.976 37.2365 171.912 44.7801 165.97 52.588C154.086 68.2019 134.754 84.7912 110.781 98.6319C86.8083 112.472 62.7752 120.92 43.3115 123.405C33.5785 124.647 25.0135 124.395 18.1787 122.599C11.3465 120.804 6.28119 117.479 3.46402 112.6C0.646859 107.72 0.299901 101.671 2.16157 94.8566C4.02391 88.0397 8.08797 80.4961 14.0303 72.6882C25.9137 57.0743 45.2463 40.485 69.2189 26.6443C93.1916 12.8037 117.225 4.35581 136.688 1.87152C146.421 0.629234 154.986 0.881473 161.821 2.67706C168.653 4.472 173.719 7.79708 176.536 12.6766Z" stroke="white"/>
</g>
</svg>
