<svg width="270" height="250" viewBox="0 0 270 250" fill="none" xmlns="http://www.w3.org/2000/svg">
<path opacity="0.0344828" d="M243.587 775.263C236.712 769.842 232.425 761.615 230.602 750.85C228.779 740.081 229.428 726.803 232.403 711.337C238.353 680.406 253.583 640.828 276.745 595.29C323.065 504.222 401.055 389.422 499.74 272.483C598.425 155.545 699.099 58.6336 782.083 -3.51997C823.578 -34.5992 860.627 -56.9705 890.777 -68.8163C905.852 -74.7393 919.178 -78.0208 930.457 -78.4567C941.732 -78.8925 950.93 -76.4847 957.804 -71.063C964.679 -65.6413 968.966 -57.4141 970.789 -46.6495C972.612 -35.8807 971.963 -22.6024 968.988 -7.13668C963.038 23.7943 947.808 63.3727 924.646 108.91C878.326 199.978 800.336 314.779 701.651 431.717C602.966 548.656 502.292 645.567 419.308 707.72C377.813 738.8 340.764 761.171 310.614 773.017C295.539 778.94 282.213 782.221 270.934 782.657C259.66 783.093 250.461 780.685 243.587 775.263Z" stroke="#C1A5D3" stroke-opacity="0.2"/>
<path opacity="0.0689655" d="M202.32 743.66C195.962 737.68 192.433 729.123 191.588 718.245C190.742 707.362 192.586 694.188 196.943 679.031C205.658 648.716 224.397 610.568 251.574 567.152C305.923 480.326 393.958 372.525 502.801 264.338C611.643 156.151 720.662 68.0841 808.926 13.1548C853.062 -14.312 891.984 -33.478 923.085 -42.7391C938.636 -47.3698 952.205 -49.5162 963.48 -49C974.75 -48.4839 983.694 -45.31 990.053 -39.3301C996.411 -33.3503 999.94 -24.7934 1000.78 -13.9152C1001.63 -3.03285 999.787 10.1414 995.429 25.299C986.714 55.6138 967.975 93.7616 940.799 137.178C886.449 224.003 798.414 331.805 689.572 439.992C580.729 548.179 471.71 636.245 383.446 691.175C339.31 718.642 300.388 737.808 269.288 747.069C253.737 751.699 240.167 753.846 228.893 753.33C217.623 752.814 208.678 749.64 202.32 743.66Z" stroke="#C1A5D3" stroke-opacity="0.2"/>
<path opacity="0.103448" d="M164.047 709.074C158.254 702.581 155.51 693.76 155.649 682.851C155.787 671.938 158.812 658.968 164.519 644.234C175.932 614.766 198.037 578.339 229.022 537.375C290.987 455.452 388.398 355.471 506.569 256.859C624.741 158.246 741.275 79.6946 834.148 32.4077C880.588 8.76229 921.086 -7.05251 952.902 -13.6583C968.809 -16.9613 982.52 -17.9562 993.704 -16.4918C1004.88 -15.028 1013.51 -11.1123 1019.3 -4.61991C1025.09 1.87244 1027.84 10.6939 1027.7 21.6029C1027.56 32.5159 1024.54 45.4858 1018.83 60.22C1007.42 89.6878 985.311 126.115 954.326 167.079C892.361 249.002 794.95 348.983 676.778 447.595C558.607 546.207 442.073 624.759 349.2 672.046C302.76 695.692 262.261 711.506 230.446 718.112C214.538 721.415 200.828 722.41 189.644 720.946C178.464 719.482 169.841 715.566 164.047 709.074Z" stroke="#C1A5D3" stroke-opacity="0.2"/>
<path opacity="0.137931" d="M129.031 671.767C123.846 664.812 121.908 655.793 123.029 644.936C124.151 634.075 128.332 621.408 135.345 607.21C149.371 578.813 174.674 544.384 209.231 506.183C278.34 429.787 384.385 338.387 510.986 250.1C637.588 161.813 760.75 93.3741 857.525 54.0895C905.916 34.4456 947.683 22.1024 979.97 18.2022C996.114 16.252 1009.86 16.4162 1020.87 18.8176C1031.87 21.2181 1040.11 25.8458 1045.29 32.801C1050.48 39.7563 1052.42 48.7753 1051.3 59.632C1050.17 70.4927 1045.99 83.1596 1038.98 97.3582C1024.95 125.755 999.652 160.184 965.094 198.385C895.986 274.781 789.941 366.181 663.339 454.468C536.738 542.755 413.576 611.194 316.801 650.479C268.41 670.122 226.642 682.466 194.355 686.366C178.211 688.316 164.464 688.152 153.456 685.75C142.451 683.35 134.216 678.722 129.031 671.767Z" stroke="#C1A5D3" stroke-opacity="0.2"/>
<path opacity="0.172414" d="M97.5 632.037C92.9627 624.672 91.8449 615.524 93.9407 604.803C96.0372 594.077 101.344 581.809 109.61 568.255C126.141 541.145 154.449 508.977 192.316 473.83C268.043 403.542 381.914 321.418 515.982 244.129C650.05 166.839 778.903 109.034 878.843 78.0504C928.817 62.5575 971.535 53.7799 1004.05 52.6151C1020.31 52.0326 1033.99 53.3547 1044.73 56.6748C1055.48 59.9938 1063.27 65.2979 1067.8 72.6631C1072.34 80.0283 1073.46 89.1762 1071.36 99.898C1069.27 110.624 1063.96 122.891 1055.69 136.446C1039.16 163.555 1010.85 195.724 972.987 230.87C897.26 301.158 783.388 383.282 649.32 460.572C515.252 537.861 386.399 595.667 286.459 626.65C236.485 642.143 193.767 650.921 161.253 652.086C144.996 652.668 131.317 651.346 120.568 648.026C109.822 644.707 102.037 639.403 97.5 632.037Z" stroke="#C1A5D3" stroke-opacity="0.2"/>
<path opacity="0.206897" d="M69.661 590.174C65.8058 582.455 65.5167 573.248 68.5708 562.743C71.626 552.234 78.0184 540.459 87.4739 527.651C106.385 502.036 137.483 472.372 178.37 440.547C260.139 376.902 380.971 304.68 521.485 238.976C661.999 173.273 795.562 126.54 897.907 104.094C949.084 92.8705 992.427 87.7254 1024.92 89.3048C1041.17 90.0945 1054.67 92.5644 1065.08 96.778C1075.49 100.99 1082.76 106.93 1086.62 114.649C1090.47 122.368 1090.76 131.576 1087.71 142.081C1084.65 152.59 1078.26 164.365 1068.8 177.173C1049.89 202.788 1018.8 232.451 977.908 264.276C896.14 327.921 775.307 400.143 634.793 465.847C494.279 531.551 360.716 578.283 258.371 600.729C207.195 611.953 163.851 617.098 131.359 615.519C115.112 614.729 101.605 612.259 91.1969 608.046C80.7923 603.834 73.5162 597.893 69.661 590.174Z" stroke="#C1A5D3" stroke-opacity="0.2"/>
<path opacity="0.241379" d="M45.6907 546.5C42.5466 538.486 43.0884 529.289 47.0776 519.08C51.0682 508.868 58.4972 497.676 69.0706 485.712C90.2168 461.786 123.868 434.853 167.466 406.592C254.654 350.075 381.527 288.304 527.417 234.686C673.308 181.068 810.564 145.765 914.535 132.027C966.525 125.157 1010.16 123.684 1042.39 127.995C1058.5 130.151 1071.73 133.75 1081.72 138.825C1091.7 143.899 1098.42 150.429 1101.56 158.444C1104.7 166.458 1104.16 175.655 1100.17 185.864C1096.18 196.076 1088.75 207.268 1078.18 219.232C1057.03 243.158 1023.38 270.091 979.785 298.352C892.597 354.869 765.724 416.64 619.834 470.258C473.943 523.876 336.687 559.179 232.716 572.917C180.726 579.787 137.087 581.26 104.863 576.949C88.7506 574.793 75.519 571.194 65.531 566.119C55.5466 561.045 48.8347 554.515 45.6907 546.5Z" stroke="#C1A5D3" stroke-opacity="0.2"/>
<path opacity="0.275862" d="M25.743 501.355C23.3338 493.107 24.7021 483.99 29.5962 474.156C34.4918 464.318 42.9008 453.793 54.5116 442.765C77.7326 420.709 113.681 396.713 159.657 372.231C251.6 323.271 383.549 272.422 533.706 231.298C683.863 190.173 823.768 166.568 928.573 161.643C980.98 159.18 1024.58 161.39 1056.29 168.401C1072.15 171.906 1085 176.607 1094.5 182.505C1103.98 188.401 1110.08 195.472 1112.49 203.721C1114.9 211.969 1113.53 221.086 1108.64 230.921C1103.74 240.759 1095.33 251.283 1083.72 262.311C1060.5 284.367 1024.55 308.363 978.577 332.845C886.633 381.805 754.685 432.654 604.528 473.779C454.371 514.903 314.465 538.508 209.66 543.433C157.253 545.896 113.651 543.687 81.9403 536.676C66.0846 533.17 53.2288 528.469 43.7371 522.572C34.2486 516.676 28.1521 509.604 25.743 501.355Z" stroke="#C1A5D3" stroke-opacity="0.2"/>
<path opacity="0.310345" d="M9.9302 455.074C8.27405 446.654 10.4586 437.687 16.2202 428.302C21.9836 418.913 31.3087 409.136 43.8685 399.127C68.9874 379.11 106.959 358.233 154.963 337.716C250.963 296.687 386.982 257.146 540.263 228.828C693.543 200.511 835.033 188.783 939.875 192.708C992.3 194.671 1035.53 200.547 1066.49 210.204C1081.97 215.033 1094.35 220.799 1103.27 227.475C1112.19 234.148 1117.63 241.707 1119.28 250.128C1120.94 258.548 1118.76 267.515 1112.99 276.9C1107.23 286.289 1097.91 296.066 1085.35 306.075C1060.23 326.092 1022.26 346.969 974.252 367.486C878.252 408.515 742.232 448.056 588.952 476.374C435.671 504.691 294.182 516.419 189.34 512.494C136.914 510.531 93.6805 504.655 62.7251 494.998C47.2469 490.169 34.8647 484.403 25.9415 477.727C17.0214 471.054 11.5863 463.495 9.9302 455.074Z" stroke="#C1A5D3" stroke-opacity="0.2"/>
<path opacity="0.344828" d="M-1.66325 408.015C-2.55392 399.487 0.430297 390.738 7.01549 381.873C13.6028 373.005 23.7729 364.05 37.1862 355.137C64.012 337.312 103.718 319.711 153.385 303.317C252.71 270.53 391.765 242.599 547.003 227.303C702.24 212.008 844.237 212.248 948.318 224.993C1000.36 231.366 1042.9 240.863 1072.86 253.093C1087.85 259.209 1099.66 265.997 1107.95 273.4C1116.23 280.8 1120.96 288.789 1121.85 297.317C1122.74 305.845 1119.76 314.594 1113.18 323.459C1106.59 332.328 1096.42 341.282 1083 350.195C1056.18 368.021 1016.47 385.621 966.806 402.016C867.481 434.802 728.426 462.734 573.188 478.029C417.951 493.324 275.954 493.085 171.873 480.339C119.829 473.966 77.2923 464.469 47.3276 452.239C32.3447 446.124 20.5304 439.335 12.2437 431.933C3.95974 424.532 -0.772586 416.543 -1.66325 408.015Z" stroke="#C1A5D3" stroke-opacity="0.2"/>
<path opacity="0.37931" d="M-8.98314 360.533C-9.10162 351.962 -5.34045 343.497 2.01825 335.22C9.37949 326.94 20.3173 318.875 34.4818 311.126C62.8101 295.627 103.949 281.439 154.9 269.29C256.795 244.996 397.827 228.887 553.84 226.73C709.853 224.574 851.276 236.778 953.804 258.247C1005.07 268.982 1046.59 282.029 1075.33 296.738C1089.71 304.093 1100.86 311.852 1108.45 319.925C1116.03 327.996 1120.03 336.354 1120.15 344.925C1120.26 353.496 1116.5 361.961 1109.15 370.239C1101.78 378.519 1090.85 386.583 1076.68 394.333C1048.35 409.831 1007.21 424.02 956.263 436.168C854.368 460.463 713.336 476.572 557.323 478.728C401.31 480.885 259.887 468.68 157.359 447.211C106.092 436.476 64.5767 423.43 35.8309 408.72C21.4576 401.365 10.301 393.607 2.71374 385.533C-4.87095 377.462 -8.86466 369.105 -8.98314 360.533Z" stroke="#C1A5D3" stroke-opacity="0.2"/>
<path opacity="0.413793" d="M-12.0031 312.988C-11.3485 304.439 -6.83883 296.322 1.23743 288.696C9.31633 281.067 20.9385 273.954 35.7466 267.427C65.3618 254.374 107.619 243.705 159.468 235.895C263.157 220.278 405.093 216.113 560.694 227.112C716.295 238.11 856.068 262.188 956.262 292.216C1006.36 307.232 1046.54 323.728 1073.85 340.805C1087.5 349.344 1097.92 358.014 1104.75 366.697C1111.57 375.377 1114.8 384.04 1114.15 392.589C1113.49 401.139 1108.98 409.255 1100.9 416.882C1092.83 424.511 1081.2 431.623 1066.4 438.15C1036.78 451.204 994.523 461.873 942.674 469.682C838.985 485.299 697.049 489.464 541.448 478.465C385.847 467.467 246.074 443.39 145.88 413.361C95.7789 398.346 55.6013 381.85 28.2931 364.772C14.6386 356.233 4.22484 347.563 -2.60511 338.881C-9.43283 330.201 -12.6577 321.537 -12.0031 312.988Z" stroke="#C1A5D3" stroke-opacity="0.2"/>
<path opacity="0.448276" d="M-10.7381 265.749C-9.31537 257.286 -4.09137 249.579 4.64095 242.662C13.3761 235.742 25.5943 229.636 40.9331 224.381C71.6097 213.871 114.665 206.803 167.016 203.392C271.709 196.571 413.469 204.383 567.473 228.453C721.478 252.523 858.538 288.289 955.636 326.649C1004.19 345.83 1042.72 365.651 1068.39 384.965C1081.22 394.623 1090.81 404.138 1096.83 413.365C1102.85 422.587 1105.28 431.49 1103.86 439.953C1102.43 448.416 1097.21 456.122 1088.48 463.04C1079.74 469.96 1067.52 476.066 1052.19 481.321C1021.51 491.83 978.454 498.899 926.103 502.31C821.41 509.131 679.65 501.319 525.645 477.249C371.641 453.179 234.581 417.413 137.483 379.053C88.9306 359.871 50.3962 340.051 24.7336 320.736C11.902 311.078 2.31017 301.563 -3.71055 292.337C-9.72933 283.114 -12.1609 274.211 -10.7381 265.749Z" stroke="#C1A5D3" stroke-opacity="0.2"/>
<path opacity="0.482759" d="M-5.23289 219.173C-3.05264 210.861 2.84605 203.624 12.1679 197.468C21.493 191.31 34.2139 186.256 49.9667 182.313C81.4715 174.428 124.996 171.015 177.451 172.028C282.352 174.054 422.857 193.783 574.093 230.741C725.33 267.7 858.633 314.882 951.895 361.282C998.53 384.484 1035.13 407.477 1058.95 428.883C1070.86 439.586 1079.56 449.874 1084.72 459.573C1089.89 469.268 1091.51 478.343 1089.33 486.655C1087.15 494.967 1081.25 502.205 1071.93 508.361C1062.6 514.519 1049.88 519.573 1034.13 523.516C1002.62 531.401 959.098 534.814 906.643 533.801C801.742 531.775 661.237 512.046 510.001 475.088C358.764 438.129 225.461 390.947 132.199 344.547C85.5639 321.345 48.9661 298.352 25.1443 276.946C13.2331 266.243 4.53641 255.955 -0.629345 246.256C-5.79332 236.56 -7.41313 227.485 -5.23289 219.173Z" stroke="#C1A5D3" stroke-opacity="0.2"/>
<path opacity="0.517241" d="M4.43987 173.615C7.36118 165.517 13.89 158.803 23.7303 153.456C33.5743 148.107 46.7013 144.144 62.7481 141.543C94.8409 136.342 138.504 136.609 190.663 142.039C294.974 152.898 433.154 184.393 580.471 233.959C727.788 283.524 856.32 341.764 945.037 395.85C989.399 422.895 1023.78 448.887 1045.58 472.22C1056.48 483.887 1064.22 494.869 1068.49 504.968C1072.76 515.062 1073.55 524.241 1070.63 532.339C1067.71 540.437 1061.18 547.151 1051.34 552.498C1041.5 557.847 1028.37 561.81 1012.32 564.411C980.232 569.612 936.569 569.345 884.409 563.915C780.099 553.056 641.919 521.561 494.602 471.995C347.285 422.43 218.753 364.19 130.035 310.104C85.6735 283.059 51.2906 257.067 29.4911 233.734C18.5911 222.067 10.8556 211.085 6.58419 200.986C2.31436 190.892 1.51857 181.713 4.43987 173.615Z" stroke="#C1A5D3" stroke-opacity="0.2"/>
<path opacity="0.551724" d="M18.1693 129.423C21.8096 121.601 28.9188 115.462 39.203 110.964C49.4907 106.464 62.924 103.622 79.1427 102.383C111.579 99.9062 155.048 103.851 206.515 113.656C309.442 133.265 444.245 176.287 586.522 238.082C728.798 299.877 851.581 368.732 935.077 430.092C976.829 460.775 1008.73 489.567 1028.35 514.65C1038.15 527.192 1044.87 538.786 1048.21 549.206C1051.56 559.623 1051.52 568.835 1047.88 576.658C1044.24 584.48 1037.13 590.619 1026.85 595.117C1016.56 599.617 1003.13 602.459 986.907 603.698C954.471 606.175 911.002 602.23 859.534 592.424C756.608 572.816 621.805 529.793 479.528 467.998C337.252 406.204 214.469 337.349 130.973 275.988C89.221 245.306 57.315 216.513 37.7036 191.43C27.8977 178.889 21.1822 167.295 17.8378 156.875C14.4944 146.458 14.5289 137.246 18.1693 129.423Z" stroke="#C1A5D3" stroke-opacity="0.2"/>
<path opacity="0.586207" d="M35.8177 86.9316C40.1496 79.4438 47.7853 73.9265 58.4349 70.3118C69.0884 66.6959 82.7254 64.9962 98.9926 65.129C131.526 65.3948 174.47 72.9883 224.853 87.0939C325.612 115.303 456.013 169.525 592.166 243.079C728.319 316.633 844.418 395.578 922.059 463.746C960.882 497.833 990.068 529.207 1007.34 555.848C1015.98 569.17 1021.62 581.286 1024.02 591.949C1026.41 602.609 1025.54 611.784 1021.21 619.272C1016.88 626.76 1009.24 632.277 998.594 635.892C987.94 639.508 974.303 641.208 958.036 641.075C925.503 640.809 882.558 633.216 832.175 619.11C731.417 590.901 601.015 536.679 464.862 463.125C328.709 389.571 212.611 310.626 134.97 242.458C96.1467 208.371 66.9602 176.997 49.6862 150.355C41.049 137.034 35.4047 124.918 33.0125 114.255C30.6212 103.595 31.4857 94.4195 35.8177 86.9316Z" stroke="#C1A5D3" stroke-opacity="0.2"/>
<path opacity="0.62069" d="M57.2155 46.4667C62.2063 39.3708 70.3104 34.5173 81.2444 31.8135C92.1825 29.1088 105.92 28.5646 122.111 30.0678C154.494 33.0741 196.587 44.2581 245.502 62.5569C343.326 99.1515 468.333 164.16 597.326 248.914C726.32 333.668 834.85 422.102 906.044 496.558C941.644 533.79 967.889 567.506 982.694 595.504C990.097 609.503 994.627 622.05 996.049 632.875C997.47 643.697 995.782 652.766 990.791 659.862C985.8 666.958 977.696 671.811 966.762 674.515C955.824 677.22 942.087 677.764 925.895 676.261C893.512 673.254 851.42 662.07 802.504 643.772C704.68 607.177 579.674 542.168 450.68 457.414C321.687 372.661 213.156 284.227 141.962 209.77C106.362 172.539 80.1174 138.823 65.3122 110.825C57.9095 96.8253 53.3794 84.2789 51.9577 73.4533C50.5365 62.6317 52.2246 53.5627 57.2155 46.4667Z" stroke="#C1A5D3" stroke-opacity="0.2"/>
<path opacity="0.655172" d="M82.1624 8.3347C87.7744 1.68469 96.2854 -2.46792 107.421 -4.24016C118.56 -6.01318 132.293 -5.3976 148.286 -2.53559C180.271 3.18829 221.192 17.8776 268.268 40.2303C362.412 84.932 481.073 160.233 601.925 255.541C722.777 350.849 822.915 448.1 887.12 528.278C919.225 568.37 942.329 604.172 954.553 633.314C960.665 647.884 964.046 660.766 964.486 671.671C964.927 682.572 962.428 691.466 956.816 698.116C951.204 704.766 942.693 708.918 931.557 710.691C920.418 712.464 906.685 711.848 890.692 708.986C858.707 703.262 817.786 688.573 770.71 666.22C676.566 621.518 557.905 546.218 437.053 450.909C316.201 355.601 216.064 258.351 151.858 178.172C119.753 138.08 96.6493 102.278 84.4255 73.1369C78.3135 58.5661 74.9319 45.6846 74.4917 34.7797C74.0515 23.8787 76.5504 14.9847 82.1624 8.3347Z" stroke="#C1A5D3" stroke-opacity="0.2"/>
<path opacity="0.689655" d="M110.44 -27.1683C116.631 -33.3217 125.484 -36.7416 136.736 -37.569C147.992 -38.3966 161.615 -36.6261 177.288 -32.427C208.633 -24.0292 248.07 -5.94637 292.948 20.29C382.697 72.7586 494.108 157.778 605.9 262.915C717.691 368.053 808.672 473.379 865.401 558.669C893.767 601.318 913.553 638.933 923.103 668.996C927.877 684.027 930.085 697.145 929.54 708.047C928.996 718.944 925.705 727.595 919.515 733.749C913.324 739.902 904.471 743.322 893.219 744.149C881.963 744.977 868.34 743.206 852.667 739.007C821.322 730.61 781.885 712.527 737.007 686.29C647.258 633.822 535.847 548.802 424.055 443.665C312.264 338.528 221.283 233.201 164.554 147.911C136.188 105.262 116.401 67.6471 106.852 37.5848C102.077 22.5533 99.8701 9.43508 100.414 -1.46645C100.959 -12.3638 104.25 -21.015 110.44 -27.1683Z" stroke="#C1A5D3" stroke-opacity="0.2"/>
<path opacity="0.724138" d="M141.797 -59.78C148.519 -65.3897 157.647 -68.0507 168.93 -67.9269C180.216 -67.8029 193.628 -64.891 208.861 -59.3869C239.327 -48.379 276.98 -27.0404 319.318 2.88C403.988 62.7161 507.303 156.807 609.182 270.973C711.062 385.14 792.195 497.741 841.015 587.493C865.427 632.373 881.745 671.515 888.547 702.27C891.948 717.648 892.965 730.903 891.44 741.718C889.915 752.529 885.857 760.871 879.135 766.481C872.413 772.091 863.285 774.752 852.002 774.628C840.716 774.504 827.304 771.592 812.071 766.088C781.605 755.08 743.952 733.741 701.614 703.821C616.944 643.985 513.629 549.894 411.75 435.728C309.87 321.562 228.737 208.96 179.917 119.208C155.505 74.3279 139.187 35.1857 132.385 4.431C128.983 -10.9466 127.967 -24.2019 129.492 -35.017C131.017 -45.8278 135.075 -54.1704 141.797 -59.78Z" stroke="#C1A5D3" stroke-opacity="0.2"/>
<path opacity="0.758621" d="M175.96 -89.2445C183.163 -94.2675 192.496 -96.1494 203.724 -95.0751C214.956 -94.0005 228.052 -89.9693 242.729 -83.2021C272.084 -69.668 307.668 -45.236 347.144 -11.8593C426.091 54.8888 520.523 157.336 611.715 279.662C702.907 401.988 773.575 521.006 814.115 614.539C834.386 661.308 847.113 701.68 851.116 732.893C853.118 748.499 852.935 761.791 850.442 772.437C847.949 783.079 843.154 791.05 835.951 796.073C828.748 801.096 819.415 802.978 808.188 801.903C796.956 800.829 783.86 796.798 769.182 790.03C739.827 776.496 704.244 752.064 664.767 718.688C585.82 651.94 491.389 549.493 400.196 427.166C309.004 304.84 238.336 185.822 197.797 92.2897C177.525 45.52 164.799 5.14866 160.795 -26.0644C158.793 -41.6712 158.976 -54.9626 161.47 -65.6089C163.963 -76.2511 168.757 -84.2214 175.96 -89.2445Z" stroke="#C1A5D3" stroke-opacity="0.2"/>
<path opacity="0.793103" d="M212.634 -115.337C227.897 -124.136 250.537 -119.673 278.6 -103.692C306.621 -87.7343 339.863 -60.395 376.178 -23.816C448.801 49.3361 533.631 159.359 613.442 288.914C693.253 418.469 752.918 542.999 784.868 639.599C800.845 687.902 809.883 729.196 811.057 760.63C812.234 792.112 805.518 813.498 790.255 822.297C774.992 831.096 752.352 826.633 724.288 810.652C696.268 794.694 663.025 767.355 626.711 730.776C554.087 657.624 469.258 547.601 389.447 418.046C309.636 288.491 249.971 163.961 218.02 67.3611C202.044 19.0575 193.006 -22.2356 191.831 -53.6696C190.655 -85.1516 197.371 -106.538 212.634 -115.337Z" stroke="#C1A5D3" stroke-opacity="0.2"/>
<path opacity="0.827586" d="M251.504 -137.87C267.502 -145.351 289.653 -138.996 316.166 -120.709C342.639 -102.45 373.287 -72.4117 406.163 -32.9089C471.91 46.0905 546.492 162.852 614.315 298.65C682.138 434.448 730.345 563.542 753.464 662.474C765.024 711.944 770.305 753.845 768.641 785.26C766.975 816.723 758.358 837.465 742.36 844.946C726.361 852.427 704.21 846.072 677.697 827.785C651.224 809.526 620.576 779.488 587.7 739.985C521.953 660.985 447.371 544.224 379.548 408.426C311.725 272.628 263.518 143.534 240.399 44.6018C228.839 -4.86813 223.558 -46.7688 225.222 -78.1844C226.888 -109.647 235.505 -130.39 251.504 -137.87Z" stroke="#C1A5D3" stroke-opacity="0.2"/>
<path opacity="0.862069" d="M292.243 -156.657C308.855 -162.762 330.348 -154.563 355.108 -134.111C379.832 -113.689 407.654 -81.1797 436.841 -39.0537C495.211 45.1917 558.979 167.803 614.297 308.81C669.615 449.818 705.998 582.493 720.109 683.005C727.165 733.265 728.648 775.454 724.159 806.612C719.664 837.817 709.211 857.757 692.599 863.862C675.986 869.967 654.494 861.768 629.733 841.316C605.009 820.894 577.188 788.385 548 746.259C489.63 662.014 425.863 539.402 370.545 398.395C315.227 257.387 278.844 124.712 264.733 24.2004C257.676 -26.0594 256.193 -68.2488 260.682 -99.4069C265.178 -130.611 275.631 -150.551 292.243 -156.657Z" stroke="#C1A5D3" stroke-opacity="0.2"/>
<path opacity="0.896552" d="M334.507 -171.564C351.606 -176.247 372.276 -166.267 395.097 -143.805C417.883 -121.376 442.666 -86.6433 467.943 -42.2146C518.492 46.6356 570.959 174.164 613.352 319.308C655.744 464.451 680.026 599.699 685.023 701.025C687.521 751.692 685.195 793.849 677.915 824.512C670.624 855.221 658.415 874.207 641.315 878.89C624.216 883.573 603.546 873.592 580.726 851.13C557.939 828.701 533.156 793.969 507.879 749.54C457.33 660.69 404.863 533.162 362.471 388.018C320.078 242.874 295.796 107.627 290.8 6.30079C288.301 -44.3664 290.627 -86.5234 297.907 -117.187C305.198 -147.896 317.408 -166.881 334.507 -171.564Z" stroke="#C1A5D3" stroke-opacity="0.2"/>
<path opacity="0.931035" d="M377.936 -182.471C395.392 -185.696 415.082 -174.01 435.789 -149.709C456.465 -125.443 478.021 -88.7516 499.195 -42.3585C541.538 50.4205 582.306 181.895 611.45 330.071C640.594 478.246 652.591 615.036 648.434 716.406C646.355 767.095 640.239 808.899 630.223 838.834C620.193 868.814 606.319 886.7 588.863 889.925C571.407 893.15 551.717 881.464 531.01 857.163C510.334 832.898 488.778 796.206 467.605 749.813C425.261 657.034 384.494 525.559 355.349 377.384C326.205 229.208 314.208 92.4184 318.365 -8.95132C320.444 -59.6402 326.561 -101.444 336.576 -131.38C346.607 -161.359 360.48 -179.246 377.936 -182.471Z" stroke="#C1A5D3" stroke-opacity="0.2"/>
</svg>
