<svg width="570" height="250" viewBox="0 0 570 250" fill="none" xmlns="http://www.w3.org/2000/svg">
<path opacity="0.0344828" d="M-335.134 423.383C-342.009 417.961 -346.296 409.734 -348.119 398.969C-349.942 388.201 -349.292 374.922 -346.318 359.457C-340.368 328.526 -325.138 288.947 -301.976 243.41C-255.656 152.342 -177.666 37.5413 -78.9807 -79.3973C19.7041 -196.336 120.378 -293.247 203.362 -355.4C244.857 -386.48 281.907 -408.851 312.057 -420.697C327.132 -426.62 340.457 -429.901 351.736 -430.337C363.011 -430.773 372.209 -428.365 379.084 -422.943C385.959 -417.522 390.246 -409.295 392.068 -398.53C393.892 -387.761 393.242 -374.483 390.267 -359.017C384.318 -328.086 369.087 -288.508 345.925 -242.97C299.605 -151.903 221.615 -37.1018 122.93 79.8367C24.2456 196.775 -76.4286 293.686 -159.412 355.84C-200.908 386.919 -237.957 409.29 -268.107 421.136C-283.182 427.059 -296.507 430.341 -307.786 430.777C-319.061 431.212 -328.259 428.805 -335.134 423.383Z" stroke="#C1A5D3" stroke-opacity="0.2"/>
<path opacity="0.0689655" d="M-376.401 391.779C-382.759 385.799 -386.288 377.242 -387.133 366.364C-387.979 355.482 -386.135 342.308 -381.777 327.15C-373.063 296.835 -354.324 258.687 -327.147 215.271C-272.798 128.446 -184.762 20.6445 -75.9199 -87.5427C32.9225 -195.73 141.941 -283.796 230.206 -338.726C274.341 -366.193 313.263 -385.359 344.364 -394.62C359.915 -399.25 373.484 -401.397 384.759 -400.88C396.029 -400.364 404.973 -397.19 411.332 -391.211C417.69 -385.231 421.219 -376.674 422.064 -365.796C422.91 -354.913 421.066 -341.739 416.708 -326.581C407.994 -296.267 389.255 -258.119 362.078 -214.703C307.729 -127.877 219.693 -20.0758 110.851 88.1113C2.00846 196.298 -107.01 284.365 -195.275 339.294C-239.41 366.761 -278.332 385.927 -309.433 395.188C-324.984 399.819 -338.554 401.965 -349.828 401.449C-361.098 400.933 -370.042 397.759 -376.401 391.779Z" stroke="#C1A5D3" stroke-opacity="0.2"/>
<path opacity="0.103448" d="M-414.673 357.193C-420.467 350.701 -423.211 341.879 -423.072 330.97C-422.933 320.058 -419.909 307.088 -414.202 292.353C-402.789 262.886 -380.684 226.459 -349.699 185.494C-287.734 103.572 -190.323 3.59037 -72.1516 -95.0218C46.0201 -193.634 162.554 -272.186 255.427 -319.473C301.867 -343.118 342.366 -358.933 374.181 -365.539C390.089 -368.842 403.799 -369.837 414.983 -368.372C426.163 -366.908 434.786 -362.993 440.579 -356.5C446.373 -350.008 449.117 -341.187 448.978 -330.278C448.84 -319.365 445.815 -306.395 440.108 -291.66C428.695 -262.193 406.59 -225.766 375.605 -184.801C313.64 -102.879 216.229 -2.89747 98.0577 95.7147C-20.1139 194.327 -136.648 272.879 -229.521 320.166C-275.961 343.811 -316.46 359.626 -348.275 366.232C-364.183 369.535 -377.893 370.53 -389.077 369.065C-400.257 367.601 -408.88 363.686 -414.673 357.193Z" stroke="#C1A5D3" stroke-opacity="0.2"/>
<path opacity="0.137931" d="M-449.69 319.886C-454.875 312.931 -456.813 303.912 -455.692 293.055C-454.57 282.195 -450.388 269.528 -443.375 255.329C-429.35 226.933 -404.047 192.504 -369.49 154.303C-300.381 77.907 -194.336 -13.4934 -67.7345 -101.78C58.8671 -190.067 182.029 -258.506 278.804 -297.791C327.195 -317.435 368.962 -329.778 401.25 -333.678C417.394 -335.628 431.141 -335.464 442.149 -333.063C453.154 -330.662 461.389 -326.035 466.574 -319.079C471.759 -312.124 473.697 -303.105 472.576 -292.248C471.454 -281.388 467.272 -268.721 460.259 -254.522C446.234 -226.126 420.931 -191.697 386.374 -153.496C317.265 -77.1 211.22 14.3004 84.6185 102.587C-41.983 190.874 -165.145 259.313 -261.92 298.598C-310.311 318.242 -352.078 330.585 -384.366 334.485C-400.51 336.435 -414.257 336.271 -425.265 333.87C-436.27 331.469 -444.505 326.842 -449.69 319.886Z" stroke="#C1A5D3" stroke-opacity="0.2"/>
<path opacity="0.172414" d="M-481.221 280.157C-485.758 272.792 -486.876 263.644 -484.78 252.922C-482.684 242.196 -477.376 229.929 -469.111 216.374C-452.58 189.265 -424.272 157.096 -386.405 121.95C-310.678 51.6617 -196.806 -30.4621 -62.7384 -107.752C71.3296 -185.041 200.182 -242.847 300.123 -273.83C350.097 -289.323 392.814 -298.101 425.328 -299.265C441.585 -299.848 455.264 -298.526 466.014 -295.206C476.759 -291.887 484.544 -286.583 489.082 -279.217C493.619 -271.852 494.737 -262.704 492.641 -251.982C490.544 -241.257 485.237 -228.989 476.971 -215.434C460.441 -188.325 432.132 -156.157 394.266 -121.01C318.539 -50.7221 204.667 31.4017 70.5992 108.691C-63.4688 185.981 -192.322 243.786 -292.262 274.77C-342.236 290.263 -384.954 299.04 -417.467 300.205C-433.725 300.787 -447.403 299.465 -458.153 296.145C-468.898 292.826 -476.683 287.522 -481.221 280.157Z" stroke="#C1A5D3" stroke-opacity="0.2"/>
<path opacity="0.206897" d="M-509.06 238.294C-512.915 230.575 -513.204 221.367 -510.15 210.862C-507.095 200.353 -500.702 188.578 -491.247 175.77C-472.336 150.155 -441.238 120.492 -400.351 88.6667C-318.582 25.0219 -197.75 -47.2003 -57.2354 -112.904C83.2787 -178.608 216.842 -225.34 319.187 -247.786C370.363 -259.01 413.707 -264.155 446.199 -262.576C462.446 -261.786 475.953 -259.316 486.361 -255.103C496.765 -250.89 504.042 -244.95 507.897 -237.231C511.752 -229.512 512.041 -220.305 508.987 -209.799C505.932 -199.29 499.539 -187.516 490.084 -174.708C471.173 -149.092 440.075 -119.429 399.188 -87.6041C317.419 -23.9593 196.587 48.2629 56.0725 113.967C-84.4417 179.671 -218.005 226.403 -320.35 248.849C-371.526 260.073 -414.869 265.218 -447.362 263.638C-463.609 262.849 -477.116 260.379 -487.524 256.165C-497.928 251.953 -505.205 246.013 -509.06 238.294Z" stroke="#C1A5D3" stroke-opacity="0.2"/>
<path opacity="0.241379" d="M-533.03 194.62C-536.174 186.606 -535.632 177.409 -531.643 167.2C-527.652 156.988 -520.223 145.795 -509.65 133.832C-488.504 109.905 -454.853 82.9727 -411.255 54.7118C-324.067 -1.80557 -197.194 -63.5764 -51.3034 -117.195C94.5873 -170.813 231.844 -206.116 335.815 -219.854C387.804 -226.723 431.443 -228.197 463.667 -223.885C479.78 -221.729 493.011 -218.13 502.999 -213.055C512.984 -207.982 519.696 -201.451 522.84 -193.437C525.984 -185.423 525.442 -176.226 521.453 -166.017C517.462 -155.804 510.033 -144.612 499.46 -132.649C478.313 -108.722 444.662 -81.7896 401.065 -53.5287C313.877 2.98869 187.004 64.7595 41.113 118.378C-104.778 171.996 -242.034 207.299 -346.005 221.037C-397.994 227.906 -441.633 229.38 -473.858 225.068C-489.97 222.912 -503.202 219.313 -513.19 214.238C-523.174 209.165 -529.886 202.634 -533.03 194.62Z" stroke="#C1A5D3" stroke-opacity="0.2"/>
<path opacity="0.275862" d="M-552.978 149.475C-555.387 141.226 -554.019 132.11 -549.125 122.275C-544.229 112.437 -535.82 101.913 -524.209 90.8844C-500.988 68.8288 -465.04 44.8324 -419.064 20.3505C-327.12 -28.6091 -195.172 -79.4585 -45.015 -120.583C105.142 -161.707 245.048 -185.312 349.853 -190.238C402.26 -192.7 445.862 -190.491 477.572 -183.48C493.428 -179.974 506.284 -175.274 515.776 -169.376C525.264 -163.48 531.361 -156.408 533.77 -148.16C536.179 -139.911 534.811 -130.795 529.917 -120.96C525.021 -111.122 516.612 -100.597 505.001 -89.5691C481.78 -67.5134 445.832 -43.517 399.856 -19.0352C307.912 29.9245 175.964 80.7738 25.807 121.898C-124.35 163.023 -264.256 186.628 -369.061 191.553C-421.468 194.016 -465.07 191.806 -496.78 184.795C-512.636 181.289 -525.492 176.589 -534.984 170.691C-544.472 164.795 -550.569 157.723 -552.978 149.475Z" stroke="#C1A5D3" stroke-opacity="0.2"/>
<path opacity="0.310345" d="M-568.791 103.194C-570.447 94.7736 -568.262 85.8068 -562.501 76.421C-556.737 67.0321 -547.412 57.2553 -534.852 47.2466C-509.733 27.2299 -471.761 6.35209 -423.758 -14.1642C-327.757 -55.1936 -191.738 -94.7344 -38.4578 -123.052C114.823 -151.37 256.312 -163.097 361.154 -159.172C413.58 -157.209 456.813 -151.334 487.769 -141.677C503.247 -136.848 515.629 -131.081 524.553 -124.406C533.473 -117.732 538.908 -110.173 540.564 -101.753C542.22 -93.3326 540.035 -84.3658 534.274 -74.9801C528.51 -65.5911 519.185 -55.8144 506.626 -45.8057C481.507 -25.7889 443.535 -4.9111 395.531 15.6052C299.531 56.6346 163.512 96.1754 10.2312 124.493C-143.049 152.811 -284.539 164.538 -389.381 160.613C-441.806 158.65 -485.04 152.775 -515.996 143.118C-531.474 138.289 -543.856 132.522 -552.779 125.847C-561.699 119.173 -567.134 111.614 -568.791 103.194Z" stroke="#C1A5D3" stroke-opacity="0.2"/>
<path opacity="0.344828" d="M-580.384 56.135C-581.275 47.6069 -578.29 38.8578 -571.705 29.9925C-565.118 21.1242 -554.948 12.1697 -541.534 3.25665C-514.709 -14.5689 -475.003 -32.1691 -425.336 -48.5637C-326.01 -81.3505 -186.956 -109.282 -31.7181 -124.577C123.519 -139.872 265.516 -139.633 369.597 -126.887C421.642 -120.514 464.178 -111.017 494.143 -98.7872C509.125 -92.6719 520.94 -85.8835 529.227 -78.4807C537.51 -71.0804 542.243 -63.0916 543.133 -54.5636C544.024 -46.0356 541.04 -37.2865 534.455 -28.4212C527.867 -19.5529 517.697 -10.5983 504.284 -1.68527C477.458 16.1403 437.752 33.7404 388.085 50.1351C288.76 82.9219 149.705 110.853 -5.53236 126.148C-160.77 141.444 -302.767 141.204 -406.848 128.459C-458.892 122.086 -501.428 112.589 -531.393 100.359C-546.376 94.2433 -558.19 87.4549 -566.477 80.0521C-574.761 72.6518 -579.493 64.663 -580.384 56.135Z" stroke="#C1A5D3" stroke-opacity="0.2"/>
<path opacity="0.37931" d="M-587.704 8.65282C-587.822 0.0816238 -584.061 -8.38336 -576.702 -16.6607C-569.341 -24.9409 -558.403 -33.005 -544.239 -40.7546C-515.911 -56.2531 -474.772 -70.4418 -423.821 -82.59C-321.926 -106.885 -180.894 -122.994 -24.8807 -125.15C131.132 -127.307 272.556 -115.102 375.083 -93.6333C426.351 -82.8981 467.866 -69.852 496.612 -55.1424C510.985 -47.7873 522.142 -40.0286 529.729 -31.955C537.314 -23.8842 541.307 -15.5264 541.426 -6.95524C541.544 1.61595 537.783 10.0809 530.424 18.3583C523.063 26.6385 512.125 34.7026 497.961 42.4522C469.632 57.9507 428.494 72.1393 377.543 84.2876C275.648 108.582 134.616 124.691 -21.3973 126.848C-177.41 129.004 -318.834 116.8 -421.361 95.3309C-472.629 84.5956 -514.144 71.5496 -542.89 56.8399C-557.263 49.4849 -568.42 41.7261 -576.007 33.6526C-583.592 25.5818 -587.585 17.224 -587.704 8.65282Z" stroke="#C1A5D3" stroke-opacity="0.2"/>
<path opacity="0.413793" d="M-590.724 -38.8924C-590.069 -47.4418 -585.56 -55.5584 -577.483 -63.1848C-569.404 -70.8138 -557.782 -77.9262 -542.974 -84.4532C-513.359 -97.5068 -471.101 -108.176 -419.253 -115.985C-315.564 -131.603 -173.628 -135.767 -18.027 -124.769C137.574 -113.77 277.348 -89.693 377.542 -59.6642C427.642 -44.6487 467.82 -28.1527 495.128 -11.0755C508.783 -2.53662 519.196 6.13339 526.026 14.8162C532.854 23.4961 536.079 32.1594 535.424 40.7088C534.77 49.2582 530.26 57.3747 522.184 65.0011C514.105 72.6301 502.483 79.7425 487.675 86.2696C458.059 99.3232 415.802 109.992 363.953 117.802C260.265 133.419 118.328 137.583 -37.2725 126.585C-192.873 115.586 -332.647 91.5093 -432.841 61.4806C-482.942 46.465 -523.119 29.9691 -550.428 12.8918C-564.082 4.35296 -574.496 -4.31704 -581.326 -12.9999C-588.154 -21.6798 -591.378 -30.343 -590.724 -38.8924Z" stroke="#C1A5D3" stroke-opacity="0.2"/>
<path opacity="0.448276" d="M-589.459 -86.132C-588.036 -94.5948 -582.812 -102.301 -574.08 -109.219C-565.345 -116.138 -553.126 -122.245 -537.788 -127.5C-507.111 -138.009 -464.056 -145.077 -411.705 -148.488C-307.012 -155.31 -165.252 -147.498 -11.2472 -123.428C142.757 -99.3578 279.818 -63.5918 376.915 -25.2317C425.468 -6.05004 464.002 13.7702 489.665 33.085C502.496 42.7427 512.088 52.258 518.109 61.484C524.127 70.7069 526.559 79.6099 525.136 88.0727C523.713 96.5354 518.489 104.242 509.757 111.159C501.022 118.079 488.804 124.186 473.465 129.44C442.788 139.95 399.733 147.018 347.383 150.429C242.689 157.25 100.929 149.439 -53.0754 125.369C-207.08 101.298 -344.14 65.5325 -441.238 27.1723C-489.79 7.99073 -528.325 -11.8295 -553.987 -31.1443C-566.819 -40.802 -576.411 -50.3173 -582.431 -59.5433C-588.45 -68.7662 -590.882 -77.6692 -589.459 -86.132Z" stroke="#C1A5D3" stroke-opacity="0.2"/>
<path opacity="0.482759" d="M-583.954 -132.707C-581.773 -141.019 -575.875 -148.257 -566.553 -154.413C-557.228 -160.57 -544.507 -165.625 -528.754 -169.567C-497.249 -177.452 -453.725 -180.866 -401.27 -179.853C-296.369 -177.826 -155.864 -158.097 -4.62756 -121.139C146.609 -84.1809 279.912 -36.9982 373.174 9.40143C419.809 32.6031 456.407 55.5967 480.229 77.0021C492.14 87.7051 500.837 97.9931 506.002 107.692C511.166 117.388 512.786 126.463 510.606 134.775C508.426 143.087 502.527 150.325 493.205 156.48C483.88 162.638 471.159 167.692 455.406 171.635C423.902 179.52 380.377 182.934 327.922 181.921C223.021 179.894 82.5163 160.165 -68.7201 123.207C-219.957 86.2488 -353.26 39.0661 -446.522 -7.33353C-493.157 -30.5352 -529.755 -53.5288 -553.576 -74.9342C-565.488 -85.6372 -574.184 -95.9252 -579.35 -105.624C-584.514 -115.32 -586.134 -124.395 -583.954 -132.707Z" stroke="#C1A5D3" stroke-opacity="0.2"/>
<path opacity="0.517241" d="M-574.281 -178.265C-571.36 -186.363 -564.831 -193.077 -554.99 -198.424C-545.146 -203.774 -532.019 -207.737 -515.973 -210.337C-483.88 -215.538 -440.217 -215.271 -388.057 -209.841C-283.746 -198.983 -145.567 -167.487 1.75058 -117.922C149.068 -68.3566 277.6 -10.1163 366.317 43.9696C410.679 71.0146 445.062 97.0066 466.861 120.34C477.761 132.006 485.497 142.989 489.768 153.087C494.038 163.182 494.834 172.36 491.912 180.458C488.991 188.556 482.462 195.27 472.622 200.618C462.778 205.967 449.651 209.93 433.604 212.53C401.511 217.731 357.848 217.464 305.689 212.035C201.378 201.176 63.198 169.68 -84.1191 120.115C-231.436 70.5498 -359.968 12.3094 -448.685 -41.7765C-493.047 -68.8215 -527.43 -94.8135 -549.23 -118.146C-560.13 -129.813 -567.865 -140.796 -572.137 -150.894C-576.406 -160.989 -577.202 -170.167 -574.281 -178.265Z" stroke="#C1A5D3" stroke-opacity="0.2"/>
<path opacity="0.551724" d="M-560.551 -222.457C-556.911 -230.28 -549.802 -236.419 -539.518 -240.917C-529.23 -245.417 -515.797 -248.259 -499.578 -249.497C-467.141 -251.974 -423.672 -248.029 -372.205 -238.224C-269.279 -218.616 -134.475 -175.593 7.80103 -113.798C150.077 -52.0032 272.86 16.8515 356.356 78.2119C398.108 108.895 430.014 137.687 449.625 162.77C459.431 175.312 466.147 186.905 469.491 197.326C472.835 207.743 472.8 216.954 469.16 224.777C465.519 232.6 458.41 238.739 448.126 243.237C437.838 247.737 424.405 250.579 408.186 251.817C375.75 254.294 332.281 250.349 280.814 240.544C177.887 220.935 43.0838 177.913 -99.1926 116.118C-241.469 54.3231 -364.251 -14.5316 -447.748 -75.892C-489.5 -106.575 -521.406 -135.367 -541.017 -160.45C-550.823 -172.992 -557.538 -184.585 -560.883 -195.006C-564.226 -205.423 -564.192 -214.634 -560.551 -222.457Z" stroke="#C1A5D3" stroke-opacity="0.2"/>
<path opacity="0.586207" d="M-542.903 -264.949C-538.571 -272.437 -530.935 -277.954 -520.286 -281.569C-509.632 -285.185 -495.995 -286.884 -479.728 -286.751C-447.195 -286.486 -404.25 -278.892 -353.867 -264.787C-253.109 -236.578 -122.707 -182.356 13.4456 -108.801C149.599 -35.2471 265.697 43.6978 343.338 111.866C382.161 145.952 411.348 177.326 428.622 203.968C437.259 217.289 442.903 229.405 445.295 240.069C447.687 250.729 446.822 259.904 442.49 267.392C438.158 274.88 430.523 280.397 419.873 284.012C409.22 287.628 395.583 289.327 379.315 289.194C346.782 288.929 303.838 281.335 253.455 267.23C152.696 239.021 22.2948 184.799 -113.858 111.244C-250.011 37.6901 -366.11 -41.2548 -443.751 -109.423C-482.574 -143.509 -511.761 -174.883 -529.035 -201.525C-537.672 -214.846 -543.316 -226.962 -545.708 -237.626C-548.099 -248.286 -547.235 -257.461 -542.903 -264.949Z" stroke="#C1A5D3" stroke-opacity="0.2"/>
<path opacity="0.62069" d="M-521.505 -305.414C-516.514 -312.51 -508.41 -317.363 -497.476 -320.067C-486.538 -322.772 -472.801 -323.316 -456.609 -321.813C-424.227 -318.806 -382.134 -307.622 -333.218 -289.324C-235.395 -252.729 -110.388 -187.72 18.6054 -102.967C147.599 -18.2129 256.129 70.2214 327.324 144.678C362.923 181.909 389.168 215.625 403.973 243.623C411.376 257.623 415.906 270.169 417.328 280.995C418.749 291.816 417.061 300.885 412.07 307.981C407.079 315.077 398.975 319.931 388.041 322.634C377.103 325.339 363.366 325.883 347.174 324.38C314.791 321.374 272.699 310.19 223.783 291.891C125.96 255.296 0.952998 190.288 -128.04 105.534C-257.034 20.7803 -365.565 -67.6539 -436.759 -142.11C-472.359 -179.342 -498.603 -213.058 -513.408 -241.056C-520.811 -255.055 -525.341 -267.602 -526.763 -278.427C-528.184 -289.249 -526.496 -298.318 -521.505 -305.414Z" stroke="#C1A5D3" stroke-opacity="0.2"/>
<path opacity="0.655172" d="M-496.558 -343.546C-490.946 -350.196 -482.435 -354.348 -471.3 -356.121C-460.161 -357.894 -446.428 -357.278 -430.435 -354.416C-398.449 -348.692 -357.529 -334.003 -310.453 -311.65C-216.308 -266.948 -97.6478 -191.648 23.2044 -96.3396C144.057 -1.03143 244.194 96.2191 308.399 176.398C340.505 216.49 363.608 252.292 375.832 281.433C381.944 296.004 385.325 308.885 385.766 319.79C386.206 330.691 383.707 339.585 378.095 346.235C372.483 352.885 363.972 357.038 352.837 358.81C341.697 360.583 327.965 359.967 311.972 357.106C279.986 351.382 239.066 336.692 191.99 314.34C97.8451 269.638 -20.8155 194.337 -141.668 99.029C-262.52 3.72084 -362.657 -93.5297 -426.863 -173.708C-458.968 -213.801 -482.071 -249.603 -494.295 -278.744C-500.407 -293.314 -503.789 -306.196 -504.229 -317.101C-504.669 -328.002 -502.17 -336.896 -496.558 -343.546Z" stroke="#C1A5D3" stroke-opacity="0.2"/>
<path opacity="0.689655" d="M-468.28 -379.049C-462.09 -385.202 -453.237 -388.622 -441.985 -389.449C-430.729 -390.277 -417.105 -388.507 -401.433 -384.308C-370.088 -375.91 -330.651 -357.827 -285.773 -331.59C-196.024 -279.122 -84.6124 -194.102 27.1788 -88.965C138.97 16.1722 229.951 121.499 286.68 206.789C315.046 249.437 334.833 287.053 344.382 317.115C349.157 332.146 351.364 345.265 350.82 356.166C350.275 367.064 346.984 375.715 340.794 381.868C334.603 388.021 325.75 391.441 314.498 392.269C303.243 393.096 289.619 391.326 273.946 387.127C242.601 378.729 203.164 360.646 158.286 334.41C68.5373 281.941 -42.8742 196.922 -154.665 91.7843C-266.457 -13.3529 -357.438 -118.68 -414.167 -203.97C-442.533 -246.618 -462.319 -284.233 -471.869 -314.296C-476.643 -329.327 -478.851 -342.445 -478.306 -353.347C-477.762 -364.244 -474.471 -372.895 -468.28 -379.049Z" stroke="#C1A5D3" stroke-opacity="0.2"/>
<path opacity="0.724138" d="M-436.924 -411.661C-430.201 -417.27 -421.073 -419.931 -409.791 -419.807C-398.504 -419.683 -385.093 -416.771 -369.86 -411.267C-339.394 -400.26 -301.741 -378.921 -259.402 -349C-174.732 -289.164 -71.4178 -195.073 30.4616 -80.9071C132.341 33.259 213.474 145.86 262.294 235.613C286.706 280.493 303.024 319.635 309.827 350.39C313.228 365.767 314.244 379.022 312.719 389.837C311.195 400.648 307.137 408.991 300.414 414.601C293.692 420.21 284.564 422.871 273.282 422.747C261.995 422.623 248.584 419.711 233.351 414.207C202.885 403.2 165.231 381.861 122.893 351.94C38.2229 292.104 -65.0916 198.013 -166.971 83.8471C-268.85 -30.319 -349.984 -142.92 -398.803 -232.673C-423.215 -277.553 -439.534 -316.695 -446.336 -347.449C-449.737 -362.827 -450.753 -376.082 -449.228 -386.897C-447.704 -397.708 -443.646 -406.051 -436.924 -411.661Z" stroke="#C1A5D3" stroke-opacity="0.2"/>
<path opacity="0.758621" d="M-402.761 -441.125C-395.558 -446.148 -386.224 -448.03 -374.997 -446.956C-363.765 -445.881 -350.669 -441.85 -335.991 -435.083C-306.636 -421.549 -271.053 -397.117 -231.576 -363.74C-152.629 -296.992 -58.198 -194.545 32.9943 -72.2187C124.187 50.1074 194.855 169.126 235.394 262.658C255.665 309.428 268.392 349.799 272.396 381.012C274.397 396.619 274.215 409.91 271.721 420.557C269.228 431.199 264.433 439.169 257.23 444.192C250.028 449.215 240.694 451.097 229.467 450.023C218.235 448.948 205.139 444.917 190.461 438.15C161.106 424.616 125.523 400.184 86.0464 366.807C7.0993 300.059 -87.332 197.612 -178.524 75.286C-269.717 -47.0401 -340.385 -166.059 -380.924 -259.591C-401.195 -306.36 -413.922 -346.732 -417.926 -377.945C-419.927 -393.552 -419.745 -406.843 -417.251 -417.489C-414.758 -428.132 -409.963 -436.102 -402.761 -441.125Z" stroke="#C1A5D3" stroke-opacity="0.2"/>
<path opacity="0.793103" d="M-366.087 -467.218C-350.824 -476.017 -328.184 -471.554 -300.12 -455.572C-272.1 -439.615 -238.857 -412.275 -202.543 -375.696C-129.92 -302.544 -45.09 -192.521 34.7211 -62.9664C114.532 66.5887 174.197 191.119 206.148 287.718C222.124 336.022 231.162 377.315 232.337 408.749C233.513 440.231 226.797 461.618 211.534 470.417C196.271 479.216 173.631 474.753 145.567 458.771C117.547 442.814 84.3045 415.475 47.99 378.896C-24.6333 305.743 -109.463 195.721 -189.274 66.1656C-269.085 -63.3894 -328.75 -187.92 -360.701 -284.519C-376.677 -332.823 -385.715 -374.116 -386.889 -405.55C-388.066 -437.032 -381.35 -458.419 -366.087 -467.218Z" stroke="#C1A5D3" stroke-opacity="0.2"/>
<path opacity="0.827586" d="M-327.217 -489.751C-311.219 -497.232 -289.068 -490.876 -262.555 -472.59C-236.082 -454.331 -205.433 -424.292 -172.557 -384.789C-106.81 -305.79 -32.2284 -189.029 35.5943 -53.2305C103.417 82.5676 151.624 211.662 174.743 310.594C186.304 360.064 191.584 401.964 189.921 433.38C188.254 464.843 179.637 485.585 163.639 493.066C147.64 500.547 125.489 494.191 98.9767 475.905C72.5038 457.646 41.8551 427.607 8.97906 388.104C-56.7677 309.105 -131.35 192.344 -199.173 56.5456C-266.995 -79.2525 -315.203 -208.346 -338.322 -307.279C-349.882 -356.749 -355.162 -398.649 -353.499 -430.065C-351.833 -461.527 -343.216 -482.27 -327.217 -489.751Z" stroke="#C1A5D3" stroke-opacity="0.2"/>
<path opacity="0.862069" d="M-286.478 -508.537C-269.865 -514.642 -248.373 -506.443 -223.612 -485.991C-198.888 -465.57 -171.067 -433.06 -141.879 -390.934C-83.5093 -306.689 -19.7421 -184.078 35.5759 -43.07C90.894 97.9375 127.277 230.613 141.388 331.124C148.445 381.384 149.928 423.574 145.439 454.732C140.943 485.936 130.49 505.876 113.878 511.981C97.2657 518.087 75.7733 509.887 51.0126 489.435C26.2887 469.014 -1.53305 436.504 -30.7204 394.378C-89.0904 310.133 -152.858 187.522 -208.176 46.5143C-263.494 -94.4932 -299.877 -227.169 -313.988 -327.68C-321.044 -377.94 -322.527 -420.129 -318.038 -451.287C-313.543 -482.492 -303.09 -502.432 -286.478 -508.537Z" stroke="#C1A5D3" stroke-opacity="0.2"/>
<path opacity="0.896552" d="M-244.214 -523.445C-227.115 -528.128 -206.445 -518.147 -183.624 -495.685C-160.837 -473.256 -136.054 -438.524 -110.778 -394.095C-60.2285 -305.245 -7.76159 -177.717 34.6309 -32.573C77.0234 112.571 101.306 247.818 106.302 349.144C108.8 399.811 106.474 441.968 99.1944 472.632C91.9036 503.34 79.6938 522.326 62.5946 527.009C45.4954 531.692 24.8253 521.712 2.00494 499.25C-20.782 476.821 -45.565 442.088 -70.8416 397.66C-121.391 308.809 -173.858 181.281 -216.25 36.1374C-258.643 -109.006 -282.925 -244.254 -287.921 -345.58C-290.419 -396.247 -288.094 -438.404 -280.814 -469.068C-273.523 -499.776 -261.313 -518.762 -244.214 -523.445Z" stroke="#C1A5D3" stroke-opacity="0.2"/>
<path opacity="0.931035" d="M-200.785 -534.351C-183.329 -537.576 -163.638 -525.89 -142.932 -501.589C-122.255 -477.324 -100.699 -440.632 -79.5261 -394.239C-37.1825 -301.46 3.58499 -169.986 32.7293 -21.8099C61.8736 126.366 73.8703 263.156 69.7134 364.525C67.6348 415.214 61.518 457.018 51.5023 486.954C41.4719 516.933 27.5982 534.82 10.1424 538.045C-7.3135 541.269 -27.0038 529.584 -47.7103 505.283C-68.3868 481.017 -89.9427 444.326 -111.116 397.932C-153.46 305.153 -194.227 173.679 -223.371 25.5032C-252.516 -122.672 -264.512 -259.462 -260.356 -360.832C-258.277 -411.521 -252.16 -453.325 -242.144 -483.26C-232.114 -513.24 -218.24 -531.126 -200.785 -534.351Z" stroke="#C1A5D3" stroke-opacity="0.2"/>
<path opacity="0.965517" d="M-156.553 -541.18C-138.873 -542.922 -120.313 -529.62 -101.877 -503.665C-83.4687 -477.748 -65.3041 -439.376 -48.3949 -391.372C-14.5792 -295.37 14.1786 -160.95 29.853 -10.8702C45.5273 139.21 45.147 276.501 31.8687 377.142C25.229 427.467 15.3678 468.6 2.69254 497.58C-10.0011 526.602 -25.4332 543.253 -43.1125 544.995C-60.7918 546.737 -79.3522 533.435 -97.7876 507.48C-116.196 481.563 -134.361 443.191 -151.27 395.187C-185.086 299.185 -213.844 164.765 -229.518 14.6852C-245.192 -135.395 -244.812 -272.686 -231.534 -373.327C-224.894 -423.652 -215.033 -464.785 -202.358 -493.765C-189.664 -522.787 -174.232 -539.439 -156.553 -541.18Z" stroke="#C1A5D3" stroke-opacity="0.2"/>
<path d="M-111.89 -543.876C-94.1218 -544.122 -76.8325 -529.305 -60.8084 -501.893C-44.8075 -474.521 -30.1723 -434.762 -17.656 -385.511C7.37468 -287.017 23.904 -150.674 25.9891 0.1672C28.0742 151.009 15.3198 287.757 -6.9788 386.904C-18.129 436.482 -31.6596 476.631 -46.8979 504.435C-62.1581 532.279 -79.0312 547.568 -96.7991 547.814C-114.567 548.059 -131.856 533.243 -147.88 505.831C-163.881 478.459 -178.516 438.699 -191.033 389.449C-216.063 290.955 -232.593 154.612 -234.678 3.77042C-236.763 -147.071 -224.008 -283.819 -201.71 -382.967C-190.56 -432.545 -177.029 -472.693 -161.791 -500.497C-146.53 -528.341 -129.657 -543.63 -111.89 -543.876Z" stroke="#C1A5D3" stroke-opacity="0.2"/>
</svg>
