<svg width="270" height="250" viewBox="0 0 270 250" fill="none" xmlns="http://www.w3.org/2000/svg">
<path opacity="0.0344828" d="M-42.4133 422.263C-49.2881 416.842 -53.5752 408.615 -55.3979 397.85C-57.2212 387.081 -56.5718 373.803 -53.5969 358.337C-47.6473 327.406 -32.417 287.828 -9.25505 242.29C37.0652 151.222 115.055 36.4218 213.74 -80.5168C312.425 -197.455 413.099 -294.366 496.083 -356.52C537.578 -387.599 574.627 -409.97 604.777 -421.816C619.852 -427.739 633.178 -431.021 644.457 -431.457C655.732 -431.892 664.93 -429.485 671.804 -424.063C678.679 -418.641 682.966 -410.414 684.789 -399.649C686.612 -388.881 685.963 -375.602 682.988 -360.137C677.038 -329.206 661.808 -289.627 638.646 -244.09C592.326 -153.022 514.336 -38.2213 415.651 78.7172C316.966 195.656 216.292 292.567 133.308 354.72C91.813 385.8 54.7638 408.171 24.6139 420.017C9.53867 425.94 -3.78676 429.221 -15.0658 429.657C-26.3403 430.093 -35.5385 427.685 -42.4133 422.263Z" stroke="#C1A5D3" stroke-opacity="0.2"/>
<path opacity="0.0689655" d="M-83.6801 390.66C-90.0384 384.68 -93.5673 376.123 -94.4125 365.245C-95.258 354.362 -93.4142 341.188 -89.0567 326.031C-80.342 295.716 -61.6031 257.568 -34.4263 214.152C19.923 127.326 107.958 19.525 216.801 -88.6622C325.643 -196.849 434.662 -284.916 522.926 -339.845C567.062 -367.312 605.984 -386.478 637.085 -395.739C652.636 -400.37 666.205 -402.516 677.48 -402C688.75 -401.484 697.694 -398.31 704.053 -392.33C710.411 -386.35 713.94 -377.793 714.785 -366.915C715.63 -356.033 713.787 -342.859 709.429 -327.701C700.714 -297.386 681.975 -259.238 654.799 -215.822C600.449 -128.997 512.414 -21.1953 403.572 86.9918C294.729 195.179 185.71 283.245 97.446 338.175C53.3104 365.642 14.3884 384.808 -16.7125 394.069C-32.2632 398.699 -45.8328 400.846 -57.1073 400.33C-68.3774 399.814 -77.3218 396.64 -83.6801 390.66Z" stroke="#C1A5D3" stroke-opacity="0.2"/>
<path opacity="0.103448" d="M-121.953 356.074C-127.746 349.581 -130.49 340.76 -130.351 329.851C-130.213 318.938 -127.188 305.968 -121.481 291.234C-110.068 261.766 -87.963 225.339 -56.9781 184.375C4.98675 102.452 102.398 2.47086 220.569 -96.1413C338.741 -194.754 455.275 -273.305 548.148 -320.592C594.588 -344.238 635.086 -360.053 666.902 -366.658C682.809 -369.961 696.52 -370.956 707.704 -369.492C718.884 -368.028 727.506 -364.112 733.3 -357.62C739.094 -351.128 741.838 -342.306 741.699 -331.397C741.56 -320.484 738.536 -307.514 732.829 -292.78C721.416 -263.312 699.311 -226.885 668.326 -185.921C606.361 -103.998 508.95 -4.01697 390.778 94.5952C272.607 193.207 156.073 271.759 63.2 319.046C16.7598 342.692 -23.7389 358.506 -55.554 365.112C-71.4619 368.415 -85.1724 369.41 -96.3564 367.946C-107.536 366.482 -116.159 362.566 -121.953 356.074Z" stroke="#C1A5D3" stroke-opacity="0.2"/>
<path opacity="0.137931" d="M-156.969 318.767C-162.154 311.812 -164.092 302.793 -162.971 291.936C-161.849 281.075 -157.668 268.408 -150.655 254.21C-136.629 225.813 -111.326 191.384 -76.7689 153.183C-7.6601 76.7875 98.3847 -14.6129 224.986 -102.9C351.588 -191.187 474.75 -259.626 571.525 -298.911C619.916 -318.554 661.683 -330.898 693.97 -334.798C710.114 -336.748 723.861 -336.584 734.87 -334.182C745.874 -331.782 754.11 -327.154 759.295 -320.199C764.48 -313.244 766.418 -304.225 765.296 -293.368C764.175 -282.507 759.993 -269.84 752.98 -255.642C738.954 -227.245 713.652 -192.816 679.094 -154.615C609.986 -78.2195 503.941 13.1809 377.339 101.468C250.738 189.755 127.576 258.194 30.8009 297.479C-17.5903 317.122 -59.3575 329.466 -91.6449 333.366C-107.789 335.316 -121.536 335.152 -132.544 332.75C-143.549 330.35 -151.784 325.722 -156.969 318.767Z" stroke="#C1A5D3" stroke-opacity="0.2"/>
<path opacity="0.172414" d="M-188.5 279.037C-193.037 271.672 -194.155 262.524 -192.059 251.803C-189.963 241.077 -184.656 228.809 -176.39 215.255C-159.859 188.145 -131.551 155.977 -93.6844 120.83C-17.9574 50.5422 95.9144 -31.5816 229.982 -108.871C364.05 -186.161 492.903 -243.966 592.843 -274.95C642.817 -290.442 685.535 -299.22 718.049 -300.385C734.306 -300.967 747.985 -299.645 758.734 -296.325C769.48 -293.006 777.265 -287.702 781.802 -280.337C786.34 -272.972 787.457 -263.824 785.362 -253.102C783.265 -242.376 777.958 -230.109 769.692 -216.554C753.161 -189.445 724.853 -157.276 686.987 -122.13C611.26 -51.8416 497.388 30.2822 363.32 107.572C229.252 184.861 100.399 242.667 0.458995 273.65C-49.5151 289.143 -92.2329 297.921 -124.747 299.086C-141.004 299.668 -154.683 298.346 -165.432 295.026C-176.178 291.707 -183.963 286.403 -188.5 279.037Z" stroke="#C1A5D3" stroke-opacity="0.2"/>
<path opacity="0.206897" d="M-216.339 237.174C-220.194 229.455 -220.483 220.248 -217.429 209.743C-214.374 199.234 -207.982 187.459 -198.526 174.651C-179.615 149.035 -148.517 119.372 -107.63 87.5472C-25.8611 23.9023 94.9711 -48.3198 235.485 -114.024C375.999 -179.728 509.562 -226.46 611.907 -248.906C663.084 -260.13 706.427 -265.275 738.92 -263.695C755.167 -262.906 768.673 -260.436 779.082 -256.222C789.486 -252.01 796.762 -246.07 800.617 -238.351C804.473 -230.632 804.762 -221.424 801.708 -210.919C798.652 -200.41 792.26 -188.635 782.804 -175.827C763.894 -150.212 732.796 -120.549 691.908 -88.7236C610.14 -25.0788 489.307 47.1433 348.793 112.847C208.279 178.551 74.7161 225.283 -27.6289 247.729C-78.8054 258.953 -122.149 264.098 -154.641 262.519C-170.888 261.729 -184.395 259.259 -194.803 255.046C-205.208 250.834 -212.484 244.893 -216.339 237.174Z" stroke="#C1A5D3" stroke-opacity="0.2"/>
<path opacity="0.241379" d="M-240.309 193.5C-243.453 185.486 -242.912 176.289 -238.922 166.08C-234.932 155.868 -227.503 144.676 -216.929 132.712C-195.783 108.786 -162.132 81.8532 -118.534 53.5923C-31.3464 -2.92507 95.5266 -64.6959 241.417 -118.314C387.308 -171.932 524.564 -207.235 628.535 -220.973C680.525 -227.843 724.164 -229.316 756.388 -225.004C772.5 -222.849 785.732 -219.25 795.72 -214.175C805.704 -209.101 812.416 -202.57 815.56 -194.556C818.704 -186.542 818.163 -177.345 814.173 -167.136C810.183 -156.924 802.754 -145.732 792.18 -133.768C771.034 -109.842 737.383 -82.9091 693.785 -54.6482C606.597 1.86919 479.724 63.64 333.834 117.258C187.943 170.876 50.6865 206.179 -53.2842 219.917C-105.274 226.787 -148.913 228.26 -181.137 223.949C-197.249 221.793 -210.481 218.194 -220.469 213.119C-230.453 208.045 -237.165 201.515 -240.309 193.5Z" stroke="#C1A5D3" stroke-opacity="0.2"/>
<path opacity="0.275862" d="M-260.257 148.355C-262.666 140.107 -261.298 130.99 -256.404 121.156C-251.508 111.318 -243.099 100.793 -231.488 89.7649C-208.267 67.7093 -172.319 43.7129 -126.343 19.231C-34.3995 -29.7287 97.5487 -80.578 247.706 -121.702C397.863 -162.827 537.768 -186.432 642.573 -191.357C694.98 -193.82 738.583 -191.61 770.293 -184.599C786.149 -181.094 799.005 -176.393 808.496 -170.495C817.985 -164.599 824.081 -157.528 826.49 -149.279C828.9 -141.031 827.531 -131.914 822.637 -122.079C817.742 -112.241 809.333 -101.717 797.722 -90.6886C774.501 -68.6329 738.553 -44.6365 692.577 -20.1547C600.633 28.805 468.685 79.6543 318.528 120.779C168.371 161.903 28.4652 185.508 -76.34 190.433C-128.747 192.896 -172.349 190.687 -204.06 183.676C-219.915 180.17 -232.771 175.469 -242.263 169.572C-251.751 163.676 -257.848 156.604 -260.257 148.355Z" stroke="#C1A5D3" stroke-opacity="0.2"/>
<path opacity="0.310345" d="M-276.07 102.074C-277.726 93.6541 -275.541 84.6873 -269.78 75.3015C-264.016 65.9126 -254.691 56.1358 -242.131 46.1271C-217.013 26.1104 -179.041 5.23258 -131.037 -15.2837C-35.0368 -56.3132 100.982 -95.8539 254.263 -124.172C407.543 -152.489 549.033 -164.217 653.875 -160.292C706.3 -158.329 749.534 -152.453 780.49 -142.796C795.968 -137.967 808.35 -132.201 817.273 -125.525C826.193 -118.852 831.628 -111.293 833.285 -102.872C834.941 -94.4521 832.756 -85.4853 826.995 -76.0996C821.231 -66.7106 811.906 -56.9339 799.346 -46.9252C774.227 -26.9084 736.256 -6.0306 688.252 14.4857C592.252 55.5151 456.232 95.0559 302.952 123.374C149.671 151.691 8.18169 163.419 -96.6604 159.494C-149.086 157.531 -192.319 151.655 -223.275 141.998C-238.753 137.169 -251.135 131.403 -260.058 124.727C-268.979 118.054 -274.414 110.495 -276.07 102.074Z" stroke="#C1A5D3" stroke-opacity="0.2"/>
<path opacity="0.344828" d="M-287.663 55.0155C-288.554 46.4874 -285.57 37.7383 -278.985 28.873C-272.397 20.0047 -262.227 11.0502 -248.814 2.13714C-221.988 -15.6884 -182.282 -33.2886 -132.615 -49.6833C-33.2896 -82.47 105.765 -110.401 261.003 -125.697C416.24 -140.992 558.237 -140.752 662.318 -128.007C714.362 -121.634 756.899 -112.137 786.863 -99.9067C801.846 -93.7914 813.66 -87.003 821.947 -79.6002C830.231 -72.2 834.964 -64.2111 835.854 -55.6831C836.745 -47.1551 833.761 -38.406 827.175 -29.5407C820.588 -20.6724 810.418 -11.7178 797.005 -2.80478C770.179 15.0207 730.473 32.6209 680.806 49.0156C581.481 81.8023 442.426 109.734 287.188 125.029C131.951 140.324 -10.0461 140.085 -114.127 127.339C-166.171 120.966 -208.708 111.469 -238.672 99.239C-253.655 93.1238 -265.47 86.3354 -273.756 78.9326C-282.04 71.5323 -286.773 63.5435 -287.663 55.0155Z" stroke="#C1A5D3" stroke-opacity="0.2"/>
<path opacity="0.37931" d="M-294.983 7.53331C-295.102 -1.03788 -291.34 -9.50286 -283.982 -17.7802C-276.621 -26.0604 -265.683 -34.1245 -251.518 -41.8741C-223.19 -57.3726 -182.051 -71.5613 -131.1 -83.7095C-29.2051 -108.004 111.827 -124.113 267.84 -126.27C423.853 -128.426 565.276 -116.222 667.804 -94.7528C719.072 -84.0176 760.587 -70.9715 789.332 -56.2619C803.706 -48.9068 814.862 -41.1481 822.45 -33.0745C830.034 -25.0037 834.028 -16.6459 834.146 -8.07475C834.265 0.496444 830.504 8.96143 823.145 17.2388C815.784 25.5189 804.846 33.5831 790.681 41.3326C762.353 56.8312 721.215 71.0198 670.263 83.1681C568.368 107.463 427.336 123.572 271.323 125.728C115.31 127.885 -26.1131 115.68 -128.641 94.2114C-179.908 83.4761 -221.423 70.43 -250.169 55.7204C-264.542 48.3654 -275.699 40.6066 -283.286 32.5331C-290.871 24.4623 -294.865 16.1045 -294.983 7.53331Z" stroke="#C1A5D3" stroke-opacity="0.2"/>
<path opacity="0.413793" d="M-298.003 -40.0119C-297.349 -48.5613 -292.839 -56.6779 -284.763 -64.3043C-276.684 -71.9333 -265.062 -79.0457 -250.253 -85.5727C-220.638 -98.6264 -178.381 -109.295 -126.532 -117.105C-22.8433 -132.722 119.093 -136.887 274.694 -125.888C430.295 -114.89 570.068 -90.8125 670.262 -60.7838C720.363 -45.7682 760.541 -29.2722 787.849 -12.195C801.503 -3.65613 811.917 5.01388 818.747 13.6967C825.575 22.3766 828.8 31.0399 828.145 39.5893C827.49 48.1387 822.981 56.2552 814.905 63.8816C806.826 71.5106 795.203 78.623 780.395 85.1501C750.78 98.2037 708.523 108.873 656.674 116.682C552.985 132.299 411.049 136.464 255.448 125.465C99.8473 114.467 -39.9264 90.3898 -140.12 60.3611C-190.221 45.3455 -230.399 28.8496 -257.707 11.7723C-271.361 3.23345 -281.775 -5.43655 -288.605 -14.1194C-295.433 -22.7993 -298.658 -31.4625 -298.003 -40.0119Z" stroke="#C1A5D3" stroke-opacity="0.2"/>
<path opacity="0.448276" d="M-296.738 -87.2515C-295.315 -95.7143 -290.091 -103.421 -281.359 -110.338C-272.624 -117.258 -260.406 -123.364 -245.067 -128.619C-214.39 -139.129 -171.335 -146.197 -118.984 -149.608C-14.291 -156.429 127.469 -148.617 281.473 -124.547C435.478 -100.477 572.538 -64.7113 669.636 -26.3512C718.188 -7.16955 756.723 12.6507 782.385 31.9655C795.217 41.6232 804.809 51.1384 810.829 60.3645C816.848 69.5874 819.28 78.4904 817.857 86.9532C816.434 95.4159 811.21 103.122 802.478 110.04C793.743 116.96 781.525 123.066 766.186 128.321C735.509 138.83 692.454 145.899 640.103 149.31C535.41 156.131 393.65 148.319 239.645 124.249C85.6407 100.179 -51.4194 64.413 -148.517 26.0528C-197.069 6.87122 -235.604 -12.949 -261.266 -32.2638C-274.098 -41.9215 -283.69 -51.4368 -289.711 -60.6628C-295.729 -69.8857 -298.161 -78.7887 -296.738 -87.2515Z" stroke="#C1A5D3" stroke-opacity="0.2"/>
<path opacity="0.482759" d="M-291.233 -133.827C-289.053 -142.139 -283.154 -149.376 -273.832 -155.532C-264.507 -161.69 -251.786 -166.744 -236.033 -170.687C-204.529 -178.572 -161.004 -181.985 -108.549 -180.972C-3.64783 -178.946 136.857 -159.217 288.093 -122.259C439.33 -85.3004 572.633 -38.1177 665.895 8.28193C712.53 31.4836 749.128 54.4772 772.949 75.8826C784.861 86.5856 793.557 96.8736 798.723 106.573C803.887 116.268 805.507 125.343 803.327 133.655C801.146 141.967 795.248 149.205 785.926 155.361C776.601 161.519 763.88 166.573 748.127 170.516C716.622 178.401 673.098 181.814 620.643 180.801C515.742 178.775 375.237 159.046 224.001 122.088C72.7642 85.1293 -60.5392 37.9466 -153.801 -8.45304C-200.436 -31.6547 -237.034 -54.6483 -260.856 -76.0537C-272.767 -86.7567 -281.464 -97.0447 -286.629 -106.744C-291.793 -116.44 -293.413 -125.515 -291.233 -133.827Z" stroke="#C1A5D3" stroke-opacity="0.2"/>
<path opacity="0.517241" d="M-281.56 -179.385C-278.639 -187.483 -272.11 -194.197 -262.27 -199.544C-252.426 -204.893 -239.299 -208.856 -223.252 -211.457C-191.159 -216.658 -147.496 -216.391 -95.3366 -210.961C8.97425 -200.102 147.154 -168.607 294.471 -119.041C441.788 -69.4761 570.32 -11.2358 659.037 42.8501C703.399 69.8951 737.782 95.8871 759.582 119.22C770.482 130.887 778.217 141.869 782.489 151.968C786.759 162.062 787.554 171.241 784.633 179.339C781.712 187.437 775.183 194.151 765.343 199.498C755.499 204.847 742.372 208.81 726.325 211.411C694.232 216.612 650.569 216.345 598.409 210.915C494.099 200.056 355.919 168.561 208.602 118.995C61.2845 69.4302 -67.2475 11.1899 -155.965 -42.896C-200.327 -69.941 -234.709 -95.933 -256.509 -119.266C-267.409 -130.933 -275.144 -141.915 -279.416 -152.014C-283.686 -162.108 -284.481 -171.287 -281.56 -179.385Z" stroke="#C1A5D3" stroke-opacity="0.2"/>
<path opacity="0.551724" d="M-267.831 -223.577C-264.19 -231.399 -257.081 -237.538 -246.797 -242.036C-236.509 -246.536 -223.076 -249.378 -206.857 -250.617C-174.421 -253.094 -130.952 -249.149 -79.4846 -239.344C23.4417 -219.735 158.245 -176.713 300.522 -114.918C442.798 -53.1227 565.581 15.732 649.077 77.0924C690.829 107.775 722.735 136.567 742.346 161.65C752.152 174.192 758.868 185.786 762.212 196.206C765.555 206.623 765.521 215.835 761.881 223.658C758.24 231.48 751.131 237.619 740.847 242.117C730.559 246.617 717.126 249.459 700.907 250.698C668.471 253.175 625.002 249.23 573.534 239.424C470.608 219.816 335.805 176.793 193.528 114.998C51.2516 53.2036 -71.5308 -15.6511 -155.027 -77.0115C-196.779 -107.694 -228.685 -136.487 -248.296 -161.57C-258.102 -174.111 -264.818 -185.705 -268.162 -196.125C-271.506 -206.542 -271.471 -215.754 -267.831 -223.577Z" stroke="#C1A5D3" stroke-opacity="0.2"/>
<path opacity="0.586207" d="M-250.182 -266.068C-245.85 -273.556 -238.215 -279.073 -227.565 -282.688C-216.912 -286.304 -203.275 -288.004 -187.007 -287.871C-154.474 -287.605 -111.53 -280.012 -61.1466 -265.906C39.6118 -237.697 170.013 -183.475 306.166 -109.921C442.319 -36.3666 558.418 42.5783 636.059 110.746C674.882 144.833 704.068 176.207 721.342 202.848C729.98 216.17 735.624 228.286 738.016 238.949C740.407 249.609 739.543 258.784 735.211 266.272C730.879 273.76 723.243 279.277 712.594 282.892C701.94 286.508 688.303 288.208 672.036 288.075C639.503 287.809 596.558 280.216 546.175 266.11C445.417 237.901 315.015 183.679 178.862 110.125C42.7093 36.5706 -73.3891 -42.3743 -151.03 -110.542C-189.853 -144.629 -219.04 -176.003 -236.314 -202.645C-244.951 -215.966 -250.595 -228.082 -252.987 -238.745C-255.379 -249.405 -254.514 -258.581 -250.182 -266.068Z" stroke="#C1A5D3" stroke-opacity="0.2"/>
<path opacity="0.62069" d="M-228.785 -306.533C-223.794 -313.629 -215.69 -318.483 -204.756 -321.186C-193.818 -323.891 -180.08 -324.435 -163.889 -322.932C-131.506 -319.926 -89.4134 -308.742 -40.4977 -290.443C57.3259 -253.848 182.333 -188.84 311.326 -104.086C440.32 -19.3324 548.85 69.1019 620.044 143.558C655.644 180.79 681.889 214.506 696.694 242.504C704.097 256.503 708.627 269.05 710.049 279.875C711.47 290.697 709.782 299.766 704.791 306.862C699.8 313.958 691.696 318.811 680.762 321.515C669.824 324.22 656.087 324.764 639.895 323.261C607.512 320.254 565.42 309.07 516.504 290.772C418.68 254.177 293.674 189.168 164.68 104.414C35.6868 19.6608 -72.8439 -68.7735 -144.038 -143.23C-179.638 -180.461 -205.883 -214.177 -220.688 -242.175C-228.091 -256.175 -232.621 -268.721 -234.042 -279.547C-235.463 -290.368 -233.775 -299.437 -228.785 -306.533Z" stroke="#C1A5D3" stroke-opacity="0.2"/>
<path opacity="0.655172" d="M-203.838 -344.665C-198.226 -351.315 -189.715 -355.468 -178.579 -357.24C-167.44 -359.013 -153.707 -358.398 -137.714 -355.536C-105.729 -349.812 -64.8082 -335.122 -17.7322 -312.77C76.4123 -268.068 195.073 -192.767 315.925 -97.4591C436.777 -2.15094 536.915 95.0996 601.12 175.278C633.225 215.37 656.329 251.172 668.553 280.314C674.665 294.884 678.046 307.766 678.486 318.671C678.927 329.572 676.428 338.466 670.816 345.116C665.204 351.766 656.693 355.918 645.557 357.691C634.418 359.464 620.685 358.848 604.692 355.986C572.707 350.262 531.786 335.573 484.71 313.22C390.566 268.518 271.905 193.218 151.053 97.9095C30.2007 2.60134 -69.9364 -94.6492 -134.142 -174.828C-166.247 -214.92 -189.351 -250.722 -201.574 -279.863C-207.686 -294.434 -211.068 -307.315 -211.508 -318.22C-211.949 -329.121 -209.45 -338.015 -203.838 -344.665Z" stroke="#C1A5D3" stroke-opacity="0.2"/>
<path opacity="0.689655" d="M-175.56 -380.168C-169.369 -386.322 -160.516 -389.742 -149.264 -390.569C-138.008 -391.397 -124.385 -389.626 -108.712 -385.427C-77.367 -377.029 -37.93 -358.946 6.94797 -332.71C96.6968 -280.241 208.108 -195.222 319.9 -90.0845C431.691 15.0527 522.672 120.379 579.401 205.669C607.767 248.318 627.553 285.933 637.103 315.996C641.877 331.027 644.085 344.145 643.54 355.047C642.996 365.944 639.705 374.595 633.515 380.749C627.324 386.902 618.471 390.322 607.219 391.149C595.963 391.977 582.34 390.206 566.667 386.007C535.322 377.61 495.885 359.527 451.007 333.29C361.258 280.822 249.847 195.802 138.055 90.6648C26.2641 -14.4724 -64.7174 -119.799 -121.446 -205.089C-149.812 -247.738 -169.599 -285.353 -179.148 -315.415C-183.923 -330.447 -186.13 -343.565 -185.586 -354.466C-185.041 -365.364 -181.75 -374.015 -175.56 -380.168Z" stroke="#C1A5D3" stroke-opacity="0.2"/>
<path opacity="0.724138" d="M-144.203 -412.78C-137.481 -418.39 -128.353 -421.051 -117.07 -420.927C-105.784 -420.803 -92.3725 -417.891 -77.1393 -412.387C-46.6735 -401.379 -9.0201 -380.04 33.3183 -350.12C117.988 -290.284 221.303 -196.193 323.182 -82.0266C425.062 32.1395 506.195 144.741 555.015 234.493C579.427 279.373 595.745 318.515 602.547 349.27C605.948 364.648 606.965 377.903 605.44 388.718C603.915 399.529 599.857 407.871 593.135 413.481C586.413 419.091 577.285 421.752 566.002 421.628C554.716 421.504 541.304 418.592 526.071 413.088C495.605 402.08 457.952 380.741 415.614 350.821C330.944 290.985 227.629 196.894 125.75 82.7276C23.8703 -31.4385 -57.263 -144.04 -106.083 -233.792C-130.495 -278.672 -146.813 -317.814 -153.615 -348.569C-157.017 -363.947 -158.033 -377.202 -156.508 -388.017C-154.983 -398.828 -150.925 -407.17 -144.203 -412.78Z" stroke="#C1A5D3" stroke-opacity="0.2"/>
<path opacity="0.758621" d="M-110.04 -442.244C-102.837 -447.267 -93.5035 -449.149 -82.2761 -448.075C-71.0445 -447.001 -57.9481 -442.969 -43.2705 -436.202C-13.9157 -422.668 21.6676 -398.236 61.1443 -364.859C140.091 -298.111 234.523 -195.664 325.715 -73.3382C416.907 48.9879 487.575 168.006 528.115 261.539C548.386 308.308 561.113 348.68 565.116 379.893C567.118 395.499 566.935 408.791 564.442 419.437C561.949 430.079 557.154 438.05 549.951 443.073C542.748 448.096 533.415 449.978 522.188 448.903C510.956 447.829 497.86 443.798 483.182 437.03C453.827 423.496 418.244 399.064 378.767 365.688C299.82 298.94 205.389 196.493 114.196 74.1665C23.004 -48.1596 -47.6639 -167.178 -88.2034 -260.71C-108.475 -307.48 -121.201 -347.851 -125.205 -379.064C-127.207 -394.671 -127.024 -407.963 -124.53 -418.609C-122.037 -429.251 -117.243 -437.221 -110.04 -442.244Z" stroke="#C1A5D3" stroke-opacity="0.2"/>
<path opacity="0.793103" d="M-73.3663 -468.337C-58.1033 -477.136 -35.4629 -472.673 -7.39952 -456.691C20.621 -440.734 53.8634 -413.395 90.1779 -376.816C162.801 -303.664 247.631 -193.641 327.442 -64.0859C407.253 65.4692 466.918 189.999 498.868 286.599C514.845 334.903 523.883 376.196 525.057 407.63C526.234 439.112 519.518 460.499 504.255 469.298C488.992 478.096 466.352 473.633 438.288 457.652C410.268 441.694 377.025 414.355 340.711 377.776C268.087 304.624 183.258 194.601 103.447 65.0461C23.6356 -64.5089 -36.0291 -189.039 -67.9798 -285.639C-83.9564 -333.942 -92.9944 -375.236 -94.1688 -406.669C-95.345 -438.151 -88.6292 -459.538 -73.3663 -468.337Z" stroke="#C1A5D3" stroke-opacity="0.2"/>
<path opacity="0.827586" d="M-34.4963 -490.87C-18.4979 -498.351 3.653 -491.996 30.1657 -473.709C56.6387 -455.45 87.2874 -425.412 120.163 -385.909C185.91 -306.909 260.492 -190.148 328.315 -54.35C396.138 81.4481 444.345 210.542 467.464 309.474C479.024 358.944 484.305 400.845 482.641 432.26C480.975 463.723 472.358 484.466 456.36 491.946C440.361 499.427 418.21 493.072 391.697 474.785C365.224 456.526 334.576 426.488 301.7 386.985C235.953 307.986 161.371 191.224 93.5482 55.4261C25.7255 -80.372 -22.4819 -209.466 -45.6008 -308.398C-57.1612 -357.868 -62.4417 -399.769 -60.7781 -431.184C-59.112 -462.647 -50.4948 -483.389 -34.4963 -490.87Z" stroke="#C1A5D3" stroke-opacity="0.2"/>
<path opacity="0.862069" d="M6.2432 -509.657C22.8554 -515.762 44.3477 -507.563 69.1084 -487.111C93.8324 -466.689 121.654 -434.18 150.841 -392.054C209.211 -307.808 272.979 -185.197 328.297 -44.1895C383.615 96.818 419.998 229.493 434.109 330.005C441.165 380.265 442.648 422.454 438.159 453.612C433.664 484.817 423.211 504.757 406.599 510.862C389.986 516.967 368.494 508.768 343.733 488.316C319.009 467.894 291.188 435.385 262 393.259C203.63 309.014 139.863 186.402 84.5451 45.3948C29.227 -95.6127 -7.15632 -228.288 -21.2675 -328.8C-28.3236 -379.059 -29.8067 -421.249 -25.3177 -452.407C-20.8221 -483.611 -10.369 -503.551 6.2432 -509.657Z" stroke="#C1A5D3" stroke-opacity="0.2"/>
<path opacity="0.896552" d="M48.5069 -524.564C65.6061 -529.247 86.2761 -519.267 109.097 -496.805C131.883 -474.376 156.666 -439.643 181.943 -395.215C232.492 -306.364 284.959 -178.836 327.352 -33.6925C369.744 111.451 394.026 246.699 399.023 348.025C401.521 398.692 399.195 440.849 391.915 471.512C384.624 502.221 372.415 521.207 355.315 525.89C338.216 530.573 317.546 520.592 294.726 498.13C271.939 475.701 247.156 440.969 221.879 396.54C171.33 307.69 118.863 180.162 76.4706 35.0179C34.0781 -110.126 9.7957 -245.373 4.79959 -346.699C2.30131 -397.366 4.62702 -439.523 11.9071 -470.187C19.1978 -500.896 31.4077 -519.881 48.5069 -524.564Z" stroke="#C1A5D3" stroke-opacity="0.2"/>
<path opacity="0.931035" d="M91.9362 -535.471C109.392 -538.696 129.082 -527.01 149.789 -502.709C170.465 -478.443 192.021 -441.752 213.195 -395.358C255.538 -302.579 296.306 -171.105 325.45 -22.9294C354.594 125.246 366.591 262.036 362.434 363.406C360.355 414.095 354.239 455.899 344.223 485.834C334.193 515.814 320.319 533.7 302.863 536.925C285.407 540.15 265.717 528.464 245.01 504.163C224.334 479.898 202.778 443.206 181.605 396.813C139.261 304.034 98.4935 172.559 69.3492 24.3837C40.2049 -123.792 28.2082 -260.582 32.3651 -361.951C34.4438 -412.64 40.5605 -454.444 50.5763 -484.38C60.6066 -514.359 74.4803 -532.246 91.9362 -535.471Z" stroke="#C1A5D3" stroke-opacity="0.2"/>
<path opacity="0.965517" d="M136.168 -542.3C153.847 -544.042 172.408 -530.74 190.843 -504.785C209.252 -478.867 227.417 -440.496 244.326 -392.491C278.142 -296.49 306.899 -162.07 322.574 -11.9897C338.248 138.09 337.868 275.381 324.589 376.023C317.95 426.348 308.088 467.48 295.413 496.461C282.72 525.483 267.288 542.134 249.608 543.876C231.929 545.618 213.368 532.316 194.933 506.361C176.524 480.443 158.36 442.072 141.45 394.067C107.635 298.066 78.8769 163.645 63.2026 13.5657C47.5283 -136.514 47.9086 -273.805 61.1869 -374.447C67.8266 -424.772 77.6878 -465.904 90.363 -494.885C103.057 -523.907 118.489 -540.558 136.168 -542.3Z" stroke="#C1A5D3" stroke-opacity="0.2"/>
<path d="M180.831 -544.996C198.599 -545.241 215.888 -530.424 231.912 -503.013C247.913 -475.64 262.548 -435.881 275.065 -386.63C300.095 -288.137 316.625 -151.794 318.71 -0.952307C320.795 149.889 308.041 286.637 285.742 385.785C274.592 435.363 261.061 475.511 245.823 503.315C230.563 531.16 213.689 546.449 195.922 546.694C178.154 546.94 160.865 532.123 144.84 504.711C128.84 477.339 114.204 437.58 101.688 388.329C76.6574 289.835 60.1281 153.493 58.043 2.65091C55.9579 -148.191 68.7122 -284.938 91.0109 -384.086C102.161 -433.664 115.692 -473.813 130.93 -501.617C146.19 -529.461 163.063 -544.75 180.831 -544.996Z" stroke="#C1A5D3" stroke-opacity="0.2"/>
</svg>
