<svg width="570" height="250" viewBox="0 0 570 250" fill="none" xmlns="http://www.w3.org/2000/svg">
<path opacity="0.0344828" d="M-27.4133 749.263C-34.2881 743.842 -38.5752 735.615 -40.3979 724.85C-42.2212 714.081 -41.5718 700.803 -38.5969 685.337C-32.6473 654.406 -17.417 614.828 5.74495 569.29C52.0652 478.222 130.055 363.422 228.74 246.483C327.425 129.545 428.099 32.6336 511.083 -29.52C552.578 -60.5992 589.627 -82.9705 619.777 -94.8163C634.852 -100.739 648.178 -104.021 659.457 -104.457C670.732 -104.892 679.93 -102.485 686.804 -97.063C693.679 -91.6413 697.966 -83.4141 699.789 -72.6495C701.612 -61.8807 700.963 -48.6024 697.988 -33.1367C692.038 -2.20566 676.808 37.3727 653.646 82.9102C607.326 173.978 529.336 288.779 430.651 405.717C331.966 522.656 231.292 619.567 148.308 681.72C106.813 712.8 69.7638 735.171 39.6139 747.017C24.5387 752.94 11.2132 756.221 -0.0657519 756.657C-11.3403 757.093 -20.5385 754.685 -27.4133 749.263Z" stroke="#C1A5D3" stroke-opacity="0.2"/>
<path opacity="0.0689655" d="M-68.6801 717.66C-75.0384 711.68 -78.5673 703.123 -79.4125 692.245C-80.258 681.362 -78.4142 668.188 -74.0567 653.031C-65.342 622.716 -46.6031 584.568 -19.4263 541.152C34.923 454.326 122.958 346.525 231.801 238.338C340.643 130.151 449.662 42.0841 537.926 -12.8452C582.062 -40.312 620.984 -59.478 652.085 -68.7391C667.636 -73.3698 681.205 -75.5162 692.48 -75C703.75 -74.4839 712.694 -71.31 719.053 -65.3301C725.411 -59.3503 728.94 -50.7934 729.785 -39.9152C730.63 -29.0329 728.787 -15.8586 724.429 -0.700981C715.714 29.6138 696.975 67.7616 669.799 111.178C615.449 198.003 527.414 305.805 418.572 413.992C309.729 522.179 200.71 610.245 112.446 665.175C68.3104 692.642 29.3884 711.808 -1.71249 721.069C-17.2632 725.699 -30.8328 727.846 -42.1073 727.33C-53.3774 726.814 -62.3218 723.64 -68.6801 717.66Z" stroke="#C1A5D3" stroke-opacity="0.2"/>
<path opacity="0.103448" d="M-106.953 683.074C-112.746 676.581 -115.49 667.76 -115.351 656.851C-115.213 645.938 -112.188 632.968 -106.481 618.234C-95.0679 588.766 -72.963 552.339 -41.9781 511.375C19.9868 429.452 117.398 329.471 235.569 230.859C353.741 132.246 470.275 53.6946 563.148 6.40765C609.588 -17.2377 650.086 -33.0525 681.902 -39.6583C697.809 -42.9613 711.52 -43.9562 722.704 -42.4918C733.884 -41.028 742.506 -37.1123 748.3 -30.6199C754.094 -24.1276 756.838 -15.3061 756.699 -4.3971C756.56 6.51593 753.536 19.4858 747.829 34.22C736.416 63.6878 714.311 100.115 683.326 141.079C621.361 223.002 523.95 322.983 405.778 421.595C287.607 520.207 171.073 598.759 78.2 646.046C31.7598 669.692 -8.73886 685.506 -40.554 692.112C-56.4619 695.415 -70.1724 696.41 -81.3564 694.946C-92.5363 693.482 -101.159 689.566 -106.953 683.074Z" stroke="#C1A5D3" stroke-opacity="0.2"/>
<path opacity="0.137931" d="M-141.969 645.767C-147.154 638.812 -149.092 629.793 -147.971 618.936C-146.849 608.075 -142.668 595.408 -135.655 581.21C-121.629 552.813 -96.3261 518.384 -61.7689 480.183C7.3399 403.787 113.385 312.387 239.986 224.1C366.588 135.813 489.75 67.3741 586.525 28.0895C634.916 8.44561 676.683 -3.89761 708.97 -7.79782C725.114 -9.74798 738.861 -9.58376 749.87 -7.18237C760.874 -4.78186 769.11 -0.154243 774.295 6.80105C779.48 13.7563 781.418 22.7753 780.296 33.632C779.175 44.4927 774.993 57.1596 767.98 71.3582C753.954 99.7548 728.652 134.184 694.094 172.385C624.986 248.781 518.941 340.181 392.339 428.468C265.738 516.755 142.576 585.194 45.8009 624.479C-2.59034 644.122 -44.3575 656.466 -76.6449 660.366C-92.7889 662.316 -106.536 662.152 -117.544 659.75C-128.549 657.35 -136.784 652.722 -141.969 645.767Z" stroke="#C1A5D3" stroke-opacity="0.2"/>
<path opacity="0.172414" d="M-173.5 606.037C-178.037 598.672 -179.155 589.524 -177.059 578.803C-174.963 568.077 -169.656 555.809 -161.39 542.255C-144.859 515.145 -116.551 482.977 -78.6844 447.83C-2.95743 377.542 110.914 295.418 244.982 218.129C379.05 140.839 507.903 83.0337 607.843 52.0504C657.817 36.5575 700.535 27.7799 733.049 26.6151C749.306 26.0326 762.985 27.3547 773.734 30.6748C784.48 33.9938 792.265 39.2979 796.802 46.6631C801.34 54.0283 802.457 63.1762 800.362 73.898C798.265 84.6237 792.958 96.8912 784.692 110.446C768.161 137.555 739.853 169.724 701.987 204.87C626.26 275.158 512.388 357.282 378.32 434.572C244.252 511.861 115.399 569.667 15.459 600.65C-34.5151 616.143 -77.2329 624.921 -109.747 626.086C-126.004 626.668 -139.683 625.346 -150.432 622.026C-161.178 618.707 -168.963 613.403 -173.5 606.037Z" stroke="#C1A5D3" stroke-opacity="0.2"/>
<path opacity="0.206897" d="M-201.339 564.174C-205.194 556.455 -205.483 547.248 -202.429 536.743C-199.374 526.234 -192.982 514.459 -183.526 501.651C-164.615 476.035 -133.517 446.372 -92.6299 414.547C-10.8611 350.902 109.971 278.68 250.485 212.976C390.999 147.272 524.562 100.54 626.907 78.0944C678.084 66.8705 721.427 61.7253 753.92 63.3047C770.167 64.0944 783.673 66.5643 794.082 70.7779C804.486 74.9901 811.762 80.9302 815.617 88.6493C819.473 96.3684 819.762 105.576 816.708 116.081C813.652 126.59 807.26 138.365 797.804 151.173C778.894 176.788 747.796 206.451 706.908 238.276C625.14 301.921 504.307 374.143 363.793 439.847C223.279 505.551 89.7161 552.283 -12.6289 574.729C-63.8054 585.953 -107.149 591.098 -139.641 589.519C-155.888 588.729 -169.395 586.259 -179.803 582.046C-190.208 577.834 -197.484 571.893 -201.339 564.174Z" stroke="#C1A5D3" stroke-opacity="0.2"/>
<path opacity="0.241379" d="M-225.309 520.5C-228.453 512.486 -227.912 503.289 -223.922 493.08C-219.932 482.868 -212.503 471.676 -201.929 459.712C-180.783 435.786 -147.132 408.853 -103.534 380.592C-16.3464 324.075 110.527 262.304 256.417 208.686C402.308 155.068 539.564 119.765 643.535 106.027C695.525 99.1573 739.164 97.6838 771.388 101.995C787.5 104.151 800.732 107.75 810.72 112.825C820.704 117.899 827.416 124.429 830.56 132.444C833.704 140.458 833.163 149.655 829.173 159.864C825.183 170.076 817.754 181.268 807.18 193.232C786.034 217.158 752.383 244.091 708.785 272.352C621.597 328.869 494.724 390.64 348.834 444.258C202.943 497.876 65.6865 533.179 -38.2842 546.917C-90.2737 553.787 -133.913 555.26 -166.137 550.949C-182.249 548.793 -195.481 545.194 -205.469 540.119C-215.453 535.045 -222.165 528.515 -225.309 520.5Z" stroke="#C1A5D3" stroke-opacity="0.2"/>
<path opacity="0.275862" d="M-245.257 475.355C-247.666 467.107 -246.298 457.99 -241.404 448.156C-236.508 438.318 -228.099 427.793 -216.488 416.765C-193.267 394.709 -157.319 370.713 -111.343 346.231C-19.3995 297.271 112.549 246.422 262.706 205.298C412.863 164.173 552.768 140.568 657.573 135.643C709.98 133.18 753.583 135.39 785.293 142.401C801.149 145.906 814.005 150.607 823.496 156.505C832.985 162.401 839.081 169.472 841.49 177.721C843.9 185.969 842.531 195.086 837.637 204.921C832.742 214.759 824.333 225.283 812.722 236.311C789.501 258.367 753.553 282.363 707.577 306.845C615.633 355.805 483.685 406.654 333.528 447.779C183.371 488.903 43.4652 512.508 -61.34 517.433C-113.747 519.896 -157.349 517.687 -189.06 510.676C-204.915 507.17 -217.771 502.469 -227.263 496.572C-236.751 490.676 -242.848 483.604 -245.257 475.355Z" stroke="#C1A5D3" stroke-opacity="0.2"/>
<path opacity="0.310345" d="M-261.07 429.074C-262.726 420.654 -260.541 411.687 -254.78 402.302C-249.016 392.913 -239.691 383.136 -227.131 373.127C-202.013 353.11 -164.041 332.233 -116.037 311.716C-20.0368 270.687 115.982 231.146 269.263 202.828C422.543 174.511 564.033 162.783 668.875 166.708C721.3 168.671 764.534 174.547 795.49 184.204C810.968 189.033 823.35 194.799 832.273 201.475C841.193 208.148 846.628 215.707 848.285 224.128C849.941 232.548 847.756 241.515 841.995 250.9C836.231 260.289 826.906 270.066 814.346 280.075C789.227 300.092 751.256 320.969 703.252 341.486C607.252 382.515 471.232 422.056 317.952 450.374C164.671 478.691 23.1817 490.419 -81.6604 486.494C-134.086 484.531 -177.319 478.655 -208.275 468.998C-223.753 464.169 -236.135 458.403 -245.058 451.727C-253.979 445.054 -259.414 437.495 -261.07 429.074Z" stroke="#C1A5D3" stroke-opacity="0.2"/>
<path opacity="0.344828" d="M-272.663 382.015C-273.554 373.487 -270.57 364.738 -263.985 355.873C-257.397 347.005 -247.227 338.05 -233.814 329.137C-206.988 311.312 -167.282 293.711 -117.615 277.317C-18.2896 244.53 120.765 216.599 276.003 201.303C431.24 186.008 573.237 186.248 677.318 198.993C729.362 205.366 771.899 214.863 801.863 227.093C816.846 233.209 828.66 239.997 836.947 247.4C845.231 254.8 849.964 262.789 850.854 271.317C851.745 279.845 848.761 288.594 842.175 297.459C835.588 306.328 825.418 315.282 812.005 324.195C785.179 342.021 745.473 359.621 695.806 376.016C596.481 408.802 457.426 436.734 302.188 452.029C146.951 467.324 4.95395 467.085 -99.1269 454.339C-151.171 447.966 -193.708 438.469 -223.672 426.239C-238.655 420.124 -250.47 413.335 -258.756 405.933C-267.04 398.532 -271.773 390.543 -272.663 382.015Z" stroke="#C1A5D3" stroke-opacity="0.2"/>
<path opacity="0.37931" d="M-279.983 334.533C-280.102 325.962 -276.34 317.497 -268.982 309.22C-261.621 300.94 -250.683 292.875 -236.518 285.126C-208.19 269.627 -167.051 255.439 -116.1 243.29C-14.2051 218.996 126.827 202.887 282.84 200.73C438.853 198.574 580.276 210.778 682.804 232.247C734.072 242.982 775.587 256.029 804.332 270.738C818.706 278.093 829.862 285.852 837.45 293.925C845.034 301.996 849.028 310.354 849.146 318.925C849.265 327.496 845.504 335.961 838.145 344.239C830.784 352.519 819.846 360.583 805.681 368.333C777.353 383.831 736.215 398.02 685.263 410.168C583.368 434.463 442.336 450.572 286.323 452.728C130.31 454.885 -11.1131 442.68 -113.641 421.211C-164.908 410.476 -206.423 397.43 -235.169 382.72C-249.542 375.365 -260.699 367.607 -268.286 359.533C-275.871 351.462 -279.865 343.105 -279.983 334.533Z" stroke="#C1A5D3" stroke-opacity="0.2"/>
<path opacity="0.413793" d="M-283.003 286.988C-282.349 278.439 -277.839 270.322 -269.763 262.696C-261.684 255.067 -250.062 247.954 -235.253 241.427C-205.638 228.374 -163.381 217.705 -111.532 209.895C-7.84332 194.278 134.093 190.113 289.694 201.112C445.295 212.11 585.068 236.188 685.262 266.216C735.363 281.232 775.541 297.728 802.849 314.805C816.503 323.344 826.917 332.014 833.747 340.697C840.575 349.377 843.8 358.04 843.145 366.589C842.49 375.139 837.981 383.255 829.905 390.882C821.826 398.511 810.203 405.623 795.395 412.15C765.78 425.204 723.523 435.873 671.674 443.682C567.985 459.299 426.049 463.464 270.448 452.465C114.847 441.467 -24.9264 417.39 -125.12 387.361C-175.221 372.346 -215.399 355.85 -242.707 338.772C-256.361 330.233 -266.775 321.563 -273.605 312.881C-280.433 304.201 -283.658 295.537 -283.003 286.988Z" stroke="#C1A5D3" stroke-opacity="0.2"/>
<path opacity="0.448276" d="M-281.738 239.749C-280.315 231.286 -275.091 223.579 -266.359 216.662C-257.624 209.742 -245.406 203.636 -230.067 198.381C-199.39 187.871 -156.335 180.803 -103.984 177.392C0.709034 170.571 142.469 178.383 296.473 202.453C450.478 226.523 587.538 262.289 684.636 300.649C733.188 319.83 771.723 339.651 797.385 358.965C810.217 368.623 819.809 378.138 825.829 387.365C831.848 396.587 834.28 405.49 832.857 413.953C831.434 422.416 826.21 430.122 817.478 437.04C808.743 443.96 796.525 450.066 781.186 455.321C750.509 465.83 707.454 472.899 655.103 476.31C550.41 483.131 408.65 475.319 254.645 451.249C100.641 427.179 -36.4194 391.413 -133.517 353.053C-182.069 333.871 -220.604 314.051 -246.266 294.736C-259.098 285.078 -268.69 275.563 -274.711 266.337C-280.729 257.114 -283.161 248.211 -281.738 239.749Z" stroke="#C1A5D3" stroke-opacity="0.2"/>
<path opacity="0.482759" d="M-276.233 193.173C-274.053 184.861 -268.154 177.624 -258.832 171.468C-249.507 165.31 -236.786 160.256 -221.033 156.313C-189.529 148.428 -146.004 145.015 -93.5492 146.028C11.3522 148.054 151.857 167.783 303.093 204.741C454.33 241.7 587.633 288.882 680.895 335.282C727.53 358.484 764.128 381.477 787.949 402.883C799.861 413.586 808.557 423.874 813.723 433.573C818.887 443.268 820.507 452.343 818.327 460.655C816.146 468.967 810.248 476.205 800.926 482.361C791.601 488.519 778.88 493.573 763.127 497.516C731.622 505.401 688.098 508.814 635.643 507.801C530.742 505.775 390.237 486.046 239.001 449.088C87.7642 412.129 -45.5392 364.947 -138.801 318.547C-185.436 295.345 -222.034 272.352 -245.856 250.946C-257.767 240.243 -266.464 229.955 -271.629 220.256C-276.793 210.56 -278.413 201.485 -276.233 193.173Z" stroke="#C1A5D3" stroke-opacity="0.2"/>
<path opacity="0.517241" d="M-266.56 147.615C-263.639 139.517 -257.11 132.803 -247.27 127.456C-237.426 122.107 -224.299 118.144 -208.252 115.543C-176.159 110.342 -132.496 110.609 -80.3366 116.039C23.9742 126.898 162.154 158.393 309.471 207.959C456.788 257.524 585.32 315.764 674.037 369.85C718.399 396.895 752.782 422.887 774.582 446.22C785.482 457.887 793.217 468.869 797.489 478.968C801.759 489.062 802.554 498.241 799.633 506.339C796.712 514.437 790.183 521.151 780.343 526.498C770.499 531.847 757.372 535.81 741.325 538.411C709.232 543.612 665.569 543.345 613.409 537.915C509.099 527.056 370.919 495.561 223.602 445.995C76.2845 396.43 -52.2475 338.19 -140.965 284.104C-185.327 257.059 -219.709 231.067 -241.509 207.734C-252.409 196.067 -260.144 185.085 -264.416 174.986C-268.686 164.892 -269.481 155.713 -266.56 147.615Z" stroke="#C1A5D3" stroke-opacity="0.2"/>
<path opacity="0.551724" d="M-252.831 103.423C-249.19 95.6007 -242.081 89.4616 -231.797 84.9635C-221.509 80.4638 -208.076 77.6216 -191.857 76.3831C-159.421 73.9062 -115.952 77.8513 -64.4846 87.6564C38.4417 107.265 173.245 150.287 315.522 212.082C457.798 273.877 580.581 342.732 664.077 404.092C705.829 434.775 737.735 463.567 757.346 488.65C767.152 501.192 773.868 512.786 777.212 523.206C780.555 533.623 780.521 542.835 776.881 550.658C773.24 558.48 766.131 564.619 755.847 569.117C745.559 573.617 732.126 576.459 715.907 577.698C683.471 580.175 640.002 576.23 588.534 566.424C485.608 546.816 350.805 503.793 208.528 441.998C66.2516 380.204 -56.5308 311.349 -140.027 249.988C-181.779 219.306 -213.685 190.513 -233.296 165.43C-243.102 152.889 -249.818 141.295 -253.162 130.875C-256.506 120.458 -256.471 111.246 -252.831 103.423Z" stroke="#C1A5D3" stroke-opacity="0.2"/>
<path opacity="0.586207" d="M-235.182 60.9316C-230.85 53.4438 -223.215 47.9265 -212.565 44.3118C-201.912 40.6959 -188.275 38.9962 -172.007 39.129C-139.474 39.3948 -96.5297 46.9883 -46.1466 61.0939C54.6118 89.3029 185.013 143.525 321.166 217.079C457.319 290.633 573.418 369.578 651.059 437.746C689.882 471.833 719.068 503.207 736.342 529.848C744.98 543.17 750.624 555.286 753.016 565.949C755.407 576.609 754.543 585.784 750.211 593.272C745.879 600.76 738.243 606.277 727.594 609.892C716.94 613.508 703.303 615.208 687.036 615.075C654.503 614.809 611.558 607.216 561.175 593.11C460.417 564.901 330.015 510.679 193.862 437.125C57.7093 363.571 -58.3891 284.626 -136.03 216.458C-174.853 182.371 -204.04 150.997 -221.314 124.355C-229.951 111.034 -235.595 98.9182 -237.987 88.2545C-240.379 77.5947 -239.514 68.4195 -235.182 60.9316Z" stroke="#C1A5D3" stroke-opacity="0.2"/>
<path opacity="0.62069" d="M-213.785 20.4667C-208.794 13.3708 -200.69 8.51725 -189.756 5.81351C-178.818 3.10876 -165.08 2.56462 -148.889 4.06778C-116.506 7.07407 -74.4134 18.2581 -25.4977 36.5569C72.3259 73.1515 197.333 138.16 326.326 222.914C455.32 307.668 563.85 396.102 635.044 470.558C670.644 507.79 696.889 541.506 711.694 569.504C719.097 583.503 723.627 596.05 725.049 606.875C726.47 617.697 724.782 626.766 719.791 633.862C714.8 640.958 706.696 645.811 695.762 648.515C684.824 651.22 671.087 651.764 654.895 650.261C622.512 647.254 580.42 636.07 531.504 617.772C433.68 581.177 308.674 516.168 179.68 431.414C50.6868 346.661 -57.8439 258.227 -129.038 183.77C-164.638 146.539 -190.883 112.823 -205.688 84.8246C-213.091 70.8253 -217.621 58.2789 -219.042 47.4533C-220.463 36.6317 -218.775 27.5627 -213.785 20.4667Z" stroke="#C1A5D3" stroke-opacity="0.2"/>
<path opacity="0.655172" d="M-188.838 -17.6653C-183.226 -24.3153 -174.715 -28.4679 -163.579 -30.2402C-152.44 -32.0132 -138.707 -31.3976 -122.714 -28.5356C-90.7286 -22.8117 -49.8082 -8.12238 -2.73223 14.2303C91.4123 58.932 210.073 134.233 330.925 229.541C451.777 324.849 551.915 422.1 616.12 502.278C648.225 542.37 671.329 578.172 683.553 607.314C689.665 621.884 693.046 634.766 693.486 645.671C693.927 656.572 691.428 665.466 685.816 672.116C680.204 678.766 671.693 682.918 660.557 684.691C649.418 686.464 635.685 685.848 619.692 682.986C587.707 677.262 546.786 662.573 499.71 640.22C405.566 595.518 286.905 520.218 166.053 424.909C45.2007 329.601 -54.9364 232.351 -119.142 152.172C-151.247 112.08 -174.351 76.278 -186.574 47.1369C-192.686 32.5661 -196.068 19.6846 -196.508 8.77968C-196.949 -2.12134 -194.45 -11.0153 -188.838 -17.6653Z" stroke="#C1A5D3" stroke-opacity="0.2"/>
<path opacity="0.689655" d="M-160.56 -53.1683C-154.369 -59.3217 -145.516 -62.7416 -134.264 -63.569C-123.008 -64.3966 -109.385 -62.6261 -93.7119 -58.427C-62.367 -50.0292 -22.93 -31.9464 21.948 -5.70997C111.697 46.7586 223.108 131.778 334.9 236.915C446.691 342.053 537.672 447.379 594.401 532.669C622.767 575.318 642.553 612.933 652.103 642.996C656.877 658.027 659.085 671.145 658.54 682.047C657.996 692.944 654.705 701.595 648.515 707.749C642.324 713.902 633.471 717.322 622.219 718.149C610.963 718.977 597.34 717.206 581.667 713.007C550.322 704.61 510.885 686.527 466.007 660.29C376.258 607.822 264.847 522.802 153.055 417.665C41.2641 312.528 -49.7174 207.201 -106.446 121.911C-134.812 79.2624 -154.599 41.6471 -164.148 11.5848C-168.923 -3.44667 -171.13 -16.5649 -170.586 -27.4664C-170.041 -38.3638 -166.75 -47.015 -160.56 -53.1683Z" stroke="#C1A5D3" stroke-opacity="0.2"/>
<path opacity="0.724138" d="M-129.203 -85.78C-122.481 -91.3897 -113.353 -94.0507 -102.07 -93.9269C-90.7835 -93.8029 -77.3725 -90.891 -62.1393 -85.3869C-31.6735 -74.379 5.9799 -53.0404 48.3183 -23.12C132.988 36.7161 236.303 130.807 338.182 244.973C440.062 359.14 521.195 471.741 570.015 561.493C594.427 606.373 610.745 645.515 617.547 676.27C620.948 691.648 621.965 704.903 620.44 715.718C618.915 726.529 614.857 734.871 608.135 740.481C601.413 746.091 592.285 748.752 581.002 748.628C569.716 748.504 556.304 745.592 541.071 740.088C510.605 729.08 472.952 707.741 430.614 677.821C345.944 617.985 242.629 523.894 140.75 409.728C38.8703 295.562 -42.263 182.96 -91.0828 93.2078C-115.495 48.3279 -131.813 9.18569 -138.615 -21.569C-142.017 -36.9466 -143.033 -50.2019 -141.508 -61.017C-139.983 -71.8278 -135.925 -80.1704 -129.203 -85.78Z" stroke="#C1A5D3" stroke-opacity="0.2"/>
<path opacity="0.758621" d="M-95.0398 -115.244C-87.8369 -120.267 -78.5035 -122.149 -67.2761 -121.075C-56.0445 -120.001 -42.9481 -115.969 -28.2705 -109.202C1.08431 -95.668 36.6676 -71.236 76.1443 -37.8593C155.091 28.8888 249.523 131.336 340.715 253.662C431.907 375.988 502.575 495.006 543.115 588.539C563.386 635.308 576.113 675.68 580.116 706.893C582.118 722.499 581.935 735.791 579.442 746.437C576.949 757.079 572.154 765.05 564.951 770.073C557.748 775.096 548.415 776.978 537.188 775.903C525.956 774.829 512.86 770.798 498.182 764.03C468.827 750.496 433.244 726.064 393.767 692.688C314.82 625.94 220.389 523.493 129.196 401.166C38.004 278.84 -32.6639 159.822 -73.2034 66.2897C-93.4747 19.52 -106.201 -20.8513 -110.205 -52.0644C-112.207 -67.6712 -112.024 -80.9626 -109.53 -91.6089C-107.037 -102.251 -102.243 -110.221 -95.0398 -115.244Z" stroke="#C1A5D3" stroke-opacity="0.2"/>
<path opacity="0.793103" d="M-58.3663 -141.337C-43.1033 -150.136 -20.4629 -145.673 7.60048 -129.692C35.621 -113.734 68.8634 -86.395 105.178 -49.816C177.801 23.3361 262.631 133.359 342.442 262.914C422.253 392.469 481.918 516.999 513.868 613.599C529.845 661.902 538.883 703.196 540.057 734.63C541.234 766.112 534.518 787.498 519.255 796.297C503.992 805.096 481.352 800.633 453.288 784.652C425.268 768.694 392.025 741.355 355.711 704.776C283.087 631.624 198.258 521.601 118.447 392.046C38.6356 262.491 -21.0291 137.961 -52.9798 41.3611C-68.9564 -6.94251 -77.9944 -48.2356 -79.1688 -79.6696C-80.345 -111.152 -73.6292 -132.538 -58.3663 -141.337Z" stroke="#C1A5D3" stroke-opacity="0.2"/>
<path opacity="0.827586" d="M-19.4963 -163.87C-3.49786 -171.351 18.653 -164.996 45.1657 -146.709C71.6387 -128.45 102.287 -98.4117 135.163 -58.9089C200.91 20.0905 275.492 136.852 343.315 272.65C411.138 408.448 459.345 537.542 482.464 636.474C494.024 685.944 499.305 727.845 497.641 759.26C495.975 790.723 487.358 811.465 471.36 818.946C455.361 826.427 433.21 820.072 406.697 801.785C380.224 783.526 349.576 753.488 316.7 713.985C250.953 634.985 176.371 518.224 108.548 382.426C40.7255 246.628 -7.48191 117.534 -30.6008 18.6018C-42.1612 -30.8681 -47.4417 -72.7688 -45.7781 -104.184C-44.112 -135.647 -35.4948 -156.39 -19.4963 -163.87Z" stroke="#C1A5D3" stroke-opacity="0.2"/>
<path opacity="0.862069" d="M21.2432 -182.657C37.8554 -188.762 59.3477 -180.563 84.1084 -160.111C108.832 -139.689 136.654 -107.18 165.841 -65.0537C224.211 19.1917 287.979 141.803 343.297 282.81C398.615 423.818 434.998 556.493 449.109 657.005C456.165 707.265 457.648 749.454 453.159 780.612C448.664 811.817 438.211 831.757 421.599 837.862C404.986 843.967 383.494 835.768 358.733 815.316C334.009 794.894 306.188 762.385 277 720.259C218.63 636.014 154.863 513.402 99.5451 372.395C44.227 231.387 7.84368 98.7118 -6.26747 -1.79964C-13.3236 -52.0594 -14.8067 -94.2488 -10.3177 -125.407C-5.82214 -156.611 4.63104 -176.551 21.2432 -182.657Z" stroke="#C1A5D3" stroke-opacity="0.2"/>
<path opacity="0.896552" d="M63.5069 -197.564C80.6061 -202.247 101.276 -192.267 124.097 -169.805C146.883 -147.376 171.666 -112.643 196.943 -68.2146C247.492 20.6356 299.959 148.164 342.352 293.308C384.744 438.451 409.026 573.699 414.023 675.025C416.521 725.692 414.195 767.849 406.915 798.512C399.624 829.221 387.415 848.207 370.315 852.89C353.216 857.573 332.546 847.592 309.726 825.13C286.939 802.701 262.156 767.969 236.879 723.54C186.33 634.69 133.863 507.162 91.4706 362.018C49.0781 216.874 24.7957 81.6269 19.7996 -19.6992C17.3013 -70.3664 19.627 -112.523 26.9071 -143.187C34.1978 -173.896 46.4077 -192.881 63.5069 -197.564Z" stroke="#C1A5D3" stroke-opacity="0.2"/>
<path opacity="0.931035" d="M106.936 -208.471C124.392 -211.696 144.082 -200.01 164.789 -175.709C185.465 -151.443 207.021 -114.752 228.195 -68.3585C270.538 24.4205 311.306 155.895 340.45 304.071C369.594 452.246 381.591 589.036 377.434 690.406C375.355 741.095 369.239 782.899 359.223 812.834C349.193 842.814 335.319 860.7 317.863 863.925C300.407 867.15 280.717 855.464 260.01 831.163C239.334 806.898 217.778 770.206 196.605 723.813C154.261 631.034 113.494 499.559 84.3492 351.384C55.2049 203.208 43.2082 66.4184 47.3651 -34.9513C49.4438 -85.6402 55.5605 -127.444 65.5763 -157.38C75.6066 -187.359 89.4803 -205.246 106.936 -208.471Z" stroke="#C1A5D3" stroke-opacity="0.2"/>
<path opacity="0.965517" d="M151.168 -215.3C168.847 -217.042 187.408 -203.74 205.843 -177.785C224.252 -151.867 242.417 -113.496 259.326 -65.4912C293.142 30.5103 321.899 164.93 337.574 315.01C353.248 465.09 352.868 602.381 339.589 703.023C332.95 753.348 323.088 794.48 310.413 823.461C297.72 852.483 282.288 869.134 264.608 870.876C246.929 872.618 228.368 859.316 209.933 833.361C191.524 807.443 173.36 769.072 156.45 721.067C122.635 625.066 93.8769 490.645 78.2026 340.566C62.5283 190.486 62.9086 53.1948 76.1869 -47.4468C82.8266 -97.7717 92.6878 -138.904 105.363 -167.885C118.057 -196.907 133.489 -213.558 151.168 -215.3Z" stroke="#C1A5D3" stroke-opacity="0.2"/>
<path d="M195.831 -217.996C213.599 -218.241 230.888 -203.424 246.912 -176.013C262.913 -148.64 277.548 -108.881 290.065 -59.6305C315.095 38.8632 331.625 175.206 333.71 326.048C335.795 476.889 323.041 613.637 300.742 712.785C289.592 762.363 276.061 802.511 260.823 830.315C245.563 858.16 228.689 873.449 210.922 873.694C193.154 873.94 175.865 859.123 159.84 831.711C143.84 804.339 129.204 764.58 116.688 715.329C91.6574 616.835 75.1281 480.493 73.043 329.651C70.9579 178.809 83.7122 42.0616 106.011 -57.0863C117.161 -106.664 130.692 -146.813 145.93 -174.617C161.19 -202.461 178.063 -217.75 195.831 -217.996Z" stroke="#C1A5D3" stroke-opacity="0.2"/>
</svg>
