<svg width="107" height="170" viewBox="-15 -410 520 430" fill="none" xmlns="http://www.w3.org/2000/svg">
<path d="M83.6264 277.784L87.8539 288.906C87.8539 288.906 87.276 290.853 86.2423 291.767C85.2086 292.681 76.9987 299.021 68.0697 294.988C66.1249 293.722 63.7223 291.997 63.6119 290.393C63.5014 288.788 64.4419 279.278 64.4419 279.278C64.4419 279.278 62.3021 264.26 61.2764 261.966C60.2507 259.671 58.2091 251.186 55.1285 245.792C53.5279 244.298 53.303 242.464 48.1446 243.023C42.9863 243.584 42.8767 241.521 42.8767 241.521C42.8767 241.521 31.9845 243.556 28.3313 237.932C24.6779 232.307 23.4318 226.574 23.5544 223.365C23.6771 220.157 34.2464 209.754 34.2464 209.754C34.2464 209.754 34.0192 208.951 34.9374 208.381C35.8557 207.81 50.4279 200.741 58.9156 197.783C67.4035 194.825 74.8586 192.437 74.8586 192.437C74.8586 192.437 71.7586 194.721 70.9455 199.074C70.1324 203.427 69.2044 208.008 72.7286 219.363C73.7521 222.459 78.0822 232.441 85.3029 232.115C87.021 232.463 84.2646 234.863 84.2646 234.863C84.2646 234.863 82.1945 237.837 72.9151 236.439C73.9337 241.484 76.8835 253.524 76.8835 253.524L80.2923 265.222L83.6264 277.784Z" fill="#E8E8E8"/>
<path d="M39.1523 218.247C39.1523 218.247 37.8796 223.057 41.193 227.076C45.3208 226.17 50.1374 224.807 51.5168 223.206C50.378 220.338 49.591 214.262 49.591 214.262C49.591 214.262 39.9579 216.874 39.1523 218.247Z" fill="#FFC275"/>
<path d="M73.1328 236.47L79.6281 236.757C79.6281 236.757 79.5499 241.382 80.3476 243.103C81.1457 244.824 83.7735 248.04 83.657 248.727C83.5406 249.415 83.4189 252.279 76.9941 255.128C76.5404 253.293 73.1328 236.47 73.1328 236.47Z" fill="#FFC275"/>
<path d="M74.8603 192.437C74.8603 192.437 67.2821 198.262 71.0266 213.17C74.7712 228.077 81.0013 230.986 81.0013 230.986C81.0013 230.986 84.2722 232.456 85.7629 232.001C87.2541 231.547 104.112 227.005 117.865 226.695C131.618 226.386 144.791 228.825 154.06 234.12C155.659 236.302 157.255 239.858 160.578 239.981C163.788 239.301 167.458 238.279 167.458 238.279C167.458 238.279 165.848 240.453 160.71 232.991C156.373 225.645 152.385 216.811 149.766 209.814C147.148 202.816 141.246 180.111 141.246 180.111L137.746 158.672C137.746 158.672 135.845 140.101 140.778 137.936C135.961 139.3 133.213 138.491 131.94 143.186C130.668 147.881 131.009 149.143 131.009 149.143C131.009 149.143 128.941 150.971 127.789 153.375C126.637 155.779 119.972 163.097 119.972 163.097C119.972 163.097 103.428 179.672 93.9065 183.43C89.7756 185.598 77.7262 192.1 74.8603 192.437Z" fill="#FFC275"/>
<path d="M140.776 137.935C142.952 138.399 144.329 137.486 147.524 142.995C150.719 148.503 157.341 158.72 164.607 186.127C171.873 213.535 172.735 235.426 168.145 237.936C163.554 240.446 157.397 227.939 157.397 227.939C157.397 227.939 150.424 213.121 147.366 202.349C144.657 193.535 141.583 181.868 141.583 181.868C141.583 181.868 137.099 161.468 137.328 151.761C137.556 142.053 138.252 139.075 140.776 137.935Z" fill="#F87E1B"/>
<path d="M140.113 173.231C140.113 173.231 146.874 173.363 152.549 195.381C153.687 198.822 153.533 210.4 151.124 213.257C149.084 208.434 145.44 197.082 145.44 197.082L141.417 181.104L140.113 173.231Z" fill="#E8E8E8"/>
<path d="M46.5504 285.766C46.5504 285.766 48.8479 283.594 49.7719 280.731C51.1537 278.099 52.1913 275.695 52.1913 275.695L55.4201 267.681C55.4201 267.681 57.8417 261.728 58.4159 261.156C58.9903 260.584 60.4827 259.557 60.4827 259.557L61.9622 263.686C61.9622 263.686 64.2554 263.234 66.5551 260.145C68.8547 257.056 70.8012 257.749 70.8012 257.749L77.6803 256.62L77.2265 254.785C77.2265 254.785 80.6665 253.992 82.6213 251.361C84.5761 248.73 82.633 246.662 82.633 246.662C82.633 246.662 86.4151 246.557 87.2153 247.361C88.0155 248.165 88.8146 249.428 87.2062 251.028C85.5977 252.629 80.898 253.075 80.898 253.075L77.2263 254.785L77.4546 255.13C77.4546 255.13 79.8615 255.021 80.8917 255.596C81.9215 256.172 83.5239 256.978 84.2006 261.335C84.1974 262.595 84.1957 263.283 84.1957 263.283C84.1957 263.283 84.5386 263.628 84.9964 263.973C85.4537 264.317 86.8243 266.269 86.3634 267.185C85.9027 268.1 84.1762 271.076 84.1762 271.076C84.1762 271.076 83.4875 271.532 83.6015 271.762C83.7155 271.991 83.8313 271.533 84.5183 271.764C85.2053 271.995 86.5784 272.915 86.5759 273.947C86.5733 274.978 86.686 275.666 84.8494 276.922C83.0126 278.178 79.2257 280.231 77.1657 279.08C77.1657 279.08 76.2523 277.703 77.7467 275.873C76.3703 276.443 73.6154 278.154 73.0444 277.351C72.4734 276.547 73.1667 274.257 73.1667 274.257L75.694 271.857C75.694 271.857 75.0086 270.938 75.1241 270.595C75.2394 270.251 75.2428 268.876 75.9339 267.502C76.6249 266.129 79.3831 263.041 79.3839 262.698C79.3848 262.354 78.5917 258.685 78.5917 258.685L77.4401 260.859C77.4401 260.859 74.914 262.801 73.9963 263.142C73.0787 263.484 71.1285 264.281 71.1285 264.281C71.1285 264.281 66.5389 266.562 66.1856 270.343C66.1828 271.489 66.2894 274.583 64.4457 278.705C64.3242 281.455 63.9721 284.777 63.9721 284.777C63.9721 284.777 62.2359 291.649 65.5549 293.376C64.4066 294.29 59.6992 297.831 56.6023 298.855C55.569 299.654 48.7884 307.316 47.1844 307.082C47.6482 304.906 48.1155 301.355 48.1244 297.802C48.1333 294.249 48.139 291.958 47.8001 290.008C47.4611 288.059 46.5504 285.766 46.5504 285.766Z" fill="#FFD6BA"/>
<path d="M7.56488 293.231C7.56488 293.231 32.3252 290.657 44.4886 284.385C45.4054 284.387 45.7504 283.93 46.8899 286.453C47.915 288.977 48.583 296.81 47.8804 302.806C47.7611 304.715 47.1755 309.718 45.3376 311.432C43.4997 313.147 38.5665 315.312 26.2924 319.98C24.572 320.549 9.54538 326.012 3.58146 327.945C-2.38246 329.879 -0.690661 294.93 7.56488 293.231Z" fill="#6F01C6"/>
<path d="M166.896 238.846C163.209 238.837 158.919 231.826 155.883 225.724C151.413 216.738 146.98 204.395 143.403 190.968C139.825 177.542 137.528 164.629 136.934 154.61C136.504 147.354 136.798 138.49 140.636 137.467C142.509 136.967 144.333 138.098 146.734 141.246C146.738 141.252 146.742 141.257 146.746 141.263L149.39 145.033C149.397 145.042 149.403 145.052 149.409 145.061C153.912 152.466 158.837 164.607 162.921 178.371C163.002 178.643 162.847 178.931 162.573 179.012C162.3 179.093 162.013 178.937 161.932 178.664C157.876 164.991 152.993 152.946 148.536 145.612L145.908 141.863C143.831 139.143 142.287 138.094 140.901 138.463C138.503 139.103 137.405 145.116 137.964 154.549C138.554 164.501 140.839 177.341 144.4 190.702C147.96 204.064 152.366 216.339 156.807 225.265C161.016 233.725 164.961 238.395 167.359 237.756C168.942 237.334 169.996 234.52 170.327 229.833C170.668 225.018 170.25 218.372 169.12 210.614C169.079 210.332 169.274 210.071 169.556 210.03C169.839 209.989 170.1 210.184 170.141 210.466C171.281 218.296 171.702 225.018 171.356 229.906C170.981 235.216 169.726 238.193 167.624 238.753C167.385 238.816 167.142 238.847 166.896 238.846Z" fill="black"/>
<path d="M169.644 211.009C169.394 211.008 169.175 210.826 169.136 210.571C167.937 202.776 165.965 193.41 163.862 185.517C163.47 184.048 162.878 181.928 162.464 180.478C162.386 180.204 162.544 179.918 162.818 179.84C163.093 179.763 163.378 179.921 163.456 180.195C163.871 181.649 164.465 183.777 164.858 185.252C166.97 193.178 168.951 202.585 170.155 210.415C170.199 210.696 170.006 210.96 169.724 211.003C169.697 211.007 169.67 211.009 169.644 211.009Z" fill="black"/>
<path d="M160.619 240.521C156.931 240.511 152.641 233.5 149.606 227.399C145.135 218.413 140.703 206.069 137.125 192.643C133.548 179.216 131.25 166.304 130.657 156.285C130.227 149.029 130.52 140.165 134.358 139.142L140.637 137.469C140.912 137.395 141.194 137.559 141.268 137.835C141.341 138.11 141.177 138.392 140.902 138.466L134.624 140.138C132.226 140.778 131.128 146.791 131.686 156.224C132.276 166.176 134.561 179.016 138.122 192.377C141.682 205.739 146.089 218.013 150.529 226.94C154.739 235.4 158.684 240.07 161.081 239.431L167.359 237.758C167.634 237.685 167.917 237.848 167.99 238.124C168.064 238.399 167.9 238.681 167.625 238.755L161.347 240.427C161.107 240.491 160.864 240.521 160.619 240.521Z" fill="black"/>
<path d="M154.016 234.656C153.933 234.656 153.848 234.635 153.769 234.592C139.719 226.857 121.987 226.706 109.585 227.941C96.1226 229.282 85.8762 232.498 85.7742 232.53C85.7615 232.534 85.7481 232.538 85.7349 232.541C85.3479 232.631 84.9536 232.674 84.5557 232.673C79.264 232.661 73.1802 224.818 70.7957 214.555C69.5466 209.18 69.3461 203.892 70.2304 199.665C71.1382 195.327 73.094 192.589 75.7406 191.949C97.6065 182.787 111.359 171.27 119.045 163.22C127.359 154.513 130.539 147.912 130.57 147.846C130.692 147.589 131 147.479 131.257 147.601C131.514 147.723 131.624 148.031 131.502 148.288C131.372 148.563 128.219 155.106 119.791 163.933C114.851 169.106 109.12 173.98 102.754 178.418C94.8032 183.963 85.8354 188.841 76.1 192.917C76.0732 192.928 76.0457 192.937 76.0177 192.944C73.7627 193.468 72.0659 195.93 71.2403 199.877C70.3858 203.959 70.5849 209.089 71.8006 214.322C73.001 219.488 75.1683 224.156 77.9027 227.465C80.4669 230.569 83.2287 232.053 85.4836 231.54C86.0131 231.375 96.2071 228.237 109.484 226.915C117.459 226.121 124.974 226.126 131.822 226.931C140.402 227.939 147.953 230.213 154.267 233.689C154.517 233.826 154.607 234.14 154.47 234.389C154.376 234.56 154.199 234.656 154.016 234.656Z" fill="black"/>
<path d="M46.5776 244.055C45.9479 244.053 45.26 243.857 44.5474 243.473C42.8099 242.536 40.9119 240.474 39.2035 237.667C37.2833 234.512 35.6105 230.455 34.3655 225.934C30.8908 213.317 34.3366 208.237 34.485 208.027C34.5336 207.958 34.5984 207.902 34.6735 207.864C53.6127 198.286 72.0193 192.51 75.8193 191.932C76.1008 191.889 76.3638 192.082 76.4068 192.364C76.4495 192.646 76.2561 192.909 75.9746 192.952C72.2279 193.522 54.0586 199.232 35.2665 208.72C35.0673 209.059 34.4288 210.281 34.085 212.541C33.7057 215.037 33.6188 219.338 35.3598 225.66C38.1492 235.79 42.3162 241.098 45.0372 242.565C45.828 242.992 46.5412 243.124 47.1006 242.948C68.0528 235.013 73.9644 235.754 77.1413 236.153C77.3986 236.185 77.6418 236.215 77.8638 236.237C80.4092 236.479 81.6782 235.747 83.2842 234.819L83.5875 234.644C84.8644 233.912 85.411 233.045 85.1261 232.204C85.0349 231.934 85.1793 231.642 85.4492 231.55C85.7186 231.459 86.0117 231.603 86.1031 231.873C86.3176 232.507 86.5521 234.133 84.1006 235.539L83.8 235.712C82.175 236.651 80.6399 237.538 77.7654 237.263C77.5282 237.241 77.2778 237.209 77.0128 237.176C73.9243 236.789 68.1751 236.068 47.4531 243.918C47.445 243.921 47.4371 243.923 47.429 243.926C47.1609 244.013 46.8758 244.055 46.5776 244.055Z" fill="black"/>
<path d="M39.3716 242.419C36.3991 242.412 32.447 241.849 29.6676 240.114C27.2764 238.621 25.6746 235.098 24.7517 232.405C23.6675 229.241 23.1028 226.064 23.0368 224.451C22.902 221.165 28.8964 213.425 33.8982 209.394C34.1202 209.215 34.4446 209.25 34.6232 209.472C34.8019 209.694 34.7671 210.018 34.5453 210.197C29.4422 214.31 23.9583 221.748 24.0672 224.409C24.2055 227.782 26.4634 236.897 30.2139 239.239C34.2828 241.78 41.0765 241.584 42.6889 241.056C42.9592 240.967 43.2506 241.115 43.3396 241.386C43.4283 241.656 43.2807 241.948 43.0099 242.036C42.321 242.262 40.9914 242.423 39.3716 242.419Z" fill="black"/>
<path d="M41.528 227.664C41.1179 227.663 40.9154 227.552 40.7761 227.38C37.9574 223.937 38.0939 219.907 38.5602 218.258C38.6446 217.959 38.9187 217.581 40.3397 216.842C41.1859 216.401 42.3331 215.892 43.5702 215.407C44.3395 215.106 48.2397 213.611 49.4601 213.819C49.9706 213.906 50.1312 214.268 50.1138 214.551C50.0112 216.226 51.3889 222.123 51.9616 222.929C52.0187 223.009 52.0517 223.105 52.0564 223.203C52.0717 223.527 52.1038 224.201 47.1942 226.069C45.8122 226.595 44.4103 227.058 43.3478 227.34C42.4794 227.569 41.9124 227.665 41.528 227.664ZM41.5734 226.725C41.5745 226.727 41.5752 226.728 41.5762 226.729C41.5752 226.728 41.5743 226.727 41.5734 226.725ZM41.4998 226.634C41.9551 226.659 43.6764 226.274 46.4053 225.264C48.9364 224.327 50.4622 223.549 50.9337 223.189C50.203 221.627 49.1226 216.788 49.0796 214.828C48.4522 214.865 46.7709 215.281 44.2388 216.254C41.3572 217.361 39.7761 218.266 39.5435 218.573C39.2166 219.781 38.9609 223.455 41.4998 226.634Z" fill="black"/>
<path d="M61.9579 264.431C61.7415 264.43 61.5398 264.292 61.4692 264.075C61.442 263.991 58.7385 255.705 58.2035 253.909C56.5613 249.168 54.8449 246.032 53.1013 244.588C51.6923 243.421 50.4879 243.517 49.425 243.601C48.9579 243.638 48.5167 243.673 48.0959 243.6C47.8153 243.551 47.6275 243.284 47.6761 243.003C47.7251 242.723 47.992 242.535 48.2727 242.584C48.5649 242.634 48.9257 242.606 49.3434 242.573C51.6793 242.387 55.2092 242.106 59.182 253.582C59.1846 253.59 59.1866 253.597 59.1889 253.604C59.7122 255.364 62.4225 263.671 62.4497 263.755C62.5381 264.026 62.3901 264.317 62.1193 264.405C62.0657 264.423 62.0112 264.431 61.9579 264.431Z" fill="black"/>
<path d="M74.3109 297.042C72.3729 297.037 70.4758 296.65 68.7171 295.891C66.6852 295.015 64.8956 293.664 63.8064 292.186C62.622 290.579 63.0801 287.23 63.5237 283.992C63.8063 281.928 64.0731 279.978 63.8689 278.788C63.8207 278.507 64.0091 278.241 64.2897 278.192C64.5705 278.145 64.8372 278.333 64.8853 278.613C65.1166 279.96 64.8393 281.986 64.5455 284.132C64.1496 287.025 63.7007 290.304 64.637 291.574C66.0845 293.539 70.507 296.946 76.8823 295.779C83.2302 294.616 87.4836 290.61 87.2826 288.967C87.0823 287.331 84.4936 281.071 83.1528 277.99C83.0392 277.728 83.1587 277.425 83.42 277.311C83.681 277.198 83.9849 277.317 84.0986 277.578C84.2591 277.948 88.0378 286.649 88.3062 288.841C88.4622 290.115 87.2756 291.814 85.1324 293.385C82.8689 295.045 80.005 296.255 77.0682 296.793C76.147 296.962 75.2242 297.045 74.3109 297.042Z" fill="black"/>
<path d="M77.7753 257.298C77.6019 257.297 77.4329 257.209 77.336 257.051C75.6058 254.218 72.5504 236.738 72.52 236.562C72.4715 236.281 72.6596 236.015 72.9403 235.966C73.2203 235.917 73.4877 236.106 73.5363 236.386C74.3155 240.896 76.848 254.273 78.2162 256.513C78.3645 256.756 78.2878 257.073 78.0449 257.222C77.9604 257.274 77.8672 257.298 77.7753 257.298Z" fill="black"/>
<path d="M81.91 249.237C81.8018 249.237 81.6929 249.203 81.5999 249.132C77.3297 245.889 77.2275 238.822 77.2981 236.733C77.3076 236.448 77.5454 236.231 77.8308 236.235C78.1154 236.245 78.3382 236.483 78.3288 236.768C78.2816 238.165 78.2478 245.291 82.2237 248.311C82.4506 248.483 82.4947 248.807 82.3224 249.034C82.2206 249.167 82.0664 249.238 81.91 249.237Z" fill="black"/>
<path d="M77.0457 255.502C76.837 255.502 76.6408 255.373 76.5637 255.166C76.4645 254.899 76.6003 254.602 76.8671 254.503C81.9376 252.617 82.8654 250.037 83.029 249.291C83.1675 248.659 83.0406 248.258 82.8899 248.106C82.8871 248.104 82.8843 248.101 82.8815 248.098C79.3721 244.403 79.2615 240.702 79.1725 237.729C79.163 237.406 79.1535 237.088 79.14 236.777C79.1277 236.492 79.3485 236.252 79.633 236.24C79.9187 236.229 80.1581 236.448 80.1704 236.733C80.184 237.049 80.1936 237.371 80.2036 237.698C80.2913 240.641 80.3908 243.976 83.6257 247.384C84.0819 247.847 84.2315 248.622 84.0364 249.512C83.8444 250.386 82.7863 253.402 77.2265 255.47C77.1673 255.492 77.106 255.502 77.0457 255.502Z" fill="black"/>
<path d="M151.286 214.357C151.198 214.357 151.109 214.334 151.027 214.286C150.781 214.142 150.699 213.826 150.843 213.58C154.902 206.65 152.553 192.932 148.281 183.542C145.638 177.732 142.446 173.958 139.743 173.446C139.463 173.394 139.279 173.124 139.332 172.844C139.385 172.564 139.655 172.38 139.935 172.433C143.013 173.016 146.397 176.909 149.22 183.115C151.495 188.115 153.137 194.081 153.727 199.484C154.198 203.795 154.234 209.831 151.733 214.102C151.636 214.266 151.463 214.357 151.286 214.357Z" fill="black"/>
<path d="M80.9416 253.602C80.6951 253.602 80.4774 253.424 80.4352 253.172C80.3877 252.892 80.5768 252.625 80.8576 252.578C83.3259 252.16 86.9961 251.127 87.4286 250.135C87.7661 249.361 87.7971 248.755 87.5207 248.331C86.7633 247.171 83.8667 247.164 82.3108 247.16C82.0258 247.159 81.7956 246.928 81.7963 246.643C81.7971 246.358 82.0283 246.128 82.3133 246.129C84.1868 246.133 87.3225 246.141 88.3846 247.767C88.863 248.5 88.8593 249.435 88.3739 250.548C87.564 252.404 82.1136 253.412 81.0294 253.595C81 253.6 80.9707 253.602 80.9416 253.602Z" fill="black"/>
<path d="M60.2888 285.759C60.163 285.759 60.037 285.713 59.9379 285.62C59.73 285.425 59.719 285.099 59.9136 284.891C65.8617 278.534 65.6804 270.362 65.6698 270.017C65.5968 267.648 70.4969 263.941 71.5783 263.622C74.3753 262.798 76.797 261.069 77.3019 260.193C77.9293 259.103 78.1032 258.173 77.7913 257.574C77.6092 257.224 77.3089 257.089 77.2259 257.081C76.168 257.079 75.2882 257.33 74.2694 257.62C73.1517 257.938 71.8845 258.299 70.1027 258.402C70.0922 258.402 70.082 258.403 70.0717 258.403C69.0777 258.4 67.3166 259.737 65.6893 261.73C65.678 261.744 65.6662 261.757 65.6535 261.769C64.5086 262.908 63.2956 263.658 62.1222 264.383C59.3585 266.092 56.7481 267.707 54.9919 274.25C54.9181 274.525 54.6351 274.689 54.3603 274.614C54.0852 274.54 53.9221 274.257 53.9959 273.982C55.8581 267.044 58.7669 265.246 61.5799 263.506C62.7484 262.784 63.8524 262.101 64.908 261.056C65.639 260.164 68.079 257.382 70.0577 257.371C71.7186 257.274 72.9235 256.931 73.9868 256.628C75.035 256.329 76.0254 256.047 77.2334 256.05L77.2338 256.05C77.6538 256.051 78.2794 256.354 78.6609 257.015C79.0398 257.673 79.2669 258.847 78.1957 260.707C77.512 261.894 74.8071 263.746 71.8697 264.612C71.5029 264.72 70.1697 265.622 68.9161 266.791C67.5076 268.104 66.6795 269.298 66.7007 269.985C66.7118 270.347 66.9023 278.932 60.6669 285.596C60.5648 285.705 60.4269 285.759 60.2888 285.759Z" fill="black"/>
<path d="M46.4946 286.327C46.3478 286.326 46.2022 286.264 46.1005 286.142C45.9173 285.924 45.9457 285.599 46.1639 285.416C48.0357 283.844 51.6412 275.85 52.7429 273.116C57.2813 261.196 57.6963 260.906 59.0718 259.945C59.3534 259.749 59.6725 259.526 60.0927 259.131C60.3004 258.936 60.6269 258.946 60.8215 259.154C61.0168 259.361 61.0066 259.687 60.7991 259.883C60.3245 260.328 59.9573 260.585 59.6624 260.791C58.518 261.59 58.1324 261.86 53.7033 273.492C53.6576 273.606 49.3217 284.112 46.827 286.206C46.7303 286.287 46.612 286.327 46.4946 286.327Z" fill="black"/>
<path d="M47.1797 307.599C46.9627 307.598 46.7611 307.46 46.6906 307.242C46.6028 306.971 46.7514 306.68 47.0225 306.592C48.7286 306.04 50.9094 303.727 52.8334 301.686C54.5327 299.883 55.875 298.46 56.9029 298.135C59.3015 297.379 64.0848 294.027 65.2125 292.948C65.4183 292.751 65.7446 292.758 65.9416 292.964C66.1385 293.17 66.1313 293.496 65.9257 293.693C64.7151 294.852 59.7876 298.307 57.2131 299.119C56.4415 299.363 54.9888 300.903 53.5839 302.394C51.5749 304.524 49.2979 306.94 47.34 307.574C47.2868 307.591 47.2327 307.599 47.1797 307.599Z" fill="black"/>
<path d="M76.3905 272.326C76.2547 272.326 76.124 272.31 75.9974 272.278C75.4571 272.144 75.0506 271.721 74.8516 271.088C73.7075 268.031 77.9589 263.529 78.448 263.024C78.83 262.631 78.9556 262.06 78.7764 261.534C78.5045 260.737 78.2629 259.665 78.038 258.256C77.9932 257.975 78.1846 257.711 78.4661 257.666C78.7477 257.621 79.0115 257.812 79.0565 258.094C79.272 259.444 79.4998 260.46 79.7527 261.201C80.0578 262.096 79.8415 263.07 79.1883 263.743C77.4473 265.536 75.1141 268.88 75.8215 270.737C75.8254 270.747 75.8291 270.758 75.8325 270.769C75.9221 271.06 76.0613 271.231 76.2468 271.277C76.44 271.326 77.2028 271.351 78.8951 269.661C79.581 268.976 80.3117 268.426 80.9566 267.941C82.2034 267.002 83.1882 266.261 83.5076 264.961C83.7544 263.957 83.8093 261.984 83.3477 260.023C83.0631 258.814 82.347 256.692 80.7479 256.065C80.7158 256.052 80.685 256.036 80.6561 256.018C79.9055 255.532 77.7553 255.584 77.3946 255.734C77.1504 255.87 76.8414 255.787 76.6992 255.545C76.5548 255.299 76.6368 254.983 76.8823 254.839C77.4591 254.5 80.0617 254.454 81.1701 255.123C83.0736 255.898 83.9507 258.083 84.3517 259.786C84.8551 261.925 84.7936 264.05 84.5093 265.207C84.1018 266.864 82.8755 267.787 81.5769 268.765C80.9289 269.252 80.2586 269.757 79.6237 270.391C78.3223 271.691 77.2592 272.328 76.3905 272.326ZM77.405 255.728C77.4033 255.729 77.4016 255.73 77.3999 255.731C77.4018 255.73 77.4035 255.729 77.405 255.728Z" fill="black"/>
<path d="M73.5085 277.91C73.3057 277.91 73.1271 277.878 72.9709 277.813C72.714 277.706 72.53 277.512 72.4388 277.255C72.436 277.247 72.4335 277.239 72.4311 277.231C71.7706 275.034 72.9809 272.907 75.839 271.244C76.0855 271.101 76.4009 271.185 76.5442 271.431C76.6875 271.677 76.6041 271.993 76.3578 272.136C74.6729 273.116 72.802 274.73 73.4005 276.871C73.4993 276.893 73.8411 276.909 74.8069 276.552C75.6142 276.253 76.6021 275.79 77.5574 275.342C78.517 274.892 79.509 274.427 80.3202 274.129C81.289 273.773 82.6665 272.416 83.9148 270.588C85.1623 268.761 85.8147 267.158 85.7951 266.578C85.7584 265.48 85.3398 264.891 84.995 264.59C84.6779 264.312 84.4095 264.265 84.3409 264.264C84.079 264.344 83.7976 264.205 83.7043 263.944C83.6086 263.676 83.7483 263.381 84.0167 263.285C84.3879 263.153 84.922 263.277 85.4112 263.61C85.9144 263.952 86.7671 264.788 86.8262 266.544C86.89 268.444 83.3399 274.118 80.6761 275.097C79.9066 275.38 78.9349 275.836 77.9952 276.276C75.904 277.257 74.4481 277.912 73.5085 277.91Z" fill="black"/>
<path d="M78.3759 279.866C77.5784 279.864 76.928 279.696 76.637 279.271C76.295 278.771 76.2294 278.097 76.4525 277.37C76.8117 276.201 77.8198 275.141 79.0211 274.669C79.2862 274.565 79.5854 274.696 79.6894 274.96C79.7937 275.226 79.6632 275.525 79.3982 275.629C78.3517 276.04 77.6601 276.952 77.4385 277.673C77.3095 278.093 77.3272 278.453 77.4878 278.688C77.5925 278.799 78.2859 278.951 79.7409 278.691C80.9391 278.477 82.1952 278.059 82.8661 277.651C84.2079 276.834 85.4177 275.878 85.808 275.327C86.3468 274.565 85.987 273.289 85.3051 272.656C84.9537 272.329 84.3972 272.054 83.7418 272.595C83.5223 272.776 83.1972 272.746 83.0159 272.526C82.8344 272.306 82.8655 271.981 83.0852 271.8C84.0041 271.041 85.1235 271.08 86.007 271.9C87.0241 272.844 87.5252 274.686 86.65 275.923C86.1723 276.598 84.8975 277.622 83.4024 278.532C82.4192 279.13 80.0671 279.87 78.3759 279.866Z" fill="black"/>
<path d="M3.57968 328.461C3.36457 328.461 3.16426 328.325 3.09209 328.109C3.00165 327.839 3.14723 327.547 3.41724 327.456C3.78766 327.332 40.486 315.015 44.654 311.387C46.3167 309.939 47.3524 305.664 47.5707 299.35C47.7516 294.113 47.3112 289.383 47.132 288.769C46.8083 287.657 46.1338 285.99 45.5227 285.09C45.4476 284.979 45.3332 284.905 45.201 284.882C45.0688 284.859 44.9359 284.889 44.8269 284.967C42.9958 286.288 35.7039 289.782 7.60834 293.686C7.32719 293.725 7.06579 293.528 7.02648 293.246C6.98736 292.964 7.18433 292.703 7.46643 292.664C19.5955 290.978 29.1323 289.195 35.812 287.362C41.3335 285.847 43.4522 284.687 44.2235 284.131C44.5604 283.888 44.9711 283.794 45.38 283.866C45.789 283.938 46.1425 284.167 46.3757 284.51C47.1282 285.617 47.8464 287.532 48.1224 288.48C48.3851 289.381 48.7762 294.33 48.6015 299.385C48.3666 306.18 47.2663 310.479 45.3312 312.164C41.0096 315.927 5.26434 327.925 3.7447 328.434C3.69017 328.453 3.63454 328.461 3.57968 328.461Z" fill="black"/>
<path d="M25.0256 224.904C24.905 224.903 24.7843 224.861 24.6865 224.775C24.4726 224.587 24.4518 224.261 24.6398 224.048C25.2587 223.344 26.3022 222.605 26.9927 222.117L27.1434 222.01C27.3757 221.845 27.6975 221.899 27.8625 222.132C28.0276 222.364 27.9731 222.686 27.7408 222.851L27.5884 222.959C26.9769 223.392 25.9533 224.116 25.4142 224.729C25.3121 224.845 25.1692 224.904 25.0256 224.904Z" fill="black"/>
<path d="M25.643 228.119C25.4211 228.119 25.2167 227.974 25.1502 227.75C25.0689 227.478 25.2246 227.19 25.4976 227.109C26.3471 226.857 28.2723 225.989 28.2915 225.98C28.5512 225.863 28.8566 225.978 28.9737 226.238C29.0909 226.498 28.9755 226.803 28.716 226.92C28.6343 226.957 26.7076 227.825 25.7914 228.098C25.742 228.113 25.6922 228.119 25.643 228.119Z" fill="black"/>
<path d="M27.0584 232.318C26.7734 232.317 26.5433 232.086 26.544 231.801C26.5447 231.516 26.7762 231.286 27.061 231.287C27.5166 231.288 28.7323 230.925 29.3913 230.696C29.6604 230.603 29.9543 230.746 30.0477 231.015C30.141 231.284 29.9986 231.578 29.7295 231.671C29.5385 231.737 27.8377 232.32 27.0584 232.318Z" fill="black"/>
<path d="M29.3886 236.355C29.0307 236.354 28.6558 236.322 28.3365 236.23C28.0627 236.151 27.9049 235.865 27.9839 235.591C28.0628 235.317 28.3491 235.16 28.6223 235.238C29.1169 235.381 29.9948 235.32 30.4324 235.233C30.7119 235.178 30.9833 235.36 31.0382 235.639C31.0935 235.918 30.9117 236.19 30.6322 236.245C30.4114 236.289 29.9186 236.356 29.3886 236.355Z" fill="black"/>
<path d="M212.933 37.6586C212.933 37.6586 213.624 47.0505 207.958 57.8495C205.283 64.7292 197.47 81.4974 197.47 81.4974C197.47 81.4974 197.933 75.8393 195.81 72.517C195.443 76.1837 195.163 78.4411 192.904 84.4311C190.644 90.4214 183.085 106.678 183.438 108.587C183.791 110.495 188.413 112.891 189.067 109.52C188.843 106.427 187.871 105.562 192.988 95.5606C195.355 91.408 201.045 81.9975 201.045 81.9975C201.045 81.9975 203.761 78.4772 203.679 74.8934C205.26 70.8862 217.003 47.1221 217.003 47.1221C217.003 47.1221 228.156 27.0662 231.088 24.0863C234.02 21.1065 214.654 25.6152 212.933 37.6586Z" fill="#E5BFFF"/>
<path d="M183.938 109.004C183.917 109.005 183.896 109.005 183.874 109.004C183.591 108.984 183.378 108.739 183.397 108.455C183.555 106.175 185.685 101.033 188.151 95.0801C191.5 86.9937 195.669 76.9301 195.282 72.5683C195.26 72.3174 195.423 72.0877 195.667 72.0253C195.911 71.963 196.164 72.0868 196.265 72.3173C197.426 74.9759 197.86 77.739 198.018 79.6264C198.542 78.443 199.209 76.9814 199.968 75.3193C202.58 69.5961 206.158 61.7578 208.878 54.4663C212.066 45.9231 213.242 40.3153 212.376 37.7985C212.284 37.5302 212.426 37.2378 212.694 37.1453C212.963 37.0531 213.255 37.1957 213.347 37.4639C214.307 40.2504 213.16 45.9293 209.841 54.8253C207.108 62.151 203.521 70.0086 200.903 75.7462C199.588 78.6264 198.549 80.9015 198.064 82.144C197.973 82.3774 197.727 82.511 197.482 82.4601C197.236 82.4092 197.064 82.1887 197.073 81.9384C197.074 81.8989 197.175 78.6748 196.171 75.1208C195.407 80.2479 192.087 88.2632 189.1 95.4734C186.77 101.099 184.569 106.413 184.422 108.527C184.404 108.788 184.194 108.99 183.938 109.004Z" fill="black"/>
<path d="M189.059 110.091C188.826 110.104 188.607 109.956 188.539 109.723C186.942 104.275 192.547 95.0827 197.492 86.9729C200.303 82.3633 202.958 78.0097 203.16 75.8999C203.477 72.588 209.293 60.608 214.177 51.3555C220.624 39.1412 227.113 28.3118 230.708 23.7667C230.884 23.544 231.207 23.5065 231.429 23.6825C231.652 23.8585 231.69 24.1814 231.514 24.4039C227.954 28.9044 221.506 39.6718 215.086 51.8352C208.81 63.7246 204.428 73.435 204.183 75.9979C203.958 78.3427 201.368 82.59 198.37 87.5078C193.774 95.0432 188.055 104.421 189.525 109.434C189.604 109.706 189.448 109.991 189.176 110.071C189.137 110.082 189.098 110.089 189.059 110.091Z" fill="black"/>
<path d="M185.58 146.749C193.788 134.835 206.304 117.327 212.136 113.719C211.121 117.361 209.801 123.187 214.466 126.541C215.677 127.193 217.791 124.229 217.791 124.229L233.623 109.338L251.035 92.1966L268.236 74.1662L283.745 56.4191L286.231 52.5463C286.231 52.5463 293.476 44.4971 299.818 40.0638C306.159 35.6304 324.965 19.9187 334.742 13.1472C344.519 6.37611 316.314 12.1117 303.637 20.5076C290.959 28.9038 287.761 32.2414 287.761 32.2414C287.761 32.2414 272.829 45.9807 264.884 54.5475C256.94 63.1139 238.814 84.1783 238.814 84.1783C238.814 84.1783 224.294 102.63 222.581 97.8735C220.869 93.1169 225.428 89.5749 225.428 89.5749C225.428 89.5749 223.262 87.8585 220.206 90.8104C217.151 93.7622 203.028 111.416 203.028 111.416C203.028 111.416 190.662 128.068 188.322 133.548C185.982 139.029 184.525 144.77 185.58 146.749Z" fill="#E5BFFF"/>
<path d="M188.385 134.082C188.315 134.086 188.243 134.075 188.173 134.048C187.908 133.946 187.776 133.648 187.879 133.384C189.321 129.649 194.269 122.099 201.452 112.669C208.199 103.813 215.457 95.2532 220.393 90.3308C220.594 90.1304 220.919 90.131 221.119 90.3318C221.32 90.5326 221.319 90.8578 221.118 91.0583C210.978 101.17 191.897 125.833 188.837 133.754C188.762 133.948 188.581 134.071 188.385 134.082Z" fill="black"/>
<path d="M224.1 99.0755C223.16 99.1269 222.626 98.7126 222.327 98.2782C221.037 96.403 222.749 91.667 225.004 89.2489C225.197 89.0415 225.522 89.0301 225.73 89.2234C225.937 89.417 225.949 89.7421 225.755 89.9496C223.713 92.1399 222.289 96.4109 223.174 97.6957C223.486 98.15 224.16 98.1713 225.175 97.7601C226.599 97.1828 232.252 90.6289 239.409 82.331C255.534 63.6345 282.524 32.3421 303.338 20.0763C303.582 19.9322 303.897 20.0135 304.041 20.2581C304.185 20.5025 304.104 20.8174 303.859 20.9614C283.191 33.1414 256.271 64.3535 240.187 83.0022C231.663 92.8849 227.141 98.0718 225.56 98.7126C224.988 98.9442 224.506 99.0533 224.1 99.0755Z" fill="black"/>
<path d="M185.567 147.235C185.468 147.24 185.365 147.217 185.273 147.161C185.031 147.014 184.953 146.698 185.1 146.455C186.957 143.391 192.615 135.355 198.519 127.715C201.658 123.653 204.466 120.231 206.641 117.819C210.24 113.825 211.483 113.262 212.105 113.186C212.301 113.161 212.493 113.252 212.6 113.419C212.707 113.585 212.708 113.798 212.604 113.966C210.886 116.749 211.579 122.768 213.331 125.061C214.135 126.114 214.798 125.919 215.016 125.854C215.294 125.765 216.973 124.734 226.875 115.228C233.39 108.973 241.851 100.584 250.09 92.212C269.924 72.0554 283.411 57.212 284.449 54.3964C285.521 51.4882 294.272 43.5864 310.461 30.9102C322.469 21.507 334.325 12.8221 334.443 12.7357C334.672 12.568 334.993 12.6179 335.161 12.8468C335.328 13.0758 335.279 13.3973 335.05 13.5648C334.931 13.6513 323.088 22.3277 311.093 31.7208C291.12 47.3603 286.104 52.8776 285.413 54.7519C283.755 59.2503 258.478 85.1537 250.77 92.9856C242.514 101.375 234.042 109.774 227.525 116.028C216.685 126.433 215.648 126.739 215.307 126.84C214.302 127.137 213.31 126.726 212.515 125.685C210.806 123.449 210.015 118.255 211.09 114.861C209.567 116.053 206.281 119.351 199.332 128.343C193.45 135.955 187.821 143.948 185.979 146.988C185.887 147.139 185.731 147.226 185.567 147.235Z" fill="black"/>
<path d="M190.997 157.623C190.997 157.623 197.698 150.923 206.152 145.617C214.605 140.312 227.939 132.255 227.939 132.255C227.939 132.255 239.993 124.89 242.014 122.42C244.035 119.95 245.624 116.137 248.404 110.023C251.184 103.91 250.769 100.703 264.7 92.6143C278.631 84.5253 280.839 83.2869 280.839 83.2869C280.839 83.2869 289.261 79.5975 289.845 79.3171C290.428 79.0369 309.478 68.1842 310.062 67.9041C310.645 67.6237 335.675 52.2217 335.9 51.9611C336.126 51.7004 351.945 40.9001 351.945 40.9001C351.945 40.9001 329.777 58.2571 329.432 58.5245C329.087 58.7916 304.139 75.6798 303.098 76.3578C302.057 77.0356 287.344 86.1609 287.344 86.1609C287.344 86.1609 281.017 88.742 278.172 95.8527C276.236 97.6972 272.066 100.285 268.909 101.699C265.752 103.114 260.169 106.151 260.061 110.753C259.954 115.354 263.444 122.243 190.997 157.623Z" fill="#E5BFFF"/>
<path d="M191.049 158.098C190.932 158.104 190.813 158.071 190.713 157.996C190.486 157.826 190.44 157.504 190.61 157.277C194.803 151.679 210.49 142.184 223.095 134.554C230.342 130.168 236.6 126.379 239.585 124.039C243.939 120.626 245.7 115.834 247.403 111.201C248.953 106.981 250.418 102.996 253.67 100.005C260.441 93.7791 280.509 82.1399 287.998 79.5323C295.105 77.0581 345.227 46.4817 353.014 39.2332C353.07 39.1797 353.127 39.1264 353.182 39.0735C353.387 38.8786 353.712 38.886 353.907 39.0905C354.103 39.2948 354.097 39.6192 353.893 39.8155C353.837 39.8693 353.779 39.9244 353.718 39.9808C348.551 44.8526 337.826 53.2072 324.945 62.3911C312.529 71.244 300.672 79.054 294 82.773C282.232 89.3337 281.276 91.1014 279.542 94.3105C279.246 94.8571 278.941 95.4225 278.556 96.0662C277.411 97.9797 274.189 99.6738 270.779 101.467C265.89 104.038 260.348 106.952 260.556 110.762C260.572 111.045 260.355 111.288 260.072 111.303C259.788 111.318 259.546 111.101 259.531 110.818C259.286 106.349 265.138 103.272 270.3 100.558C273.58 98.8334 276.677 97.2047 277.674 95.5384C278.048 94.9139 278.348 94.3587 278.638 93.8218C280.404 90.5541 281.471 88.5819 293.5 81.8755C304.08 75.9774 326.354 60.6382 341.448 48.8881C335.345 52.9534 327.98 57.6207 321.211 61.7963C308.194 69.8253 292.354 79.1039 288.336 80.5027C280.924 83.0831 261.066 94.6008 254.366 100.762C251.296 103.583 249.874 107.456 248.367 111.555C246.615 116.323 244.803 121.254 240.219 124.848C237.186 127.226 230.902 131.029 223.627 135.433C211.099 143.017 195.506 152.455 191.432 157.893C191.337 158.02 191.195 158.09 191.049 158.098Z" fill="black"/>
<path d="M189.802 171.078C189.498 170.464 193.303 168.179 193.303 168.179L203.619 162.442C203.619 162.442 207.263 159.106 208.231 158.275C209.198 157.445 214.579 153.773 223.035 150.296C231.492 146.819 265.262 133.801 265.262 133.801L278.834 127.23L311.156 106.39C311.156 106.39 325.503 94.8149 328.333 97.0756C330.451 97.9534 333.5 100.377 339.839 96.0222C346.947 92.1627 349.71 91.8922 349.71 91.8922L383.1 79.4444L435.283 59.2706L469.242 45.0751C469.242 45.0751 478.078 41.028 480.745 38.6701C483.411 36.3124 497.146 46.995 492.078 49.3489C487.009 51.7028 481.542 53.1394 481.542 53.1394L456.817 62.421L401.436 84.3242L349.908 104.985C349.908 104.985 337.673 108.52 336.602 112.763C335.533 117.005 334.754 116.659 321.277 123.533C317.158 125.352 277.703 141.429 277.703 141.429C277.703 141.429 251.099 151.483 251.166 152.23C251.233 152.978 251.774 153.458 256.085 154.029C260.396 154.6 263.69 154.958 262.941 155.951C262.191 156.944 250.82 159.492 250.82 159.492C250.82 159.492 221.973 167.025 220.587 167.235C219.201 167.444 207.373 168.18 207.373 168.18C207.373 168.18 191.703 173.577 189.802 171.078Z" fill="#E5BFFF"/>
<path d="M191.679 172.357C190.834 172.403 190.211 172.313 189.812 172.054C189.532 171.872 189.358 171.608 189.31 171.292C189.087 169.851 191.529 168.508 196.228 166.063C200.343 163.922 205.463 161.257 207.284 158.519C208.547 156.62 213.652 153.792 223.349 149.62C231.531 146.1 241.485 142.273 250.268 138.897C255.794 136.772 261.014 134.766 264.704 133.245C264.967 133.138 265.266 133.263 265.375 133.525C265.483 133.787 265.358 134.087 265.095 134.195C261.394 135.721 256.409 137.637 250.637 139.856C241.863 143.229 231.918 147.052 223.755 150.564C214.509 154.542 209.256 157.41 208.139 159.088C206.172 162.047 201.141 164.665 196.703 166.975C194.879 167.923 193.157 168.82 191.959 169.595C190.305 170.665 190.319 171.091 190.325 171.136C190.328 171.152 190.33 171.165 190.372 171.193C191.333 171.817 196.45 170.434 200.187 169.423C203.566 168.509 207.061 167.564 209.237 167.421C210.571 167.333 211.775 167.321 212.939 167.31C216.488 167.275 219.84 167.242 226.358 165.068C229.527 164.01 235.903 162.51 242.653 160.923C247.474 159.789 252.458 158.617 256.312 157.59C260.473 156.481 262.109 155.854 262.748 155.52C262.708 155.512 262.665 155.505 262.618 155.497C260.727 155.187 258.924 154.963 257.333 154.764C253.072 154.233 251.168 153.957 250.668 152.986C250.552 152.761 250.466 152.396 250.713 151.94C250.861 151.667 251.013 151.386 257.637 148.702C261.663 147.07 267.168 144.918 273.542 142.426C285.384 137.796 300.121 132.034 312.105 126.961C325.882 121.129 333.438 117.296 334.563 115.569C335.714 113.803 336.148 112.681 336.465 111.862C337.375 109.505 337.756 109.274 346.643 105.68C348.018 105.124 485.061 49.9228 492.294 48.8916C492.575 48.8512 492.836 49.0466 492.876 49.3276C492.916 49.6085 492.721 49.8686 492.44 49.9087C485.957 50.8329 365.049 99.3443 347.028 106.633C338.208 110.199 338.164 110.314 337.423 112.233C337.09 113.094 336.634 114.274 335.424 116.13C332.836 120.101 304.853 131.287 273.916 143.383C262.948 147.671 252.579 151.725 251.593 152.48C251.584 152.502 251.582 152.516 251.582 152.521C251.585 152.526 251.713 152.807 253.172 153.116C254.249 153.344 255.737 153.53 257.46 153.745C259.06 153.944 260.874 154.171 262.784 154.483C263.174 154.547 264.085 154.696 264.109 155.391C264.128 155.956 263.569 156.366 261.971 156.96C260.87 157.368 259.295 157.848 257.155 158.427C253.211 159.495 247.963 160.729 242.888 161.923C236.162 163.505 229.808 165 226.683 166.042C220.012 168.268 216.581 168.302 212.949 168.337C211.799 168.348 210.61 168.36 209.304 168.446C207.23 168.583 203.786 169.515 200.455 170.415C196.486 171.488 193.544 172.255 191.679 172.357Z" fill="black"/>
<path d="M278.177 127.666C277.99 127.676 277.804 127.583 277.704 127.41C277.562 127.164 277.646 126.85 277.891 126.708C298.236 114.94 309.456 107.011 316.159 102.274C320.052 99.5236 322.402 97.8631 324.291 97.0046C326.231 96.1229 327.674 96.1029 329.437 96.9327C333.507 98.8489 335.181 97.9279 338.517 96.0935C339.858 95.356 341.378 94.5201 343.391 93.6686C343.398 93.6655 343.405 93.6627 343.413 93.6599C392.916 75.3369 429.33 61.3647 451.643 52.1321C469.14 44.8916 478.538 40.3609 480.373 38.2809C480.561 38.0682 480.886 38.0478 481.099 38.2356C481.311 38.4234 481.332 38.7481 481.144 38.9607C478.435 42.0304 461.239 51.1435 343.78 94.6196C341.822 95.4488 340.329 96.2697 339.012 96.9941C335.602 98.8698 333.543 100.002 328.999 97.8624C326.109 96.5016 324.312 97.7711 316.752 103.114C310.034 107.861 298.791 115.806 278.406 127.598C278.334 127.64 278.255 127.662 278.177 127.666Z" fill="black"/>
<path d="M466.898 125.521L422.874 133.756L388.108 141.944C388.108 141.944 338.748 155.044 331.528 156.81C330.323 157.79 315.627 162.938 311.517 156.76C309.619 155.491 313.697 148.523 312.292 147.914C310.887 147.305 285.497 163.897 283.046 165.06C280.594 166.223 280.503 168.743 259.061 169.686C237.619 170.628 206.688 173.69 201.265 176.959C205.197 177.773 228.513 183.931 228.513 183.931C228.513 183.931 295.631 202.901 303.123 201.92C312.213 200.73 306.144 194.438 315.099 193.035C333.158 195.02 362.252 204.407 362.252 204.407C362.252 204.407 414.346 220.425 418.162 223.304C435.796 232.173 468.856 157.99 471.29 150.703C475.627 137.721 475.488 127.615 466.898 125.521Z" fill="#E5BFFF"/>
<path d="M296.846 202.093C296.795 202.096 296.743 202.091 296.691 202.078C283.51 198.73 268.28 194.786 253.552 190.971C227.949 184.34 203.766 178.077 201.028 177.75C200.825 177.725 200.656 177.583 200.597 177.388C200.538 177.192 200.601 176.98 200.757 176.848C202.8 175.113 210.788 173.541 225.177 172.042C237.134 170.797 251.076 169.853 261.257 169.164C265.816 168.856 269.754 168.59 272.285 168.377C279.456 167.775 291.536 159.953 300.357 154.241C308.832 148.753 311.897 146.916 313.007 147.852C313.661 148.402 313.205 149.472 313.033 149.874C311.505 153.456 311.426 156.032 312.797 157.53C314.388 159.268 318.93 160.478 331.533 156.374C335.182 155.185 362.632 147.74 392.28 140.441C418.756 133.924 453.209 125.984 466.985 125.171L466.987 125.171C467.269 125.156 467.511 125.371 467.528 125.654C467.545 125.937 467.329 126.18 467.045 126.197C453.347 127.005 418.96 134.932 392.526 141.439C362.9 148.732 335.49 156.165 331.851 157.351C326.234 159.18 321.684 160.131 318.325 160.177C315.378 160.218 313.263 159.56 312.039 158.224C310.371 156.401 310.388 153.456 312.088 149.471C312.303 148.967 312.324 148.729 312.32 148.64C312.124 148.613 311.357 148.69 308.677 150.229C306.608 151.417 303.97 153.125 300.916 155.103C292.004 160.874 279.798 168.777 272.371 169.401C269.832 169.614 265.89 169.881 261.326 170.19C251.154 170.878 237.222 171.821 225.284 173.064C213.225 174.32 205.594 175.636 202.535 176.985C208.498 178.241 229.668 183.724 253.81 189.976C268.537 193.791 283.765 197.735 296.944 201.082C297.219 201.152 297.385 201.432 297.315 201.707C297.259 201.93 297.064 202.081 296.846 202.093Z" fill="black"/>
<path d="M418.291 223.939C418.197 223.945 418.101 223.924 418.013 223.875C414.323 221.817 393.514 214.604 372.572 208.123C346.008 199.902 325.358 194.653 315.916 193.723C313.232 193.459 310.716 195.018 309.796 197.514C309.264 198.96 308.447 200.57 306.428 201.555C304.296 202.595 301.136 202.772 296.767 202.097C296.486 202.054 296.294 201.791 296.337 201.511C296.381 201.231 296.643 201.039 296.923 201.082C306.059 202.493 307.86 199.797 308.832 197.159C309.914 194.224 312.868 192.389 316.017 192.701C329.52 194.031 360.279 203.242 372.876 207.141C394.236 213.751 414.708 220.855 418.514 222.978C418.761 223.116 418.85 223.429 418.712 223.677C418.623 223.836 418.461 223.93 418.291 223.939Z" fill="black"/>
<path d="M217.248 201.662L223.706 203.758C223.706 203.758 231.972 206.696 234.442 208.468C236.912 210.24 243.889 214.518 248.258 222.844C249.244 219.785 250.101 217.407 246.664 213.1C243.227 208.793 240.548 206.216 241.488 205.097C242.899 203.418 249.004 205.962 249.004 205.962C249.004 205.962 260.569 209.436 274.366 215.018C288.164 220.601 314.819 232.886 314.819 232.886C314.819 232.886 390.695 268.844 405.419 278.674C420.143 288.504 415.396 262.583 388.496 250.977C361.597 239.372 262.626 204.575 237.036 195.513C211.445 186.451 206.439 200.034 217.248 201.662Z" fill="#E5BFFF"/>
<path d="M405.464 279.202C405.354 279.208 405.242 279.179 405.144 279.112C399.033 274.889 359.949 254.87 320.579 236.343C299.135 226.252 280.769 218.1 267.465 212.768C259.833 209.709 253.777 207.539 249.463 206.317C243.182 204.539 242.1 205.203 241.918 205.449C241.915 205.453 241.912 205.458 241.908 205.462C241.851 205.893 243.115 207.501 244.04 208.678C246.96 212.391 251.371 218.003 248.742 223.032C248.652 223.205 248.472 223.311 248.277 223.308C248.083 223.304 247.907 223.191 247.823 223.016C247.801 222.969 245.505 218.25 240.048 213.271C235.018 208.682 226.19 202.923 212.702 201.552C212.42 201.523 212.214 201.271 212.243 200.989C212.272 200.706 212.524 200.501 212.806 200.53C218.892 201.149 224.568 202.689 229.675 205.109C233.765 207.047 237.5 209.549 240.777 212.546C244.938 216.351 247.269 219.937 248.229 221.604C249.571 217.376 245.793 212.571 243.232 209.313C241.457 207.055 240.381 205.687 241.103 204.822C242.118 203.489 246.111 203.102 267.846 211.814C281.169 217.154 299.555 225.314 321.016 235.414C360.429 253.96 399.585 274.022 405.728 278.267C405.962 278.428 406.02 278.748 405.859 278.982C405.765 279.118 405.618 279.194 405.464 279.202Z" fill="black"/>
<path d="M215.564 222.421C215.144 222.425 215.059 222.86 215.451 222.995C219.584 224.421 235.042 230.292 252.931 243.823C271.801 258.095 293.89 274.379 305.418 288.559C305.684 288.887 306.323 288.657 306.12 288.306C302.952 282.829 299.81 277.751 300.473 276.104C301.331 273.974 319.056 286.306 319.056 286.306L327.338 292.008C327.995 292.46 328.899 291.848 328.366 291.312C322.192 285.094 310.76 273.792 303.646 268.03C293.519 259.827 270.034 241.972 270.034 241.972C270.034 241.972 257.975 232.837 258.261 235.341C258.357 236.175 263.537 241.098 263.755 241.306C263.76 241.311 263.764 241.314 263.77 241.318C264.034 241.538 271.202 247.535 269.505 248.386C269.463 248.408 269.412 248.42 269.36 248.424C267.371 248.584 262.29 244.672 262.29 244.672C262.29 244.672 244.423 230.813 230.136 225.98C221.161 222.945 217.24 222.404 215.564 222.421Z" fill="#E5BFFF"/>
<path d="M308.797 293.691C308.61 293.701 308.424 293.608 308.323 293.434C304.49 286.769 287.547 270.899 268.037 255.698C257.703 247.646 247.548 240.484 238.671 234.986C228.475 228.671 220.243 224.688 214.204 223.148C213.96 223.086 213.797 222.857 213.819 222.606C213.84 222.356 214.039 222.158 214.29 222.138C220.797 221.623 228.609 223.741 238.175 228.619C246.188 232.705 253.966 238.024 259.646 241.908C262.331 243.744 264.649 245.33 266.415 246.399C268.85 247.873 269.453 247.859 269.58 247.82C269.851 247.737 270.138 247.889 270.222 248.16C270.306 248.431 270.154 248.718 269.882 248.802C268.575 249.205 265.622 247.24 259.066 242.757C253.41 238.888 245.663 233.59 237.708 229.534C229.897 225.551 223.302 223.439 217.672 223.129C245.119 232.664 301.548 279.594 309.214 292.922C309.356 293.168 309.271 293.482 309.025 293.623C308.953 293.665 308.875 293.686 308.797 293.691Z" fill="black"/>
</svg>
