<svg width="107" height="130" viewBox="0 -90 707 430" fill="none" xmlns="http://www.w3.org/2000/svg">
<path d="M83.6264 277.783L87.8539 288.906C87.8539 288.906 87.276 290.852 86.2423 291.767C85.2086 292.681 76.9987 299.021 68.0697 294.987C66.1249 293.722 63.7223 291.997 63.6119 290.392C63.5014 288.788 64.4419 279.278 64.4419 279.278C64.4419 279.278 62.3021 264.26 61.2764 261.965C60.2507 259.671 58.2091 251.185 55.1285 245.791C53.5279 244.297 53.303 242.463 48.1446 243.023C42.9863 243.583 42.8767 241.52 42.8767 241.52C42.8767 241.52 31.9845 243.556 28.3313 237.931C24.6779 232.306 23.4318 226.573 23.5544 223.365C23.6771 220.156 34.2464 209.754 34.2464 209.754C34.2464 209.754 34.0192 208.951 34.9374 208.38C35.8557 207.81 50.4279 200.741 58.9156 197.783C67.4035 194.824 74.8586 192.436 74.8586 192.436C74.8586 192.436 71.7586 194.72 70.9455 199.073C70.1324 203.426 69.2044 208.008 72.7286 219.362C73.7521 222.459 78.0822 232.44 85.3029 232.114C87.021 232.462 84.2646 234.862 84.2646 234.862C84.2646 234.862 82.1945 237.837 72.9151 236.438C73.9337 241.483 76.8835 253.524 76.8835 253.524L80.2923 265.222L83.6264 277.783Z" fill="#E8E8E8"/>
<path d="M39.1523 218.246C39.1523 218.246 37.8796 223.056 41.193 227.076C45.3208 226.169 50.1374 224.806 51.5168 223.205C50.378 220.337 49.591 214.262 49.591 214.262C49.591 214.262 39.9579 216.873 39.1523 218.246Z" fill="#FFC275"/>
<path d="M73.1328 236.469L79.6281 236.757C79.6281 236.757 79.5499 241.382 80.3476 243.103C81.1457 244.824 83.7735 248.039 83.657 248.727C83.5406 249.414 83.4189 252.279 76.9941 255.128C76.5404 253.293 73.1328 236.469 73.1328 236.469Z" fill="#FFC275"/>
<path d="M74.8603 192.436C74.8603 192.436 67.2821 198.261 71.0266 213.169C74.7712 228.076 81.0013 230.985 81.0013 230.985C81.0013 230.985 84.2722 232.455 85.7629 232C87.2541 231.546 104.112 227.004 117.865 226.694C131.618 226.385 144.791 228.824 154.06 234.119C155.659 236.301 157.255 239.857 160.578 239.98C163.788 239.3 167.458 238.278 167.458 238.278C167.458 238.278 165.848 240.452 160.71 232.99C156.373 225.644 152.385 216.81 149.766 209.813C147.148 202.815 141.246 180.11 141.246 180.11L137.746 158.671C137.746 158.671 135.845 140.1 140.778 137.935C135.961 139.299 133.213 138.49 131.94 143.185C130.668 147.88 131.009 149.142 131.009 149.142C131.009 149.142 128.941 150.97 127.789 153.374C126.637 155.778 119.972 163.096 119.972 163.096C119.972 163.096 103.428 179.671 93.9065 183.43C89.7756 185.597 77.7262 192.099 74.8603 192.436Z" fill="#FFC275"/>
<path d="M140.776 137.935C142.952 138.399 144.329 137.486 147.524 142.995C150.719 148.503 157.341 158.72 164.607 186.127C171.873 213.535 172.735 235.426 168.145 237.936C163.554 240.446 157.397 227.939 157.397 227.939C157.397 227.939 150.424 213.121 147.366 202.349C144.657 193.535 141.583 181.868 141.583 181.868C141.583 181.868 137.099 161.468 137.328 151.761C137.556 142.053 138.252 139.075 140.776 137.935Z" fill="#F87E1B"/>
<path d="M140.113 173.231C140.113 173.231 146.874 173.363 152.549 195.381C153.687 198.822 153.533 210.4 151.124 213.257C149.084 208.434 145.44 197.082 145.44 197.082L141.417 181.104L140.113 173.231Z" fill="#E8E8E8"/>
<path d="M46.5504 285.765C46.5504 285.765 48.8479 283.594 49.7719 280.731C51.1537 278.099 52.1913 275.695 52.1913 275.695L55.4201 267.681C55.4201 267.681 57.8417 261.727 58.4159 261.156C58.9903 260.584 60.4827 259.556 60.4827 259.556L61.9622 263.686C61.9622 263.686 64.2554 263.233 66.5551 260.145C68.8547 257.056 70.8012 257.748 70.8012 257.748L77.6803 256.62L77.2265 254.785C77.2265 254.785 80.6665 253.991 82.6213 251.36C84.5761 248.729 82.633 246.662 82.633 246.662C82.633 246.662 86.4151 246.557 87.2153 247.361C88.0155 248.165 88.8146 249.427 87.2062 251.028C85.5977 252.628 80.898 253.075 80.898 253.075L77.2263 254.785L77.4546 255.129C77.4546 255.129 79.8615 255.02 80.8917 255.596C81.9215 256.171 83.5239 256.978 84.2006 261.334C84.1974 262.595 84.1957 263.282 84.1957 263.282C84.1957 263.282 84.5386 263.627 84.9964 263.972C85.4537 264.317 86.8243 266.269 86.3634 267.184C85.9027 268.1 84.1762 271.075 84.1762 271.075C84.1762 271.075 83.4875 271.532 83.6015 271.761C83.7155 271.991 83.8313 271.533 84.5183 271.764C85.2053 271.995 86.5784 272.915 86.5759 273.946C86.5733 274.978 86.686 275.665 84.8494 276.921C83.0126 278.177 79.2257 280.231 77.1657 279.08C77.1657 279.08 76.2523 277.702 77.7467 275.872C76.3703 276.442 73.6154 278.154 73.0444 277.351C72.4734 276.547 73.1667 274.256 73.1667 274.256L75.694 271.856C75.694 271.856 75.0086 270.938 75.1241 270.594C75.2394 270.251 75.2428 268.875 75.9339 267.502C76.6249 266.128 79.3831 263.041 79.3839 262.697C79.3848 262.353 78.5917 258.684 78.5917 258.684L77.4401 260.859C77.4401 260.859 74.914 262.8 73.9963 263.142C73.0787 263.483 71.1285 264.281 71.1285 264.281C71.1285 264.281 66.5389 266.562 66.1856 270.342C66.1828 271.489 66.2894 274.583 64.4457 278.704C64.3242 281.454 63.9721 284.777 63.9721 284.777C63.9721 284.777 62.2359 291.648 65.5549 293.376C64.4066 294.29 59.6992 297.83 56.6023 298.854C55.569 299.654 48.7884 307.315 47.1844 307.082C47.6482 304.906 48.1155 301.354 48.1244 297.801C48.1333 294.249 48.139 291.957 47.8001 290.008C47.4611 288.059 46.5504 285.765 46.5504 285.765Z" fill="#FFD6BA"/>
<path d="M7.56488 293.231C7.56488 293.231 32.3252 290.657 44.4886 284.385C45.4054 284.387 45.7504 283.93 46.8899 286.453C47.915 288.977 48.583 296.81 47.8804 302.806C47.7611 304.715 47.1755 309.718 45.3376 311.432C43.4997 313.147 38.5665 315.312 26.2924 319.98C24.572 320.549 9.54538 326.012 3.58146 327.945C-2.38246 329.879 -0.690661 294.93 7.56488 293.231Z" fill="#947AFF"/>
<path d="M166.896 238.846C163.209 238.837 158.919 231.825 155.883 225.724C151.413 216.737 146.98 204.394 143.403 190.968C139.825 177.541 137.528 164.629 136.934 154.61C136.504 147.354 136.798 138.489 140.636 137.466C142.509 136.967 144.333 138.098 146.734 141.246C146.738 141.251 146.742 141.257 146.746 141.262L149.39 145.032C149.397 145.042 149.403 145.051 149.409 145.061C153.912 152.466 158.837 164.607 162.921 178.37C163.002 178.643 162.847 178.93 162.573 179.011C162.3 179.092 162.013 178.936 161.932 178.663C157.876 164.991 152.993 152.945 148.536 145.611L145.908 141.863C143.831 139.143 142.287 138.094 140.901 138.463C138.503 139.102 137.405 145.115 137.964 154.549C138.554 164.501 140.839 177.34 144.4 190.702C147.96 204.064 152.366 216.338 156.807 225.264C161.016 233.725 164.961 238.395 167.359 237.755C168.942 237.334 169.996 234.52 170.327 229.832C170.668 225.018 170.25 218.372 169.12 210.614C169.079 210.332 169.274 210.07 169.556 210.029C169.839 209.988 170.1 210.183 170.141 210.465C171.281 218.296 171.702 225.018 171.356 229.905C170.981 235.216 169.726 238.192 167.624 238.752C167.385 238.816 167.142 238.846 166.896 238.846Z" fill="black"/>
<path d="M169.642 211.009C169.393 211.008 169.173 210.826 169.134 210.571C167.935 202.776 165.963 193.41 163.86 185.517C163.469 184.048 162.876 181.928 162.462 180.478C162.384 180.204 162.543 179.918 162.816 179.84C163.091 179.763 163.376 179.921 163.454 180.195C163.869 181.649 164.463 183.777 164.856 185.252C166.968 193.178 168.949 202.585 170.153 210.415C170.197 210.696 170.004 210.96 169.722 211.003C169.695 211.007 169.669 211.009 169.642 211.009Z" fill="black"/>
<path d="M160.619 240.52C156.931 240.511 152.641 233.5 149.606 227.398C145.135 218.412 140.703 206.069 137.125 192.642C133.548 179.216 131.25 166.304 130.657 156.285C130.227 149.028 130.52 140.164 134.358 139.141L140.637 137.468C140.912 137.395 141.194 137.559 141.268 137.834C141.341 138.109 141.177 138.392 140.902 138.465L134.624 140.138C132.226 140.777 131.128 146.79 131.686 156.223C132.276 166.176 134.561 179.015 138.122 192.377C141.682 205.739 146.089 218.013 150.529 226.939C154.739 235.4 158.684 240.07 161.081 239.43L167.359 237.758C167.634 237.684 167.917 237.848 167.99 238.123C168.064 238.398 167.9 238.681 167.625 238.754L161.347 240.427C161.107 240.491 160.864 240.521 160.619 240.52Z" fill="black"/>
<path d="M154.016 234.656C153.933 234.655 153.848 234.635 153.769 234.591C139.719 226.857 121.987 226.705 109.585 227.941C96.1226 229.281 85.8762 232.497 85.7742 232.529C85.7615 232.533 85.7481 232.537 85.7349 232.54C85.3479 232.63 84.9536 232.673 84.5557 232.673C79.264 232.66 73.1802 224.818 70.7957 214.555C69.5466 209.179 69.3461 203.892 70.2304 199.665C71.1382 195.326 73.094 192.588 75.7406 191.949C97.6065 182.787 111.359 171.27 119.045 163.22C127.359 154.513 130.539 147.911 130.57 147.846C130.692 147.588 131 147.479 131.257 147.601C131.514 147.723 131.624 148.03 131.502 148.288C131.372 148.562 128.219 155.106 119.791 163.932C114.851 169.105 109.12 173.979 102.754 178.418C94.8032 183.962 85.8354 188.84 76.1 192.916C76.0732 192.928 76.0457 192.936 76.0177 192.943C73.7627 193.467 72.0659 195.929 71.2403 199.876C70.3858 203.959 70.5849 209.089 71.8006 214.321C73.001 219.488 75.1683 224.156 77.9027 227.465C80.4669 230.568 83.2287 232.052 85.4836 231.54C86.0131 231.375 96.2071 228.236 109.484 226.914C117.459 226.12 124.974 226.126 131.822 226.93C140.402 227.939 147.953 230.212 154.267 233.688C154.517 233.826 154.607 234.139 154.47 234.389C154.376 234.559 154.199 234.656 154.016 234.656Z" fill="black"/>
<path d="M46.5776 244.054C45.9479 244.053 45.26 243.857 44.5474 243.473C42.8099 242.535 40.9119 240.473 39.2035 237.666C37.2833 234.512 35.6105 230.455 34.3655 225.934C30.8908 213.316 34.3366 208.236 34.485 208.027C34.5336 207.958 34.5984 207.902 34.6735 207.864C53.6127 198.285 72.0193 192.51 75.8193 191.931C76.1008 191.889 76.3638 192.082 76.4068 192.364C76.4495 192.645 76.2561 192.908 75.9746 192.951C72.2279 193.521 54.0586 199.231 35.2665 208.72C35.0673 209.058 34.4288 210.28 34.085 212.541C33.7057 215.036 33.6188 219.338 35.3598 225.66C38.1492 235.789 42.3162 241.097 45.0372 242.565C45.828 242.992 46.5412 243.124 47.1006 242.948C68.0528 235.012 73.9644 235.754 77.1413 236.152C77.3986 236.184 77.6418 236.215 77.8638 236.236C80.4092 236.479 81.6782 235.747 83.2842 234.819L83.5875 234.644C84.8644 233.911 85.411 233.045 85.1261 232.204C85.0349 231.934 85.1793 231.641 85.4492 231.55C85.7186 231.459 86.0117 231.603 86.1031 231.873C86.3176 232.506 86.5521 234.132 84.1006 235.538L83.8 235.712C82.175 236.651 80.6399 237.538 77.7654 237.263C77.5282 237.24 77.2778 237.209 77.0128 237.176C73.9243 236.788 68.1751 236.068 47.4531 243.917C47.445 243.92 47.4371 243.923 47.429 243.926C47.1609 244.012 46.8758 244.055 46.5776 244.054Z" fill="black"/>
<path d="M39.3716 242.419C36.3991 242.412 32.447 241.849 29.6676 240.114C27.2764 238.621 25.6746 235.098 24.7517 232.405C23.6675 229.241 23.1028 226.064 23.0368 224.451C22.902 221.165 28.8964 213.425 33.8982 209.394C34.1202 209.215 34.4446 209.25 34.6232 209.472C34.8019 209.694 34.7671 210.018 34.5453 210.197C29.4422 214.31 23.9583 221.748 24.0672 224.409C24.2055 227.782 26.4634 236.897 30.2139 239.239C34.2828 241.78 41.0765 241.584 42.6889 241.056C42.9592 240.967 43.2506 241.115 43.3396 241.386C43.4283 241.656 43.2807 241.948 43.0099 242.036C42.321 242.262 40.9914 242.423 39.3716 242.419Z" fill="black"/>
<path d="M41.528 227.664C41.1179 227.663 40.9154 227.552 40.7761 227.38C37.9574 223.937 38.0939 219.907 38.5602 218.258C38.6446 217.959 38.9187 217.581 40.3397 216.842C41.1859 216.401 42.3331 215.892 43.5702 215.407C44.3395 215.106 48.2397 213.611 49.4601 213.819C49.9706 213.906 50.1312 214.268 50.1138 214.551C50.0112 216.226 51.3889 222.123 51.9616 222.929C52.0187 223.009 52.0517 223.105 52.0564 223.203C52.0717 223.527 52.1038 224.201 47.1942 226.069C45.8122 226.595 44.4103 227.058 43.3478 227.34C42.4794 227.569 41.9124 227.665 41.528 227.664ZM41.5734 226.725C41.5745 226.727 41.5752 226.728 41.5762 226.729C41.5752 226.728 41.5743 226.727 41.5734 226.725ZM41.4998 226.634C41.9551 226.659 43.6764 226.274 46.4053 225.264C48.9364 224.327 50.4622 223.549 50.9337 223.189C50.203 221.627 49.1226 216.788 49.0796 214.828C48.4522 214.865 46.7709 215.281 44.2388 216.254C41.3572 217.361 39.7761 218.266 39.5435 218.573C39.2166 219.781 38.9609 223.455 41.4998 226.634Z" fill="black"/>
<path d="M61.9579 264.431C61.7415 264.43 61.5398 264.292 61.4692 264.075C61.442 263.991 58.7385 255.705 58.2035 253.909C56.5613 249.168 54.8449 246.032 53.1013 244.588C51.6923 243.421 50.4879 243.517 49.425 243.601C48.9579 243.638 48.5167 243.673 48.0959 243.6C47.8153 243.551 47.6275 243.284 47.6761 243.003C47.7251 242.723 47.992 242.535 48.2727 242.584C48.5649 242.634 48.9257 242.606 49.3434 242.573C51.6793 242.387 55.2092 242.106 59.182 253.582C59.1846 253.59 59.1866 253.597 59.1889 253.604C59.7122 255.364 62.4225 263.671 62.4497 263.755C62.5381 264.026 62.3901 264.317 62.1193 264.405C62.0657 264.423 62.0112 264.431 61.9579 264.431Z" fill="black"/>
<path d="M74.3109 297.042C72.3729 297.037 70.4758 296.65 68.7171 295.891C66.6852 295.015 64.8956 293.664 63.8064 292.186C62.622 290.579 63.0801 287.23 63.5237 283.992C63.8063 281.928 64.0731 279.978 63.8689 278.788C63.8207 278.507 64.0091 278.241 64.2897 278.192C64.5705 278.145 64.8372 278.333 64.8853 278.613C65.1166 279.96 64.8393 281.986 64.5455 284.132C64.1496 287.025 63.7007 290.304 64.637 291.574C66.0845 293.539 70.507 296.946 76.8823 295.779C83.2302 294.616 87.4836 290.61 87.2826 288.967C87.0823 287.331 84.4936 281.071 83.1528 277.99C83.0392 277.728 83.1587 277.425 83.42 277.311C83.681 277.198 83.9849 277.317 84.0986 277.578C84.2591 277.948 88.0378 286.649 88.3062 288.841C88.4622 290.115 87.2756 291.814 85.1324 293.385C82.8689 295.045 80.005 296.255 77.0682 296.793C76.147 296.962 75.2242 297.045 74.3109 297.042Z" fill="black"/>
<path d="M77.7753 257.297C77.6019 257.296 77.4329 257.208 77.336 257.05C75.6058 254.217 72.5504 236.737 72.52 236.561C72.4715 236.28 72.6596 236.014 72.9403 235.965C73.2203 235.916 73.4877 236.105 73.5363 236.385C74.3155 240.895 76.848 254.272 78.2162 256.512C78.3645 256.755 78.2878 257.072 78.0449 257.221C77.9604 257.273 77.8672 257.297 77.7753 257.297Z" fill="black"/>
<path d="M81.91 249.237C81.8018 249.236 81.6929 249.202 81.5999 249.132C77.3297 245.888 77.2275 238.821 77.2981 236.732C77.3076 236.448 77.5454 236.23 77.8308 236.234C78.1154 236.244 78.3382 236.482 78.3288 236.767C78.2816 238.165 78.2478 245.291 82.2237 248.31C82.4506 248.483 82.4947 248.806 82.3224 249.033C82.2206 249.167 82.0664 249.237 81.91 249.237Z" fill="black"/>
<path d="M77.0457 255.501C76.837 255.501 76.6408 255.372 76.5637 255.165C76.4645 254.898 76.6003 254.601 76.8671 254.502C81.9376 252.616 82.8654 250.036 83.029 249.29C83.1675 248.658 83.0406 248.257 82.8899 248.105C82.8871 248.103 82.8843 248.1 82.8815 248.097C79.3721 244.402 79.2615 240.701 79.1725 237.728C79.163 237.405 79.1535 237.087 79.14 236.776C79.1277 236.491 79.3485 236.251 79.633 236.239C79.9187 236.228 80.1581 236.447 80.1704 236.732C80.184 237.048 80.1936 237.37 80.2036 237.697C80.2913 240.64 80.3908 243.975 83.6257 247.383C84.0819 247.846 84.2315 248.621 84.0364 249.511C83.8444 250.385 82.7863 253.401 77.2265 255.469C77.1673 255.491 77.106 255.501 77.0457 255.501Z" fill="black"/>
<path d="M151.286 214.357C151.198 214.357 151.109 214.334 151.027 214.286C150.781 214.142 150.699 213.826 150.843 213.58C154.902 206.65 152.553 192.932 148.281 183.542C145.638 177.732 142.446 173.958 139.743 173.446C139.463 173.394 139.279 173.124 139.332 172.844C139.385 172.564 139.655 172.38 139.935 172.433C143.013 173.016 146.397 176.909 149.22 183.115C151.495 188.115 153.137 194.081 153.727 199.484C154.198 203.795 154.234 209.831 151.733 214.102C151.636 214.266 151.463 214.357 151.286 214.357Z" fill="black"/>
<path d="M80.9416 253.602C80.6951 253.602 80.4774 253.424 80.4352 253.172C80.3877 252.892 80.5768 252.625 80.8576 252.578C83.3259 252.16 86.9961 251.127 87.4286 250.135C87.7661 249.361 87.7971 248.755 87.5207 248.331C86.7633 247.171 83.8667 247.164 82.3108 247.16C82.0258 247.159 81.7956 246.928 81.7963 246.643C81.7971 246.358 82.0283 246.128 82.3133 246.129C84.1868 246.133 87.3225 246.141 88.3846 247.767C88.863 248.5 88.8593 249.435 88.3739 250.548C87.564 252.404 82.1136 253.412 81.0294 253.595C81 253.6 80.9707 253.602 80.9416 253.602Z" fill="black"/>
<path d="M60.2888 285.758C60.163 285.758 60.037 285.712 59.9379 285.619C59.73 285.425 59.719 285.098 59.9136 284.89C65.8617 278.534 65.6804 270.361 65.6698 270.016C65.5968 267.648 70.4969 263.94 71.5783 263.622C74.3753 262.798 76.797 261.069 77.3019 260.192C77.9293 259.103 78.1032 258.173 77.7913 257.573C77.6092 257.224 77.3089 257.088 77.2259 257.081C76.168 257.078 75.2882 257.329 74.2694 257.619C73.1517 257.938 71.8845 258.299 70.1027 258.401C70.0922 258.402 70.082 258.402 70.0717 258.402C69.0777 258.4 67.3166 259.737 65.6893 261.73C65.678 261.743 65.6662 261.756 65.6535 261.769C64.5086 262.907 63.2956 263.657 62.1222 264.383C59.3585 266.092 56.7481 267.706 54.9919 274.249C54.9181 274.524 54.6351 274.688 54.3603 274.614C54.0852 274.54 53.9221 274.257 53.9959 273.982C55.8581 267.044 58.7669 265.245 61.5799 263.506C62.7484 262.783 63.8524 262.1 64.908 261.056C65.639 260.164 68.079 257.382 70.0577 257.371C71.7186 257.274 72.9235 256.93 73.9868 256.628C75.035 256.329 76.0254 256.047 77.2334 256.05L77.2338 256.05C77.6538 256.051 78.2794 256.353 78.6609 257.015C79.0398 257.672 79.2669 258.847 78.1957 260.707C77.512 261.894 74.8071 263.746 71.8697 264.611C71.5029 264.719 70.1697 265.622 68.9161 266.791C67.5076 268.103 66.6795 269.297 66.7007 269.985C66.7118 270.347 66.9023 278.931 60.6669 285.595C60.5648 285.704 60.4269 285.759 60.2888 285.758Z" fill="black"/>
<path d="M46.4946 286.326C46.3478 286.326 46.2022 286.263 46.1005 286.142C45.9173 285.924 45.9457 285.598 46.1639 285.415C48.0357 283.844 51.6412 275.85 52.7429 273.115C57.2813 261.195 57.6963 260.905 59.0718 259.945C59.3534 259.748 59.6725 259.525 60.0927 259.13C60.3004 258.935 60.6269 258.946 60.8215 259.153C61.0168 259.361 61.0066 259.687 60.7991 259.882C60.3245 260.328 59.9573 260.584 59.6624 260.791C58.518 261.59 58.1324 261.859 53.7033 273.492C53.6576 273.606 49.3217 284.111 46.827 286.205C46.7303 286.287 46.612 286.326 46.4946 286.326Z" fill="black"/>
<path d="M47.1797 307.598C46.9627 307.598 46.7611 307.459 46.6906 307.241C46.6028 306.97 46.7514 306.68 47.0225 306.592C48.7286 306.039 50.9094 303.726 52.8334 301.686C54.5327 299.883 55.875 298.459 56.9029 298.135C59.3015 297.378 64.0848 294.027 65.2125 292.948C65.4183 292.751 65.7446 292.758 65.9416 292.964C66.1385 293.169 66.1313 293.496 65.9257 293.693C64.7151 294.851 59.7876 298.306 57.2131 299.118C56.4415 299.362 54.9888 300.903 53.5839 302.393C51.5749 304.524 49.2979 306.939 47.34 307.573C47.2868 307.59 47.2327 307.599 47.1797 307.598Z" fill="black"/>
<path d="M76.3905 272.326C76.2547 272.325 76.124 272.309 75.9974 272.278C75.4571 272.143 75.0506 271.721 74.8516 271.088C73.7075 268.031 77.9589 263.528 78.448 263.024C78.83 262.63 78.9556 262.059 78.7764 261.534C78.5045 260.736 78.2629 259.664 78.038 258.256C77.9932 257.975 78.1846 257.71 78.4661 257.665C78.7477 257.621 79.0115 257.812 79.0565 258.094C79.272 259.443 79.4998 260.46 79.7527 261.201C80.0578 262.095 79.8415 263.069 79.1883 263.742C77.4473 265.536 75.1141 268.879 75.8215 270.736C75.8254 270.747 75.8291 270.758 75.8325 270.768C75.9221 271.06 76.0613 271.231 76.2468 271.277C76.44 271.325 77.2028 271.351 78.8951 269.661C79.581 268.976 80.3117 268.426 80.9566 267.94C82.2034 267.002 83.1882 266.26 83.5076 264.96C83.7544 263.957 83.8093 261.983 83.3477 260.022C83.0631 258.813 82.347 256.692 80.7479 256.064C80.7158 256.052 80.685 256.036 80.6561 256.017C79.9055 255.532 77.7553 255.584 77.3946 255.733C77.1504 255.87 76.8414 255.786 76.6992 255.544C76.5548 255.299 76.6368 254.983 76.8823 254.838C77.4591 254.499 80.0617 254.453 81.1701 255.122C83.0736 255.898 83.9507 258.083 84.3517 259.786C84.8551 261.925 84.7936 264.049 84.5093 265.207C84.1018 266.863 82.8755 267.787 81.5769 268.764C80.9289 269.252 80.2586 269.757 79.6237 270.391C78.3223 271.69 77.2592 272.328 76.3905 272.326ZM77.405 255.728C77.4033 255.729 77.4016 255.73 77.3999 255.731C77.4018 255.73 77.4035 255.729 77.405 255.728Z" fill="black"/>
<path d="M73.5085 277.91C73.3057 277.91 73.1271 277.878 72.9709 277.813C72.714 277.706 72.53 277.512 72.4388 277.255C72.436 277.247 72.4335 277.239 72.4311 277.231C71.7706 275.034 72.9809 272.907 75.839 271.244C76.0855 271.101 76.4009 271.185 76.5442 271.431C76.6875 271.677 76.6041 271.993 76.3578 272.136C74.6729 273.116 72.802 274.73 73.4005 276.871C73.4993 276.893 73.8411 276.909 74.8069 276.552C75.6142 276.253 76.6021 275.79 77.5574 275.342C78.517 274.892 79.509 274.427 80.3202 274.129C81.289 273.773 82.6665 272.416 83.9148 270.588C85.1623 268.761 85.8147 267.158 85.7951 266.578C85.7584 265.48 85.3398 264.891 84.995 264.59C84.6779 264.312 84.4095 264.265 84.3409 264.264C84.079 264.344 83.7976 264.205 83.7043 263.944C83.6086 263.676 83.7483 263.381 84.0167 263.285C84.3879 263.153 84.922 263.277 85.4112 263.61C85.9144 263.952 86.7671 264.788 86.8262 266.544C86.89 268.444 83.3399 274.118 80.6761 275.097C79.9066 275.38 78.9349 275.836 77.9952 276.276C75.904 277.257 74.4481 277.912 73.5085 277.91Z" fill="black"/>
<path d="M78.3759 279.865C77.5784 279.863 76.928 279.695 76.637 279.27C76.295 278.77 76.2294 278.096 76.4525 277.369C76.8117 276.2 77.8198 275.14 79.0211 274.668C79.2862 274.564 79.5854 274.695 79.6894 274.96C79.7937 275.225 79.6632 275.524 79.3982 275.628C78.3517 276.039 77.6601 276.951 77.4385 277.672C77.3095 278.092 77.3272 278.452 77.4878 278.687C77.5925 278.798 78.2859 278.95 79.7409 278.69C80.9391 278.476 82.1952 278.058 82.8661 277.65C84.2079 276.833 85.4177 275.877 85.808 275.326C86.3468 274.564 85.987 273.288 85.3051 272.655C84.9537 272.328 84.3972 272.053 83.7418 272.594C83.5223 272.775 83.1972 272.745 83.0159 272.525C82.8344 272.305 82.8655 271.98 83.0852 271.799C84.0041 271.04 85.1235 271.079 86.007 271.899C87.0241 272.843 87.5252 274.685 86.65 275.922C86.1723 276.597 84.8975 277.621 83.4024 278.531C82.4192 279.129 80.0671 279.869 78.3759 279.865Z" fill="black"/>
<path d="M3.57968 328.461C3.36457 328.46 3.16426 328.324 3.09209 328.109C3.00165 327.839 3.14723 327.546 3.41724 327.456C3.78766 327.332 40.486 315.015 44.654 311.386C46.3167 309.938 47.3524 305.664 47.5707 299.349C47.7516 294.113 47.3112 289.382 47.132 288.768C46.8083 287.656 46.1338 285.989 45.5227 285.089C45.4476 284.979 45.3332 284.905 45.201 284.882C45.0688 284.858 44.9359 284.889 44.8269 284.967C42.9958 286.288 35.7039 289.781 7.60834 293.685C7.32719 293.725 7.06579 293.528 7.02648 293.246C6.98736 292.963 7.18433 292.703 7.46643 292.663C19.5955 290.978 29.1323 289.194 35.812 287.361C41.3335 285.846 43.4522 284.687 44.2235 284.13C44.5604 283.887 44.9711 283.793 45.38 283.865C45.789 283.938 46.1425 284.166 46.3757 284.509C47.1282 285.616 47.8464 287.532 48.1224 288.479C48.3851 289.381 48.7762 294.329 48.6015 299.384C48.3666 306.179 47.2663 310.479 45.3312 312.164C41.0096 315.926 5.26434 327.925 3.7447 328.433C3.69017 328.452 3.63454 328.461 3.57968 328.461Z" fill="black"/>
<path d="M25.0256 224.903C24.905 224.903 24.7843 224.861 24.6865 224.775C24.4726 224.587 24.4518 224.261 24.6398 224.047C25.2587 223.343 26.3022 222.605 26.9927 222.116L27.1434 222.009C27.3757 221.845 27.6975 221.899 27.8625 222.131C28.0276 222.363 27.9731 222.685 27.7408 222.85L27.5884 222.958C26.9769 223.391 25.9533 224.115 25.4142 224.728C25.3121 224.844 25.1692 224.904 25.0256 224.903Z" fill="black"/>
<path d="M25.643 228.119C25.4211 228.118 25.2167 227.973 25.1502 227.75C25.0689 227.477 25.2246 227.19 25.4976 227.109C26.3471 226.856 28.2723 225.988 28.2915 225.98C28.5512 225.862 28.8566 225.978 28.9737 226.237C29.0909 226.497 28.9755 226.802 28.716 226.92C28.6343 226.956 26.7076 227.825 25.7914 228.097C25.742 228.112 25.6922 228.119 25.643 228.119Z" fill="black"/>
<path d="M27.0584 232.317C26.7734 232.317 26.5433 232.085 26.544 231.8C26.5447 231.515 26.7762 231.285 27.061 231.286C27.5166 231.287 28.7323 230.925 29.3913 230.696C29.6604 230.602 29.9543 230.745 30.0477 231.014C30.141 231.283 29.9986 231.577 29.7295 231.67C29.5385 231.737 27.8377 232.319 27.0584 232.317Z" fill="black"/>
<path d="M29.3886 236.354C29.0307 236.353 28.6558 236.321 28.3365 236.229C28.0627 236.15 27.9049 235.864 27.9839 235.591C28.0628 235.317 28.3491 235.159 28.6223 235.238C29.1169 235.381 29.9948 235.319 30.4324 235.233C30.7119 235.177 30.9833 235.359 31.0382 235.639C31.0935 235.918 30.9117 236.189 30.6322 236.244C30.4114 236.288 29.9186 236.356 29.3886 236.354Z" fill="black"/>
<path d="M212.923 37.6576C212.923 37.6576 213.614 47.0495 207.948 57.8485C205.273 64.7282 197.46 81.4964 197.46 81.4964C197.46 81.4964 197.923 75.8383 195.8 72.516C195.433 76.1827 195.153 78.4401 192.894 84.4301C190.635 90.4204 183.075 106.677 183.428 108.586C183.781 110.494 188.403 112.89 189.057 109.519C188.834 106.426 187.861 105.561 192.978 95.5596C195.345 91.4071 201.035 81.9965 201.035 81.9965C201.035 81.9965 203.751 78.4762 203.669 74.8924C205.25 70.8852 216.994 47.1211 216.994 47.1211C216.994 47.1211 228.146 27.0652 231.078 24.0853C234.01 21.1055 214.644 25.6142 212.923 37.6576Z" fill="white"/>
<path d="M183.929 109.003C183.908 109.004 183.886 109.004 183.864 109.003C183.581 108.983 183.368 108.738 183.387 108.455C183.546 106.174 185.675 101.032 188.141 95.0792C191.491 86.9927 195.659 76.9291 195.272 72.5673C195.25 72.3164 195.413 72.0867 195.657 72.0243C195.901 71.9621 196.154 72.0858 196.255 72.3163C197.417 74.9749 197.85 77.7381 198.008 79.6254C198.532 78.4421 199.199 76.9805 199.958 75.3184C202.57 69.5951 206.148 61.7568 208.869 54.4653C212.056 45.9222 213.233 40.3143 212.366 37.7975C212.274 37.5293 212.416 37.2368 212.685 37.1443C212.953 37.0521 213.245 37.1947 213.337 37.4629C214.297 40.2494 213.15 45.9284 209.831 54.8243C207.098 62.15 203.511 70.0076 200.893 75.7452C199.578 78.6254 198.539 80.9005 198.054 82.143C197.963 82.3764 197.717 82.51 197.472 82.4591C197.226 82.4082 197.054 82.1877 197.063 81.9374C197.064 81.8979 197.165 78.6738 196.162 75.1198C195.397 80.2469 192.077 88.2622 189.09 95.4724C186.76 101.098 184.559 106.412 184.413 108.526C184.394 108.787 184.184 108.989 183.929 109.003Z" fill="black"/>
<path d="M189.049 110.09C188.816 110.103 188.597 109.954 188.529 109.721C186.932 104.273 192.537 95.0812 197.482 86.9714C200.293 82.3619 202.948 78.0083 203.15 75.8984C203.468 72.5866 209.283 60.6065 214.167 51.3541C220.614 39.1397 227.103 28.3104 230.698 23.7652C230.874 23.5425 231.197 23.505 231.42 23.681C231.642 23.857 231.68 24.18 231.504 24.4025C227.944 28.903 221.496 39.6703 215.076 51.8337C208.8 63.7231 204.419 73.4335 204.173 75.9964C203.949 78.3412 201.359 82.5885 198.36 87.5063C193.764 95.0418 188.046 104.42 189.515 109.432C189.595 109.705 189.439 109.99 189.166 110.07C189.127 110.081 189.088 110.088 189.049 110.09Z" fill="black"/>
<path d="M185.58 146.747C193.788 134.833 206.303 117.325 212.136 113.717C211.12 117.359 209.801 123.185 214.466 126.539C215.676 127.191 217.79 124.227 217.79 124.227L233.623 109.336L251.034 92.1946L268.236 74.1643L283.744 56.4172L286.23 52.5444C286.23 52.5444 293.476 44.4951 299.817 40.0618C306.159 35.6284 324.964 19.9168 334.741 13.1453C344.518 6.37416 316.313 12.1097 303.636 20.5057C290.959 28.9018 287.76 32.2395 287.76 32.2395C287.76 32.2395 272.828 45.9787 264.884 54.5455C256.939 63.112 238.814 84.1764 238.814 84.1764C238.814 84.1764 224.293 102.628 222.581 97.8716C220.869 93.115 225.427 89.573 225.427 89.573C225.427 89.573 223.261 87.8566 220.206 90.8084C217.15 93.7602 203.027 111.414 203.027 111.414C203.027 111.414 190.661 128.066 188.322 133.546C185.982 139.027 184.525 144.768 185.58 146.747Z" fill="white"/>
<path d="M188.387 134.08C188.316 134.084 188.244 134.074 188.174 134.047C187.909 133.944 187.778 133.647 187.88 133.382C189.323 129.648 194.27 122.097 201.454 112.668C208.2 103.811 215.458 95.2518 220.394 90.3294C220.595 90.1289 220.92 90.1295 221.121 90.3303C221.321 90.5312 221.321 90.8564 221.12 91.0569C210.979 101.169 191.898 125.831 188.838 133.753C188.763 133.947 188.583 134.07 188.387 134.08Z" fill="black"/>
<path d="M224.102 99.0741C223.161 99.1254 222.628 98.7111 222.329 98.2767C221.038 96.4015 222.751 91.6655 225.005 89.2474C225.199 89.04 225.524 89.0286 225.731 89.222C225.939 89.4155 225.95 89.7406 225.757 89.9482C223.715 92.1384 222.291 96.4094 223.175 97.6942C223.488 98.1486 224.161 98.1699 225.176 97.7587C226.601 97.1814 232.254 90.6275 239.41 82.3295C255.536 63.633 282.525 32.3406 303.339 20.0749C303.583 19.9307 303.898 20.0121 304.042 20.2567C304.186 20.5011 304.105 20.8159 303.861 20.9599C283.193 33.1399 256.272 64.352 240.188 83.0008C231.664 92.8834 227.143 98.0703 225.562 98.7111C224.99 98.9427 224.508 99.0519 224.102 99.0741Z" fill="black"/>
<path d="M185.569 147.233C185.469 147.239 185.367 147.215 185.275 147.159C185.032 147.012 184.955 146.697 185.102 146.454C186.958 143.39 192.617 135.353 198.52 127.714C201.659 123.652 204.468 120.23 206.642 117.817C210.242 113.823 211.485 113.261 212.107 113.184C212.302 113.16 212.495 113.251 212.601 113.417C212.708 113.583 212.71 113.796 212.606 113.964C210.888 116.748 211.58 122.766 213.332 125.06C214.137 126.113 214.799 125.917 215.017 125.853C215.295 125.763 216.975 124.732 226.876 115.227C233.391 108.972 241.853 100.583 250.091 92.2105C269.926 72.054 283.412 57.2105 284.45 54.3949C285.522 51.4868 294.274 43.5849 310.462 30.9087C322.471 21.5055 334.326 12.8207 334.444 12.7342C334.673 12.5665 334.995 12.6164 335.162 12.8453C335.33 13.0744 335.28 13.3959 335.051 13.5634C334.933 13.6499 323.09 22.3262 311.094 31.7193C291.121 47.3588 286.105 52.8762 285.414 54.7505C283.756 59.2489 258.479 85.1522 250.772 92.9842C242.515 101.373 234.043 109.772 227.527 116.026C216.686 126.432 215.649 126.738 215.308 126.839C214.303 127.135 213.312 126.725 212.516 125.684C210.808 123.447 210.017 118.253 211.091 114.86C209.568 116.052 206.283 119.35 199.334 128.342C193.452 135.953 187.823 143.946 185.981 146.987C185.889 147.137 185.732 147.224 185.569 147.233Z" fill="black"/>
<path d="M190.997 157.623C190.997 157.623 197.698 150.923 206.151 145.617C214.604 140.311 227.939 132.255 227.939 132.255C227.939 132.255 239.993 124.89 242.014 122.419C244.035 119.949 245.623 116.136 248.403 110.023C251.183 103.909 250.769 100.703 264.7 92.6138C278.631 84.5248 280.838 83.2864 280.838 83.2864C280.838 83.2864 289.261 79.597 289.844 79.3166C290.428 79.0364 309.478 68.1837 310.061 67.9037C310.645 67.6233 335.674 52.2212 335.9 51.9606C336.125 51.6999 351.944 40.8996 351.944 40.8996C351.944 40.8996 329.776 58.2566 329.431 58.524C329.087 58.7912 304.138 75.6793 303.097 76.3573C302.056 77.0351 287.343 86.1604 287.343 86.1604C287.343 86.1604 281.017 88.7415 278.171 95.8523C276.236 97.6967 272.065 100.285 268.909 101.699C265.752 103.113 260.169 106.151 260.061 110.752C259.953 115.354 263.444 122.242 190.997 157.623Z" fill="white"/>
<path d="M191.048 158.097C190.932 158.103 190.813 158.07 190.712 157.995C190.485 157.825 190.439 157.503 190.609 157.276C194.803 151.678 210.49 142.183 223.094 134.553C230.341 130.167 236.6 126.378 239.585 124.038C243.939 120.625 245.699 115.833 247.402 111.2C248.953 106.98 250.417 102.995 253.669 100.004C260.441 93.7782 280.508 82.1389 287.998 79.5313C295.105 77.0571 345.227 46.4807 353.013 39.2322C353.07 39.1787 353.126 39.1254 353.182 39.0725C353.387 38.8776 353.711 38.885 353.907 39.0895C354.102 39.2938 354.096 39.6182 353.892 39.8145C353.837 39.8683 353.778 39.9234 353.718 39.9798C348.55 44.8517 337.826 53.2062 324.945 62.3901C312.529 71.243 300.671 79.0531 294 82.772C282.231 89.3327 281.276 91.1004 279.541 94.3096C279.246 94.8561 278.94 95.4216 278.555 96.0652C277.41 97.9788 274.189 99.6729 270.778 101.466C265.889 104.037 260.348 106.951 260.556 110.761C260.571 111.044 260.354 111.287 260.071 111.302C259.788 111.318 259.546 111.1 259.53 110.817C259.286 106.348 265.137 103.271 270.3 100.557C273.579 98.8324 276.677 97.2037 277.674 95.5374C278.047 94.9129 278.347 94.3577 278.638 93.8208C280.404 90.5531 281.47 88.5809 293.5 81.8746C304.08 75.9765 326.353 60.6372 341.448 48.8871C335.344 52.9524 327.979 57.6198 321.21 61.7953C308.193 69.8243 292.353 79.103 288.336 80.5017C280.924 83.0822 261.066 94.5998 254.365 100.761C251.296 103.583 249.873 107.455 248.367 111.554C246.614 116.322 244.803 121.253 240.219 124.847C237.185 127.225 230.902 131.028 223.626 135.432C211.098 143.016 195.506 152.454 191.432 157.892C191.337 158.019 191.195 158.089 191.048 158.097Z" fill="black"/>
<path d="M189.803 171.076C189.499 170.462 193.305 168.177 193.305 168.177L203.621 162.439C203.621 162.439 207.264 159.103 208.232 158.273C209.2 157.442 214.58 153.77 223.037 150.294C231.493 146.817 265.263 133.799 265.263 133.799L278.835 127.228L311.157 106.388C311.157 106.388 325.504 94.8124 328.335 97.0731C330.452 97.951 333.501 100.374 339.84 96.0198C346.948 92.1602 349.711 91.8897 349.711 91.8897L383.102 79.4419L435.285 59.2682L469.244 45.0727C469.244 45.0727 478.08 41.0256 480.746 38.6676C483.412 36.31 497.147 46.9926 492.079 49.3465C487.011 51.7003 481.543 53.137 481.543 53.137L456.818 62.4186L401.437 84.3217L349.909 104.983C349.909 104.983 337.674 108.517 336.604 112.76C335.534 117.003 334.755 116.656 321.279 123.53C317.16 125.35 277.705 141.426 277.705 141.426C277.705 141.426 251.1 151.481 251.168 152.228C251.235 152.975 251.776 153.455 256.086 154.026C260.397 154.597 263.691 154.955 262.942 155.948C262.193 156.941 250.821 159.489 250.821 159.489C250.821 159.489 221.975 167.023 220.589 167.232C219.203 167.442 207.374 168.177 207.374 168.177C207.374 168.177 191.704 173.575 189.803 171.076Z" fill="white"/>
<path d="M191.68 172.355C190.836 172.401 190.212 172.311 189.813 172.051C189.534 171.869 189.36 171.606 189.311 171.29C189.089 169.849 191.531 168.506 196.23 166.06C200.344 163.919 205.465 161.255 207.286 158.517C208.548 156.617 213.653 153.79 223.35 149.618C231.532 146.097 241.487 142.271 250.27 138.894C255.796 136.77 261.015 134.764 264.705 133.243C264.968 133.135 265.268 133.26 265.376 133.523C265.484 133.785 265.359 134.085 265.097 134.193C261.395 135.718 256.41 137.635 250.638 139.853C241.864 143.226 231.919 147.049 223.756 150.561C214.511 154.539 209.257 157.407 208.141 159.086C206.174 162.044 201.143 164.662 196.704 166.972C194.881 167.921 193.158 168.817 191.96 169.593C190.307 170.663 190.32 171.088 190.327 171.133C190.329 171.149 190.331 171.162 190.374 171.19C191.334 171.815 196.452 170.431 200.188 169.421C203.568 168.507 207.063 167.562 209.238 167.418C210.573 167.331 211.776 167.319 212.94 167.307C216.489 167.272 219.842 167.24 226.359 165.065C229.529 164.008 235.905 162.508 242.655 160.92C247.475 159.787 252.459 158.614 256.314 157.587C260.474 156.479 262.111 155.851 262.749 155.518C262.709 155.51 262.666 155.502 262.62 155.495C260.728 155.185 258.925 154.96 257.334 154.762C253.074 154.231 251.169 153.955 250.669 152.983C250.553 152.758 250.467 152.394 250.715 151.937C250.862 151.665 251.014 151.383 257.638 148.699C261.664 147.068 267.169 144.915 273.544 142.423C285.385 137.793 300.123 132.031 312.106 126.959C325.883 121.127 333.439 117.294 334.565 115.567C335.716 113.8 336.149 112.679 336.466 111.86C337.377 109.503 337.757 109.271 346.644 105.678C348.02 105.121 485.062 49.9204 492.296 48.8892C492.576 48.8487 492.837 49.0442 492.877 49.3252C492.917 49.606 492.722 49.8662 492.441 49.9062C485.959 50.8305 365.05 99.3419 347.029 106.63C338.21 110.197 338.166 110.312 337.425 112.23C337.092 113.091 336.636 114.271 335.426 116.128C332.838 120.099 304.854 131.285 273.918 143.38C262.949 147.669 252.581 151.722 251.594 152.477C251.586 152.5 251.583 152.513 251.583 152.518C251.587 152.523 251.715 152.805 253.174 153.114C254.25 153.342 255.738 153.528 257.461 153.742C259.061 153.942 260.875 154.168 262.786 154.481C263.175 154.544 264.087 154.694 264.111 155.389C264.13 155.953 263.57 156.364 261.972 156.957C260.871 157.366 259.296 157.846 257.157 158.425C253.212 159.493 247.965 160.727 242.89 161.92C236.163 163.503 229.809 164.997 226.684 166.04C220.014 168.266 216.583 168.3 212.95 168.335C211.8 168.346 210.612 168.358 209.306 168.444C207.232 168.58 203.787 169.512 200.456 170.413C196.487 171.486 193.546 172.253 191.68 172.355Z" fill="black"/>
<path d="M278.178 127.663C277.991 127.673 277.805 127.58 277.705 127.407C277.563 127.161 277.647 126.847 277.893 126.705C298.237 114.937 309.457 107.009 316.161 102.271C320.054 99.5207 322.404 97.8602 324.293 97.0017C326.233 96.12 327.676 96.1 329.438 96.9298C333.509 98.8459 335.183 97.9249 338.518 96.0906C339.86 95.3531 341.38 94.5172 343.392 93.6656C343.399 93.6626 343.407 93.6598 343.414 93.6569C392.918 75.3339 429.332 61.3618 451.644 52.1292C469.142 44.8887 478.54 40.3579 480.375 38.2779C480.563 38.0653 480.887 38.0449 481.1 38.2327C481.313 38.4205 481.333 38.7451 481.145 38.9578C478.437 42.0275 461.24 51.1405 343.782 94.6167C341.823 95.4458 340.33 96.2668 339.013 96.9911C335.603 98.8668 333.544 99.9987 329.001 97.8595C326.11 96.4987 324.314 97.7682 316.754 103.111C310.036 107.858 298.792 115.803 278.407 127.595C278.335 127.637 278.257 127.659 278.178 127.663Z" fill="black"/>
<path d="M466.897 125.519L422.874 133.755L388.108 141.942C388.108 141.942 338.747 155.042 331.527 156.808C330.323 157.789 315.627 162.936 311.517 156.758C309.618 155.49 313.696 148.522 312.291 147.912C310.886 147.303 285.497 163.896 283.045 165.059C280.594 166.222 280.502 168.742 259.06 169.684C237.618 170.627 206.688 173.688 201.265 176.957C205.196 177.771 228.513 183.929 228.513 183.929C228.513 183.929 295.63 202.9 303.123 201.919C312.213 200.729 306.144 194.437 315.099 193.033C333.157 195.019 362.252 204.405 362.252 204.405C362.252 204.405 414.346 220.424 418.162 223.302C435.795 232.172 468.855 157.989 471.29 150.702C475.627 137.719 475.488 127.613 466.897 125.519Z" fill="white"/>
<path d="M296.845 202.092C296.794 202.094 296.742 202.09 296.691 202.077C283.509 198.728 268.28 194.784 253.551 190.97C227.948 184.339 203.766 178.075 201.027 177.748C200.825 177.724 200.655 177.582 200.597 177.386C200.538 177.191 200.6 176.979 200.756 176.847C202.799 175.111 210.787 173.539 225.176 172.041C237.133 170.795 251.076 169.852 261.256 169.163C265.816 168.855 269.753 168.588 272.285 168.376C279.455 167.774 291.535 159.951 300.356 154.239C308.831 148.751 311.896 146.915 313.007 147.85C313.66 148.4 313.204 149.47 313.032 149.873C311.504 153.454 311.425 156.03 312.797 157.529C314.388 159.266 318.93 160.477 331.532 156.372C335.182 155.184 362.631 147.739 392.28 140.44C418.756 133.922 453.208 125.982 466.984 125.17L466.987 125.169C467.269 125.154 467.511 125.37 467.527 125.652C467.544 125.936 467.328 126.178 467.045 126.195C453.347 127.003 418.96 134.93 392.525 141.438C362.899 148.73 335.489 156.164 331.85 157.349C326.233 159.179 321.683 160.13 318.324 160.176C315.377 160.216 313.262 159.559 312.039 158.222C310.371 156.4 310.387 153.455 312.088 149.47C312.303 148.965 312.323 148.727 312.319 148.638C312.124 148.611 311.357 148.689 308.677 150.228C306.608 151.416 303.97 153.124 300.915 155.102C292.003 160.872 279.798 168.776 272.371 169.399C269.831 169.613 265.89 169.879 261.326 170.188C251.153 170.876 237.222 171.819 225.283 173.063C213.224 174.319 205.594 175.635 202.535 176.983C208.498 178.239 229.668 183.722 253.809 189.975C268.536 193.789 283.765 197.733 296.944 201.081C297.218 201.151 297.385 201.43 297.315 201.705C297.258 201.928 297.064 202.08 296.845 202.092Z" fill="black"/>
<path d="M418.29 223.938C418.197 223.943 418.101 223.923 418.013 223.874C414.323 221.816 393.513 214.602 372.572 208.121C346.008 199.9 325.357 194.652 315.916 193.722C313.232 193.458 310.715 195.016 309.796 197.513C309.263 198.958 308.447 200.568 306.428 201.553C304.296 202.593 301.135 202.77 296.766 202.096C296.486 202.052 296.293 201.79 296.337 201.51C296.38 201.229 296.642 201.038 296.923 201.08C306.058 202.492 307.86 199.796 308.832 197.158C309.913 194.222 312.868 192.388 316.016 192.699C329.519 194.029 360.278 203.241 372.876 207.139C394.235 213.75 414.708 220.854 418.513 222.976C418.761 223.114 418.85 223.427 418.712 223.675C418.622 223.835 418.461 223.929 418.29 223.938Z" fill="black"/>
<path d="M217.249 201.66L223.708 203.756C223.708 203.756 231.974 206.694 234.443 208.466C236.913 210.238 243.891 214.516 248.259 222.842C249.246 219.783 250.102 217.405 246.665 213.098C243.228 208.791 240.549 206.214 241.49 205.095C242.9 203.416 249.006 205.96 249.006 205.96C249.006 205.96 260.57 209.434 274.368 215.016C288.166 220.599 314.821 232.884 314.821 232.884C314.821 232.884 390.697 268.842 405.421 278.672C420.145 288.502 415.398 262.581 388.498 250.975C361.598 239.37 262.627 204.573 237.037 195.511C211.447 186.449 206.44 200.032 217.249 201.66Z" fill="white"/>
<path d="M405.466 279.201C405.356 279.207 405.243 279.178 405.146 279.111C399.035 274.888 359.95 254.868 320.58 236.342C299.137 226.251 280.77 218.099 267.466 212.766C259.835 209.707 253.778 207.537 249.465 206.316C243.183 204.538 242.101 205.201 241.919 205.447C241.916 205.451 241.913 205.456 241.909 205.46C241.852 205.892 243.117 207.5 244.042 208.677C246.961 212.39 251.372 218.001 248.743 223.031C248.653 223.203 248.474 223.31 248.279 223.306C248.084 223.303 247.908 223.19 247.825 223.014C247.802 222.968 245.506 218.249 240.049 213.27C235.019 208.681 226.192 202.922 212.703 201.55C212.421 201.522 212.216 201.27 212.244 200.987C212.273 200.705 212.525 200.499 212.807 200.528C218.894 201.147 224.57 202.688 229.677 205.108C233.766 207.046 237.501 209.548 240.779 212.545C244.939 216.349 247.271 219.935 248.23 221.602C249.573 217.375 245.795 212.57 243.234 209.312C241.459 207.054 240.383 205.685 241.105 204.821C242.119 203.488 246.112 203.1 267.848 211.812C281.17 217.152 299.556 225.313 321.018 235.412C360.43 253.959 399.587 274.021 405.73 278.265C405.963 278.427 406.022 278.747 405.86 278.98C405.767 279.116 405.619 279.193 405.466 279.201Z" fill="black"/>
<path d="M215.564 222.418C215.144 222.422 215.058 222.857 215.45 222.992C219.584 224.418 235.041 230.29 252.931 243.82C271.801 258.092 293.889 274.376 305.417 288.556C305.684 288.884 306.322 288.654 306.119 288.303C302.951 282.826 299.809 277.748 300.472 276.101C301.33 273.971 319.055 286.303 319.055 286.303L327.338 292.005C327.995 292.457 328.898 291.845 328.366 291.309C322.191 285.091 310.76 273.789 303.646 268.027C293.518 259.824 270.033 241.969 270.033 241.969C270.033 241.969 257.974 232.834 258.261 235.338C258.356 236.172 263.536 241.095 263.755 241.303C263.76 241.308 263.764 241.311 263.769 241.316C264.033 241.535 271.201 247.532 269.505 248.383C269.462 248.405 269.411 248.417 269.359 248.422C267.37 248.581 262.29 244.669 262.29 244.669C262.29 244.669 244.422 230.81 230.136 225.977C221.161 222.942 217.239 222.401 215.564 222.418Z" fill="white"/>
<path d="M308.797 293.688C308.609 293.699 308.423 293.605 308.323 293.431C304.489 286.766 287.546 270.896 268.037 255.696C257.702 247.644 247.548 240.482 238.671 234.984C228.474 228.668 220.242 224.685 214.203 223.145C213.96 223.083 213.797 222.854 213.818 222.604C213.84 222.354 214.039 222.155 214.289 222.135C220.797 221.62 228.609 223.738 238.174 228.616C246.188 232.703 253.966 238.022 259.646 241.906C262.33 243.742 264.649 245.328 266.414 246.396C268.849 247.87 269.452 247.856 269.579 247.818C269.851 247.734 270.138 247.886 270.222 248.157C270.305 248.428 270.153 248.716 269.882 248.799C268.574 249.203 265.621 247.237 259.066 242.754C253.409 238.886 245.662 233.588 237.708 229.532C229.896 225.549 223.301 223.436 217.672 223.127C245.119 232.662 301.548 279.591 309.214 292.92C309.355 293.165 309.271 293.48 309.025 293.621C308.952 293.662 308.875 293.684 308.797 293.688Z" fill="black"/>
</svg>
