<svg xmlns="http://www.w3.org/2000/svg" width="23" height="25" viewBox="0 0 23 25" fill="none">
  <path d="M1.03606 8.24898C0.573627 6.6016 0.765027 4.83591 1.56815 3.34036C2.37128 1.8448 3.72034 0.741886 5.31857 0.274238C6.91679 -0.19341 8.63326 0.0125173 10.0904 0.846718C11.5475 1.68092 12.6258 3.07506 13.0883 4.72245C13.1213 4.84012 13.1076 4.96624 13.0503 5.07306C12.9929 5.17989 12.8965 5.25867 12.7824 5.29207C12.6682 5.32548 12.5456 5.31077 12.4415 5.25118C12.3375 5.1916 12.2604 5.09201 12.2274 4.97434C11.831 3.5623 10.9067 2.36732 9.65776 1.65229C8.40882 0.93726 6.93756 0.760751 5.56765 1.16159C4.19775 1.56243 3.04141 2.50779 2.35301 3.78969C1.66462 5.0716 1.50056 6.58504 1.89693 7.99709C1.92996 8.11476 1.91629 8.24088 1.85893 8.34771C1.80156 8.45453 1.7052 8.53331 1.59104 8.56671C1.47688 8.60012 1.35428 8.58541 1.2502 8.52582C1.14612 8.46624 1.06909 8.36666 1.03606 8.24898ZM17.1654 9.29089C16.526 9.47712 15.9781 9.90233 15.6289 10.4835C15.4532 9.99903 15.1495 9.57416 14.7523 9.25688C14.3551 8.93959 13.8801 8.74256 13.3811 8.68804C12.8821 8.63351 12.3789 8.72368 11.9284 8.94835C11.478 9.17302 11.0982 9.52322 10.832 9.95938L9.64479 5.73003C9.4466 5.02401 8.98444 4.42652 8.35997 4.069C7.73549 3.71149 6.99986 3.62323 6.31491 3.82365C5.62996 4.02407 5.05179 4.49675 4.70759 5.13771C4.36339 5.77866 4.28137 6.53538 4.47955 7.2414L7.40631 17.6678L5.63232 16.0192C5.11413 15.5284 4.43095 15.2649 3.72894 15.285C3.02692 15.3052 2.36182 15.6073 1.87591 16.1268C1.39001 16.6463 1.12189 17.342 1.12892 18.0649C1.13595 18.7879 1.41756 19.4807 1.91352 19.9952L6.62541 24.618C6.71271 24.6919 6.82372 24.7294 6.9363 24.723C7.04888 24.7165 7.15474 24.6666 7.23275 24.5831C7.31076 24.4997 7.35518 24.3889 7.35715 24.2729C7.35912 24.1568 7.31849 24.044 7.24337 23.957L2.53256 19.334C2.18979 18.993 1.99195 18.5266 1.98256 18.0373C1.97318 17.548 2.15302 17.0758 2.48252 16.7247C2.81202 16.3737 3.26418 16.1724 3.73955 16.1652C4.21491 16.158 4.67454 16.3455 5.01731 16.6864L5.02858 16.6975L7.97279 19.4369C8.04521 19.5046 8.13699 19.5462 8.23419 19.5554C8.33139 19.5646 8.4287 19.541 8.51133 19.488C8.59396 19.435 8.6574 19.3557 8.69201 19.2619C8.72662 19.1682 8.73051 19.0653 8.70309 18.9688L5.34042 6.98951C5.2083 6.51883 5.26299 6.01434 5.49245 5.58704C5.72192 5.15974 6.10736 4.84462 6.564 4.71101C7.02063 4.57739 7.51105 4.63623 7.92737 4.87457C8.34368 5.11292 8.65179 5.51124 8.78392 5.98192L10.9011 13.5244C10.9342 13.6421 11.0112 13.7417 11.1153 13.8013C11.2194 13.8609 11.342 13.8756 11.4561 13.8422C11.5703 13.8088 11.6667 13.73 11.724 13.6232C11.7814 13.5163 11.7951 13.3902 11.762 13.2725L11.3884 11.9415C11.2563 11.4708 11.311 10.9663 11.5404 10.539C11.7699 10.1117 12.1553 9.79662 12.612 9.66301C13.0686 9.52939 13.559 9.58823 13.9753 9.82657C14.3917 10.0649 14.6998 10.4632 14.8319 10.9339L15.4546 13.1523C15.4876 13.27 15.5647 13.3696 15.6687 13.4291C15.7728 13.4887 15.8954 13.5034 16.0096 13.47C16.1237 13.4366 16.2201 13.3579 16.2775 13.251C16.3348 13.1442 16.3485 13.0181 16.3155 12.9004L16.1909 12.4567C16.0588 11.9861 16.1135 11.4816 16.343 11.0543C16.5724 10.627 16.9579 10.3119 17.4145 10.1782C17.8711 10.0446 18.3616 10.1035 18.7779 10.3418C19.1942 10.5801 19.5023 10.9785 19.6344 11.4492L20.7553 15.4422C21.4608 17.9557 21.1322 19.9003 21.1293 19.9191C21.1186 19.9787 21.1195 20.0399 21.1318 20.0992C21.1441 20.1586 21.1676 20.2149 21.201 20.265C21.2344 20.3151 21.2771 20.3579 21.3265 20.3911C21.376 20.4243 21.4312 20.4472 21.4892 20.4584C21.5576 20.4714 21.628 20.4681 21.6948 20.4486C21.7748 20.4253 21.8468 20.3795 21.9027 20.3163C21.9586 20.253 21.9962 20.175 22.0113 20.0908C22.0264 20.0035 22.384 17.9256 21.6162 15.1904L20.4953 11.1973C20.2971 10.4912 19.8349 9.89375 19.2105 9.53623C18.586 9.17872 17.8504 9.09046 17.1654 9.29089Z" fill="#111111"/>
</svg>