<svg width="438" height="291" viewBox="0 0 438 291" fill="none" xmlns="http://www.w3.org/2000/svg">
<path d="M406.392 202.917C406.144 202.917 405.901 202.936 405.661 202.965C405.062 200.549 404.109 198.273 402.857 196.195C403.047 196.046 403.233 195.889 403.408 195.713C405.759 193.362 405.759 189.551 403.408 187.2C401.057 184.849 397.245 184.849 394.894 187.2C394.719 187.375 394.561 187.56 394.412 187.75C392.335 186.499 390.059 185.546 387.642 184.946C387.671 184.707 387.691 184.464 387.691 184.216C387.691 180.891 384.995 178.196 381.671 178.196C378.346 178.196 375.65 180.891 375.65 184.216C375.65 184.464 375.67 184.707 375.699 184.946C373.282 185.546 371.006 186.499 368.929 187.75C368.78 187.56 368.622 187.375 368.447 187.2C366.096 184.849 362.284 184.849 359.933 187.2C357.582 189.551 357.582 193.362 359.933 195.713C360.108 195.889 360.294 196.046 360.484 196.195C359.232 198.273 358.28 200.549 357.68 202.965C357.44 202.936 357.197 202.917 356.949 202.917C353.625 202.917 350.929 205.612 350.929 208.937C350.929 212.262 353.625 214.957 356.949 214.957C357.197 214.957 357.44 214.938 357.68 214.909C358.28 217.325 359.232 219.601 360.484 221.679C360.294 221.828 360.108 221.985 359.933 222.161C357.582 224.512 357.582 228.323 359.933 230.674C362.284 233.025 366.096 233.025 368.447 230.674C368.622 230.499 368.78 230.314 368.929 230.123C371.006 231.375 373.283 232.328 375.699 232.927C375.67 233.167 375.65 233.41 375.65 233.658C375.65 236.983 378.346 239.678 381.671 239.678C384.995 239.678 387.691 236.983 387.691 233.658C387.691 233.41 387.671 233.167 387.642 232.927C390.059 232.328 392.335 231.375 394.412 230.123C394.561 230.314 394.719 230.499 394.894 230.674C397.245 233.025 401.057 233.025 403.408 230.674C405.759 228.323 405.759 224.512 403.408 222.161C403.233 221.985 403.047 221.828 402.857 221.679C404.109 219.601 405.062 217.325 405.661 214.909C405.901 214.938 406.144 214.957 406.392 214.957C409.717 214.957 412.412 212.262 412.412 208.937C412.412 205.612 409.717 202.917 406.392 202.917ZM381.671 220.117C375.496 220.117 370.491 215.111 370.491 208.937C370.491 202.762 375.496 197.757 381.671 197.757C387.845 197.757 392.851 202.762 392.851 208.937C392.851 215.111 387.845 220.117 381.671 220.117Z" fill="#450088"/>
<path d="M434.45 233.47C434.314 233.47 434.181 233.481 434.05 233.497C433.721 232.172 433.198 230.923 432.512 229.785C432.616 229.703 432.718 229.616 432.814 229.52C434.103 228.231 434.103 226.141 432.814 224.852C431.525 223.563 429.435 223.563 428.146 224.852C428.05 224.948 427.963 225.05 427.881 225.154C426.743 224.468 425.494 223.945 424.169 223.617C424.185 223.485 424.196 223.352 424.196 223.216C424.196 221.393 422.718 219.915 420.895 219.915C419.072 219.915 417.594 221.393 417.594 223.216C417.594 223.352 417.605 223.485 417.621 223.617C416.296 223.945 415.048 224.468 413.909 225.154C413.827 225.05 413.741 224.948 413.644 224.852C412.355 223.563 410.265 223.563 408.976 224.852C407.687 226.141 407.687 228.231 408.976 229.52C409.072 229.616 409.174 229.703 409.278 229.785C408.592 230.923 408.069 232.172 407.741 233.497C407.609 233.481 407.476 233.47 407.34 233.47C405.517 233.47 404.039 234.948 404.039 236.771C404.039 238.594 405.517 240.072 407.34 240.072C407.476 240.072 407.609 240.061 407.741 240.045C408.069 241.37 408.592 242.618 409.278 243.757C409.174 243.839 409.072 243.925 408.976 244.022C407.687 245.311 407.687 247.401 408.976 248.69C410.265 249.979 412.355 249.979 413.644 248.69C413.741 248.594 413.827 248.492 413.909 248.388C415.048 249.074 416.296 249.596 417.621 249.925C417.605 250.057 417.594 250.19 417.594 250.326C417.594 252.149 419.072 253.627 420.895 253.627C422.718 253.627 424.196 252.149 424.196 250.326C424.196 250.19 424.185 250.057 424.169 249.925C425.494 249.596 426.743 249.074 427.881 248.388C427.963 248.492 428.05 248.594 428.146 248.69C429.435 249.979 431.525 249.979 432.814 248.69C434.103 247.401 434.103 245.311 432.814 244.022C432.718 243.925 432.616 243.839 432.512 243.757C433.198 242.618 433.721 241.37 434.05 240.045C434.181 240.061 434.314 240.072 434.45 240.072C436.273 240.072 437.751 238.594 437.751 236.771C437.751 234.948 436.273 233.47 434.45 233.47ZM420.895 242.901C417.51 242.901 414.765 240.157 414.765 236.771C414.765 233.385 417.51 230.641 420.895 230.641C424.281 230.641 427.025 233.385 427.025 236.771C427.025 240.157 424.281 242.901 420.895 242.901Z" fill="#450088"/>
<path d="M404.834 258.55C404.662 258.55 404.494 258.563 404.328 258.583C403.912 256.909 403.252 255.331 402.385 253.892C402.516 253.788 402.645 253.679 402.767 253.558C404.396 251.928 404.396 249.287 402.767 247.657C401.137 246.028 398.496 246.028 396.866 247.657C396.745 247.779 396.635 247.907 396.532 248.039C395.093 247.172 393.515 246.511 391.84 246.096C391.86 245.93 391.874 245.761 391.874 245.59C391.874 243.285 390.006 241.417 387.702 241.417C385.398 241.417 383.53 243.285 383.53 245.59C383.53 245.761 383.544 245.93 383.564 246.096C381.889 246.511 380.311 247.172 378.872 248.039C378.769 247.907 378.659 247.779 378.538 247.657C376.909 246.028 374.267 246.028 372.638 247.657C371.008 249.287 371.008 251.928 372.638 253.558C372.759 253.679 372.888 253.788 373.02 253.892C372.152 255.331 371.492 256.909 371.076 258.583C370.91 258.563 370.742 258.55 370.57 258.55C368.266 258.55 366.398 260.417 366.398 262.722C366.398 265.026 368.266 266.894 370.57 266.894C370.742 266.894 370.91 266.88 371.076 266.86C371.492 268.534 372.152 270.112 373.02 271.552C372.888 271.655 372.759 271.764 372.638 271.885C371.008 273.515 371.008 276.156 372.638 277.786C374.267 279.415 376.909 279.415 378.538 277.786C378.659 277.664 378.769 277.536 378.872 277.404C380.311 278.272 381.889 278.932 383.564 279.347C383.544 279.513 383.53 279.682 383.53 279.853C383.53 282.158 385.398 284.026 387.702 284.026C390.006 284.026 391.874 282.158 391.874 279.853C391.874 279.682 391.86 279.513 391.84 279.347C393.515 278.932 395.093 278.272 396.532 277.404C396.635 277.536 396.745 277.664 396.866 277.786C398.496 279.415 401.137 279.415 402.767 277.786C404.396 276.157 404.396 273.515 402.767 271.885C402.645 271.764 402.517 271.655 402.385 271.552C403.252 270.112 403.912 268.534 404.328 266.86C404.494 266.88 404.662 266.894 404.834 266.894C407.138 266.894 409.006 265.026 409.006 262.722C409.006 260.417 407.138 258.55 404.834 258.55ZM387.702 270.47C383.423 270.47 379.954 267.001 379.954 262.722C379.954 258.443 383.423 254.974 387.702 254.974C391.981 254.974 395.45 258.443 395.45 262.722C395.45 267.001 391.981 270.47 387.702 270.47Z" fill="#F4EAE2"/>
<path d="M387.703 284.376C385.208 284.376 383.179 282.347 383.179 279.853C383.179 279.775 383.181 279.695 383.187 279.612C381.701 279.216 380.28 278.628 378.952 277.858C378.897 277.92 378.842 277.979 378.787 278.034C377.024 279.797 374.154 279.797 372.39 278.033C370.626 276.27 370.626 273.4 372.39 271.636C372.445 271.581 372.503 271.527 372.565 271.472C371.796 270.144 371.207 268.722 370.811 267.237C370.728 267.242 370.649 267.244 370.57 267.244C368.076 267.244 366.047 265.215 366.047 262.72C366.047 260.226 368.076 258.197 370.57 258.197C370.649 258.197 370.728 258.199 370.811 258.204C371.207 256.719 371.796 255.298 372.565 253.969C372.503 253.914 372.445 253.86 372.39 253.805C370.626 252.041 370.626 249.171 372.39 247.407C373.244 246.553 374.38 246.082 375.588 246.082C376.797 246.082 377.933 246.553 378.787 247.407C378.842 247.462 378.897 247.52 378.952 247.583C380.279 246.814 381.701 246.225 383.187 245.829C383.182 245.746 383.179 245.666 383.179 245.588C383.179 243.094 385.209 241.064 387.703 241.064C390.197 241.064 392.227 243.094 392.227 245.588C392.227 245.667 392.224 245.746 392.219 245.829C393.705 246.225 395.127 246.814 396.454 247.583C396.509 247.52 396.564 247.462 396.619 247.407C398.383 245.644 401.253 245.644 403.016 247.407C404.78 249.171 404.78 252.041 403.016 253.805C402.961 253.86 402.903 253.914 402.841 253.969C403.61 255.297 404.199 256.72 404.595 258.204C404.678 258.199 404.758 258.197 404.835 258.197C407.33 258.197 409.359 260.226 409.359 262.72C409.359 265.215 407.33 267.244 404.835 267.244C404.758 267.244 404.678 267.241 404.595 267.236C404.199 268.722 403.61 270.144 402.841 271.472C402.903 271.527 402.961 271.581 403.016 271.636C404.78 273.4 404.78 276.27 403.016 278.033C401.252 279.798 398.382 279.797 396.619 278.033C396.564 277.979 396.509 277.92 396.454 277.858C395.127 278.627 393.704 279.216 392.219 279.612C392.224 279.695 392.227 279.774 392.227 279.853C392.227 282.347 390.197 284.376 387.703 284.376ZM378.873 277.051C378.935 277.051 378.998 277.068 379.054 277.102C380.482 277.962 382.028 278.603 383.649 279.005C383.821 279.048 383.934 279.212 383.914 279.388C383.892 279.565 383.882 279.713 383.882 279.852C383.882 281.959 385.596 283.673 387.703 283.673C389.809 283.673 391.523 281.959 391.523 279.852C391.523 279.712 391.514 279.564 391.492 279.389C391.471 279.212 391.584 279.048 391.756 279.005C393.378 278.603 394.924 277.962 396.351 277.102C396.505 277.01 396.7 277.047 396.81 277.186C396.917 277.323 397.017 277.437 397.116 277.536C398.605 279.025 401.029 279.026 402.519 277.536C403.24 276.815 403.638 275.855 403.638 274.835C403.638 273.814 403.24 272.855 402.519 272.133C402.42 272.034 402.305 271.934 402.169 271.827C402.029 271.718 401.993 271.521 402.085 271.369C402.945 269.942 403.585 268.396 403.988 266.774C404.03 266.602 404.196 266.489 404.371 266.51C404.547 266.531 404.694 266.541 404.835 266.541C406.942 266.541 408.656 264.827 408.656 262.721C408.656 260.614 406.942 258.9 404.835 258.9C404.694 258.9 404.546 258.91 404.371 258.931C404.196 258.953 404.03 258.839 403.988 258.667C403.585 257.046 402.945 255.5 402.085 254.072C401.993 253.92 402.029 253.723 402.169 253.614C402.305 253.507 402.42 253.407 402.519 253.308C404.008 251.818 404.008 249.395 402.519 247.905C401.029 246.415 398.605 246.416 397.116 247.905C397.017 248.004 396.917 248.118 396.81 248.255C396.7 248.395 396.505 248.431 396.351 248.339C394.924 247.479 393.378 246.838 391.756 246.436C391.584 246.393 391.471 246.229 391.492 246.052C391.514 245.876 391.523 245.729 391.523 245.588C391.523 243.482 389.809 241.768 387.703 241.768C385.596 241.768 383.882 243.482 383.882 245.588C383.882 245.728 383.892 245.875 383.914 246.053C383.934 246.229 383.821 246.393 383.649 246.436C382.027 246.838 380.482 247.479 379.054 248.339C378.901 248.431 378.706 248.394 378.596 248.254C378.489 248.118 378.39 248.004 378.29 247.905C377.568 247.183 376.609 246.786 375.588 246.786C374.568 246.786 373.609 247.183 372.887 247.905C371.397 249.394 371.397 251.818 372.887 253.308C372.986 253.407 373.1 253.507 373.237 253.614C373.377 253.723 373.413 253.92 373.321 254.072C372.461 255.5 371.82 257.046 371.418 258.667C371.375 258.839 371.214 258.952 371.035 258.931C370.859 258.91 370.711 258.9 370.57 258.9C368.464 258.9 366.75 260.614 366.75 262.72C366.75 264.827 368.464 266.541 370.57 266.541C370.711 266.541 370.859 266.531 371.035 266.51C371.214 266.489 371.375 266.602 371.418 266.774C371.821 268.396 372.461 269.942 373.321 271.369C373.413 271.521 373.377 271.718 373.237 271.827C373.1 271.934 372.986 272.034 372.887 272.133C372.165 272.855 371.768 273.814 371.768 274.834C371.768 275.855 372.165 276.814 372.887 277.536C373.609 278.258 374.568 278.655 375.588 278.655C376.609 278.655 377.568 278.258 378.29 277.536C378.39 277.437 378.489 277.322 378.596 277.186C378.664 277.099 378.768 277.051 378.873 277.051ZM387.703 270.82C383.237 270.82 379.603 267.187 379.603 262.721C379.603 258.254 383.237 254.621 387.703 254.621C392.169 254.621 395.802 258.254 395.802 262.721C395.802 267.187 392.169 270.82 387.703 270.82ZM387.703 255.324C383.624 255.324 380.307 258.642 380.307 262.721C380.307 266.799 383.624 270.117 387.703 270.117C391.781 270.117 395.099 266.799 395.099 262.721C395.099 258.642 391.781 255.324 387.703 255.324Z" fill="#450088"/>
<path d="M122.918 8.83727C125.264 8.83727 127.167 6.93669 127.167 4.59222C127.167 2.24774 125.264 0.347168 122.918 0.347168C120.571 0.347168 118.668 2.24774 118.668 4.59222C118.668 6.93669 120.571 8.83727 122.918 8.83727Z" fill="#450088"/>
<path d="M135.322 8.83727C137.669 8.83727 139.572 6.93669 139.572 4.59222C139.572 2.24774 137.669 0.347168 135.322 0.347168C132.976 0.347168 131.073 2.24774 131.073 4.59222C131.073 6.93669 132.976 8.83727 135.322 8.83727Z" fill="#450088"/>
<path d="M147.72 8.83727C150.067 8.83727 151.97 6.93669 151.97 4.59222C151.97 2.24774 150.067 0.347168 147.72 0.347168C145.373 0.347168 143.471 2.24774 143.471 4.59222C143.471 6.93669 145.373 8.83727 147.72 8.83727Z" fill="#450088"/>
<path d="M76.3955 78.5004C76.2011 78.5004 76.0439 78.3429 76.0439 78.1489V4.0675C76.0439 3.87331 76.2013 3.71582 76.3955 3.71582H115.241C115.435 3.71582 115.592 3.87331 115.592 4.0675C115.592 4.26169 115.435 4.41902 115.241 4.41902H76.747V78.1488C76.747 78.3431 76.5898 78.5004 76.3955 78.5004Z" fill="#450088"/>
<path d="M353.748 268.42H243.23C243.036 268.42 242.879 268.263 242.879 268.069C242.879 267.875 243.036 267.717 243.23 267.717H353.747C353.942 267.717 354.099 267.875 354.099 268.069C354.099 268.263 353.942 268.42 353.748 268.42Z" fill="#450088"/>
<path d="M398.541 199.045C398.541 204.202 394.371 208.382 389.226 208.382H115.198C110.054 208.382 105.884 204.202 105.884 199.045V195.623H398.541V199.045Z" fill="#F4EAE2"/>
<path d="M389.227 208.735H115.199C109.869 208.735 105.533 204.389 105.533 199.046C105.533 198.852 105.69 198.694 105.884 198.694C106.078 198.694 106.236 198.852 106.236 199.046C106.236 204.001 110.256 208.032 115.198 208.032H389.226C394.169 208.032 398.19 204.001 398.19 199.046C398.19 198.852 398.347 198.694 398.541 198.694C398.735 198.694 398.893 198.852 398.893 199.046C398.893 204.389 394.557 208.735 389.227 208.735Z" fill="#450088"/>
<path d="M192.61 236.714H185.429C181.514 236.714 178.341 239.887 178.341 243.802C178.341 247.716 181.514 250.889 185.429 250.889H319C322.914 250.889 326.087 247.716 326.087 243.802C326.087 239.888 322.914 236.715 319 236.715H311.194H192.61V236.714Z" fill="#F4EAE2"/>
<path d="M319 251.241H185.429C181.327 251.241 177.99 247.904 177.99 243.802C177.99 239.7 181.327 236.363 185.429 236.363H192.611C192.805 236.363 192.962 236.521 192.962 236.715C192.962 236.909 192.805 237.066 192.611 237.066H185.429C181.715 237.066 178.693 240.088 178.693 243.802C178.693 247.516 181.715 250.538 185.429 250.538H319C322.714 250.538 325.736 247.516 325.736 243.802C325.736 240.088 322.714 237.066 319 237.066H311.195C311.001 237.066 310.843 236.909 310.843 236.715C310.843 236.521 311.001 236.363 311.195 236.363H319C323.102 236.363 326.439 239.7 326.439 243.802C326.439 247.904 323.102 251.241 319 251.241Z" fill="#450088"/>
<path d="M398.543 195.623H105.886V31.5191C105.886 25.5059 110.761 20.6313 116.774 20.6313H387.655C393.669 20.6313 398.543 25.5059 398.543 31.5191V195.623Z" fill="#F4EAE2"/>
<path d="M398.543 195.975H105.886C105.692 195.975 105.535 195.817 105.535 195.623V31.5197C105.535 25.3222 110.577 20.2803 116.774 20.2803H387.655C393.853 20.2803 398.895 25.3222 398.895 31.5197V195.623C398.895 195.817 398.738 195.975 398.543 195.975ZM106.238 195.272H398.192V31.5197C398.192 25.7101 393.465 20.9835 387.655 20.9835H116.774C110.964 20.9835 106.238 25.7099 106.238 31.5197V195.272Z" fill="#450088"/>
<path d="M388.544 28.2329V185.602H118.244L388.544 28.2329Z" fill="#FEA965"/>
<path d="M115.883 194.176V31.7417C115.883 31.14 116.371 30.6523 116.972 30.6523H387.53L115.883 194.176Z" fill="#FEA965"/>
<path d="M301.721 208.382H202.704V236.731H301.721V208.382Z" fill="#F4EAE2"/>
<path d="M301.722 237.084H202.705C202.51 237.084 202.353 236.926 202.353 236.732V208.383C202.353 208.189 202.51 208.031 202.705 208.031H301.722C301.916 208.031 302.073 208.189 302.073 208.383V236.732C302.073 236.926 301.916 237.084 301.722 237.084ZM203.056 236.38H301.37V208.734H203.056V236.38Z" fill="#450088"/>
<path d="M245.996 43.9024H226.435C226.241 43.9024 226.084 43.7449 226.084 43.5509C226.084 43.3567 226.241 43.1992 226.435 43.1992H245.996C246.19 43.1992 246.348 43.3567 246.348 43.5509C246.348 43.7451 246.19 43.9024 245.996 43.9024Z" fill="#450088"/>
<path d="M222.669 43.9024H203.845C203.65 43.9024 203.493 43.7449 203.493 43.5509C203.493 43.3567 203.65 43.1992 203.845 43.1992H222.669C222.863 43.1992 223.02 43.3567 223.02 43.5509C223.02 43.7451 222.863 43.9024 222.669 43.9024Z" fill="#450088"/>
<path d="M200.074 43.9024H183.13C182.935 43.9024 182.778 43.7449 182.778 43.5509C182.778 43.3567 182.935 43.1992 183.13 43.1992H200.074C200.269 43.1992 200.426 43.3567 200.426 43.5509C200.426 43.7451 200.269 43.9024 200.074 43.9024Z" fill="#450088"/>
<path d="M242.232 51.7821H234.79C234.596 51.7821 234.438 51.6247 234.438 51.4306C234.438 51.2366 234.596 51.0791 234.79 51.0791H242.232C242.427 51.0791 242.584 51.2366 242.584 51.4306C242.584 51.6247 242.427 51.7821 242.232 51.7821Z" fill="#450088"/>
<path d="M231.019 51.7821H198.77C198.576 51.7821 198.419 51.6247 198.419 51.4306C198.419 51.2366 198.576 51.0791 198.77 51.0791H231.019C231.214 51.0791 231.371 51.2366 231.371 51.4306C231.371 51.6247 231.214 51.7821 231.019 51.7821Z" fill="#450088"/>
<path d="M194.999 51.7821H183.13C182.935 51.7821 182.778 51.6247 182.778 51.4306C182.778 51.2366 182.936 51.0791 183.13 51.0791H194.999C195.194 51.0791 195.351 51.2366 195.351 51.4306C195.351 51.6247 195.194 51.7821 194.999 51.7821Z" fill="#450088"/>
<path d="M245.999 59.6625H214.651C214.456 59.6625 214.299 59.505 214.299 59.311C214.299 59.1168 214.456 58.9595 214.651 58.9595H245.999C246.193 58.9595 246.35 59.117 246.35 59.311C246.35 59.5052 246.193 59.6625 245.999 59.6625Z" fill="#450088"/>
<path d="M210.88 59.6625H183.13C182.935 59.6625 182.778 59.505 182.778 59.311C182.778 59.1168 182.936 58.9595 183.13 58.9595H210.88C211.074 58.9595 211.231 59.117 211.231 59.311C211.231 59.5052 211.074 59.6625 210.88 59.6625Z" fill="#450088"/>
<path d="M246.075 126.024H226.514C226.32 126.024 226.163 125.867 226.163 125.673C226.163 125.479 226.32 125.321 226.514 125.321H246.075C246.269 125.321 246.426 125.479 246.426 125.673C246.427 125.867 246.269 126.024 246.075 126.024Z" fill="#450088"/>
<path d="M222.747 126.024H203.923C203.729 126.024 203.572 125.867 203.572 125.673C203.572 125.479 203.729 125.321 203.923 125.321H222.747C222.942 125.321 223.099 125.479 223.099 125.673C223.099 125.867 222.942 126.024 222.747 126.024Z" fill="#450088"/>
<path d="M200.153 126.024H183.208C183.014 126.024 182.857 125.867 182.857 125.673C182.857 125.479 183.014 125.321 183.208 125.321H200.153C200.347 125.321 200.504 125.479 200.504 125.673C200.504 125.867 200.347 126.024 200.153 126.024Z" fill="#450088"/>
<path d="M246.078 133.905H198.849C198.655 133.905 198.498 133.747 198.498 133.553C198.498 133.359 198.655 133.202 198.849 133.202H246.078C246.272 133.202 246.429 133.359 246.429 133.553C246.429 133.747 246.272 133.905 246.078 133.905Z" fill="#450088"/>
<path d="M195.078 133.905H183.208C183.014 133.905 182.857 133.747 182.857 133.553C182.857 133.359 183.014 133.202 183.208 133.202H195.078C195.272 133.202 195.429 133.359 195.429 133.553C195.429 133.747 195.272 133.905 195.078 133.905Z" fill="#450088"/>
<path d="M220.863 141.785H183.208C183.014 141.785 182.857 141.627 182.857 141.433C182.857 141.239 183.014 141.082 183.208 141.082H220.863C221.057 141.082 221.215 141.239 221.215 141.433C221.215 141.627 221.057 141.785 220.863 141.785Z" fill="#450088"/>
<path d="M245.999 83.3057H214.651C214.456 83.3057 214.299 83.1482 214.299 82.9541C214.299 82.7599 214.456 82.6025 214.651 82.6025H245.999C246.193 82.6025 246.35 82.76 246.35 82.9541C246.35 83.1482 246.193 83.3057 245.999 83.3057Z" fill="#450088"/>
<path d="M210.88 83.3057H183.13C182.935 83.3057 182.778 83.1482 182.778 82.9541C182.778 82.7599 182.936 82.6025 183.13 82.6025H210.88C211.074 82.6025 211.231 82.76 211.231 82.9541C211.231 83.1482 211.074 83.3057 210.88 83.3057Z" fill="#450088"/>
<path d="M246.003 91.1859H220.876C220.681 91.1859 220.524 91.0285 220.524 90.8344C220.524 90.6402 220.681 90.4829 220.876 90.4829H246.003C246.197 90.4829 246.354 90.6404 246.354 90.8344C246.354 91.0285 246.197 91.1859 246.003 91.1859Z" fill="#450088"/>
<path d="M217.102 91.1859H200.243C200.049 91.1859 199.891 91.0285 199.891 90.8344C199.891 90.6402 200.049 90.4829 200.243 90.4829H217.102C217.296 90.4829 217.454 90.6404 217.454 90.8344C217.454 91.0285 217.296 91.1859 217.102 91.1859Z" fill="#450088"/>
<path d="M196.473 91.1859H183.13C182.935 91.1859 182.778 91.0285 182.778 90.8344C182.778 90.6402 182.936 90.4829 183.13 90.4829H196.473C196.667 90.4829 196.824 90.6404 196.824 90.8344C196.824 91.0285 196.667 91.1859 196.473 91.1859Z" fill="#450088"/>
<path d="M223.383 99.0658H208.755C208.56 99.0658 208.403 98.9083 208.403 98.7143C208.403 98.5203 208.56 98.3628 208.755 98.3628H223.383C223.577 98.3628 223.735 98.5203 223.735 98.7143C223.735 98.9083 223.577 99.0658 223.383 99.0658Z" fill="#450088"/>
<path d="M204.986 99.0658H183.13C182.935 99.0658 182.778 98.9083 182.778 98.7143C182.778 98.5203 182.936 98.3628 183.13 98.3628H204.986C205.18 98.3628 205.338 98.5203 205.338 98.7143C205.338 98.9083 205.18 99.0658 204.986 99.0658Z" fill="#450088"/>
<path d="M363.633 83.3057H344.072C343.878 83.3057 343.721 83.1482 343.721 82.9541C343.721 82.7599 343.878 82.6025 344.072 82.6025H363.633C363.828 82.6025 363.985 82.76 363.985 82.9541C363.985 83.1482 363.828 83.3057 363.633 83.3057Z" fill="#450088"/>
<path d="M340.306 83.3057H321.482C321.287 83.3057 321.13 83.1482 321.13 82.9541C321.13 82.7599 321.287 82.6025 321.482 82.6025H340.306C340.5 82.6025 340.657 82.76 340.657 82.9541C340.657 83.1482 340.5 83.3057 340.306 83.3057Z" fill="#450088"/>
<path d="M317.712 83.3057H300.767C300.573 83.3057 300.415 83.1482 300.415 82.9541C300.415 82.7599 300.573 82.6025 300.767 82.6025H317.712C317.906 82.6025 318.063 82.76 318.063 82.9541C318.063 83.1482 317.906 83.3057 317.712 83.3057Z" fill="#450088"/>
<path d="M359.869 91.1859H352.427C352.233 91.1859 352.076 91.0285 352.076 90.8344C352.076 90.6402 352.233 90.4829 352.427 90.4829H359.869C360.064 90.4829 360.221 90.6404 360.221 90.8344C360.221 91.0285 360.064 91.1859 359.869 91.1859Z" fill="#450088"/>
<path d="M348.657 91.1859H316.408C316.213 91.1859 316.056 91.0285 316.056 90.8344C316.056 90.6402 316.213 90.4829 316.408 90.4829H348.657C348.851 90.4829 349.008 90.6404 349.008 90.8344C349.008 91.0285 348.851 91.1859 348.657 91.1859Z" fill="#450088"/>
<path d="M312.636 91.1859H300.767C300.573 91.1859 300.415 91.0285 300.415 90.8344C300.415 90.6402 300.573 90.4829 300.767 90.4829H312.636C312.831 90.4829 312.988 90.6404 312.988 90.8344C312.988 91.0285 312.831 91.1859 312.636 91.1859Z" fill="#450088"/>
<path d="M363.636 99.0658H332.288C332.093 99.0658 331.936 98.9083 331.936 98.7143C331.936 98.5203 332.093 98.3628 332.288 98.3628H363.636C363.83 98.3628 363.988 98.5203 363.988 98.7143C363.988 98.9083 363.83 99.0658 363.636 99.0658Z" fill="#450088"/>
<path d="M328.517 99.0658H300.767C300.573 99.0658 300.415 98.9083 300.415 98.7143C300.415 98.5203 300.573 98.3628 300.767 98.3628H328.517C328.711 98.3628 328.868 98.5203 328.868 98.7143C328.868 98.9083 328.711 99.0658 328.517 99.0658Z" fill="#450088"/>
<path d="M363.635 126.024H321.482C321.287 126.024 321.13 125.867 321.13 125.673C321.13 125.479 321.287 125.321 321.482 125.321H363.635C363.83 125.321 363.987 125.479 363.987 125.673C363.987 125.867 363.83 126.024 363.635 126.024Z" fill="#450088"/>
<path d="M317.712 126.024H300.767C300.573 126.024 300.415 125.867 300.415 125.673C300.415 125.479 300.573 125.321 300.767 125.321H317.712C317.906 125.321 318.063 125.479 318.063 125.673C318.063 125.867 317.906 126.024 317.712 126.024Z" fill="#450088"/>
<path d="M358.391 133.905H333.767C333.573 133.905 333.416 133.747 333.416 133.553C333.416 133.359 333.573 133.202 333.767 133.202H358.391C358.586 133.202 358.743 133.359 358.743 133.553C358.743 133.747 358.586 133.905 358.391 133.905Z" fill="#450088"/>
<path d="M329.847 133.905H300.767C300.573 133.905 300.415 133.747 300.415 133.553C300.415 133.359 300.573 133.202 300.767 133.202H329.847C330.041 133.202 330.198 133.359 330.198 133.553C330.198 133.747 330.041 133.905 329.847 133.905Z" fill="#450088"/>
<path d="M363.634 141.785H300.767C300.573 141.785 300.415 141.627 300.415 141.433C300.415 141.239 300.573 141.082 300.767 141.082H363.634C363.828 141.082 363.986 141.239 363.986 141.433C363.986 141.627 363.828 141.785 363.634 141.785Z" fill="#450088"/>
<path d="M363.636 43.9024H332.288C332.093 43.9024 331.936 43.7449 331.936 43.5509C331.936 43.3567 332.093 43.1992 332.288 43.1992H363.636C363.83 43.1992 363.988 43.3567 363.988 43.5509C363.988 43.7451 363.83 43.9024 363.636 43.9024Z" fill="#450088"/>
<path d="M328.517 43.9024H300.767C300.573 43.9024 300.415 43.7449 300.415 43.5509C300.415 43.3567 300.573 43.1992 300.767 43.1992H328.517C328.711 43.1992 328.868 43.3567 328.868 43.5509C328.868 43.7451 328.711 43.9024 328.517 43.9024Z" fill="#450088"/>
<path d="M363.64 51.7826H338.513C338.318 51.7826 338.161 51.6251 338.161 51.4311C338.161 51.2371 338.318 51.0796 338.513 51.0796H363.64C363.834 51.0796 363.991 51.2371 363.991 51.4311C363.991 51.6251 363.834 51.7826 363.64 51.7826Z" fill="#450088"/>
<path d="M334.739 51.7826H317.88C317.685 51.7826 317.528 51.6251 317.528 51.4311C317.528 51.2371 317.686 51.0796 317.88 51.0796H334.739C334.933 51.0796 335.091 51.2371 335.091 51.4311C335.091 51.6251 334.933 51.7826 334.739 51.7826Z" fill="#450088"/>
<path d="M314.11 51.7826H300.767C300.573 51.7826 300.415 51.6251 300.415 51.4311C300.415 51.2371 300.573 51.0796 300.767 51.0796H314.11C314.304 51.0796 314.462 51.2371 314.462 51.4311C314.462 51.6251 314.304 51.7826 314.11 51.7826Z" fill="#450088"/>
<path d="M341.02 59.6625H326.392C326.197 59.6625 326.04 59.505 326.04 59.311C326.04 59.1168 326.197 58.9595 326.392 58.9595H341.02C341.214 58.9595 341.372 59.117 341.372 59.311C341.372 59.5052 341.214 59.6625 341.02 59.6625Z" fill="#450088"/>
<path d="M322.623 59.6625H300.767C300.573 59.6625 300.415 59.505 300.415 59.311C300.415 59.1168 300.573 58.9595 300.767 58.9595H322.623C322.818 58.9595 322.975 59.117 322.975 59.311C322.975 59.5052 322.818 59.6625 322.623 59.6625Z" fill="#450088"/>
<path d="M288.373 64.0597C294.256 58.176 294.256 48.6365 288.373 42.7528C282.489 36.8691 272.95 36.8691 267.066 42.7528C261.182 48.6365 261.182 58.176 267.066 64.0597C272.95 69.9434 282.489 69.9434 288.373 64.0597Z" fill="#450088"/>
<path d="M288.373 145.208C294.256 139.324 294.256 129.785 288.373 123.901C282.489 118.018 272.95 118.018 267.066 123.901C261.182 129.785 261.182 139.324 267.066 145.208C272.95 151.092 282.489 151.092 288.373 145.208Z" fill="#F4EAE2"/>
<path d="M277.719 109.044C286.04 109.044 292.785 102.298 292.785 93.9775C292.785 85.6566 286.04 78.9111 277.719 78.9111C269.398 78.9111 262.652 85.6566 262.652 93.9775C262.652 102.298 269.398 109.044 277.719 109.044Z" fill="#F4EAE2"/>
<path d="M170.827 64.0597C176.711 58.176 176.711 48.6365 170.827 42.7528C164.944 36.8691 155.404 36.8691 149.52 42.7528C143.637 48.6365 143.637 58.176 149.52 64.0597C155.404 69.9434 164.944 69.9434 170.827 64.0597Z" fill="#450088"/>
<path d="M158.314 61.6646C158.313 61.6646 158.313 61.6646 158.312 61.6646C158.195 61.6639 158.086 61.6052 158.021 61.5079L152.063 52.5565C151.956 52.3948 152 52.1765 152.161 52.069C152.322 51.9614 152.541 52.0052 152.648 52.167L158.317 60.6832L168.249 46.0743C168.358 45.914 168.576 45.872 168.737 45.9813C168.898 46.0904 168.939 46.3092 168.83 46.4697L158.605 61.5109C158.539 61.6069 158.431 61.6646 158.314 61.6646Z" fill="#F4EAE2"/>
<path d="M276.317 61.7441C276.317 61.7441 276.316 61.7441 276.316 61.7441C276.198 61.7435 276.089 61.6848 276.025 61.5874L270.067 52.636C269.959 52.4744 270.003 52.2561 270.164 52.1486C270.325 52.041 270.544 52.0848 270.652 52.2466L276.32 60.7628L286.252 46.1539C286.361 45.9935 286.579 45.9516 286.74 46.0609C286.901 46.17 286.942 46.3888 286.833 46.5493L276.608 61.5905C276.543 61.6865 276.434 61.7441 276.317 61.7441Z" fill="#F4EAE2"/>
<path d="M160.17 109.044C168.491 109.044 175.236 102.298 175.236 93.9775C175.236 85.6566 168.491 78.9111 160.17 78.9111C151.849 78.9111 145.103 85.6566 145.103 93.9775C145.103 102.298 151.849 109.044 160.17 109.044Z" fill="#F4EAE2"/>
<path d="M170.824 145.206C176.707 139.322 176.707 129.783 170.824 123.899C164.94 118.016 155.4 118.016 149.517 123.899C143.633 129.783 143.633 139.322 149.517 145.206C155.4 151.09 164.94 151.09 170.824 145.206Z" fill="#F4EAE2"/>
<path d="M293.169 178.198H211.25C208.313 178.198 205.91 175.796 205.91 172.859V164.16C205.91 161.223 208.313 158.82 211.25 158.82H293.169C296.105 158.82 298.508 161.223 298.508 164.16V172.859C298.508 175.796 296.105 178.198 293.169 178.198Z" fill="#F4EAE2"/>
<path d="M5.38341 241.458C2.66444 234.002 0.67435 225.486 0.0764621 215.922C-2.10478 181.027 43.1067 145.503 43.1067 145.503L55.4335 144.852L43.1067 225.961L45.0478 232.591C37.625 236.629 20.9507 244.275 5.38341 241.458Z" fill="#A790C4"/>
<path d="M45.0448 232.591L55.4305 268.067C55.4305 268.067 37.6357 283.59 30.2722 277.733C24.9264 273.481 12.5819 261.211 5.38062 241.459C20.9479 244.275 37.6222 236.63 45.0448 232.591Z" fill="#F4EAE2"/>
<path d="M34.4665 279.408C32.805 279.408 31.2952 278.995 30.0536 278.007C27.2968 275.815 13.1353 263.754 5.05067 241.579C4.98414 241.396 5.07812 241.194 5.2605 241.128C5.44288 241.061 5.64505 241.155 5.71127 241.338C13.7315 263.335 27.7604 275.285 30.4911 277.457C37.5434 283.065 55.0242 267.955 55.1998 267.801C55.3454 267.674 55.5676 267.689 55.6959 267.835C55.8233 267.982 55.8083 268.204 55.6619 268.331C55.0481 268.867 42.8486 279.408 34.4665 279.408Z" fill="#450088"/>
<path d="M101.044 268.067H25.7069L10.9543 201.586H86.2915L101.044 268.067Z" fill="#450088"/>
<path d="M148.636 291.997C131.949 244.196 115.262 196.395 98.5721 148.595C98.1402 147.357 97.7076 146.119 97.2754 144.881C70.9257 144.021 43.1061 145.503 43.1061 145.503L39.7468 291.997H148.636Z" fill="#A790C4"/>
<path d="M41.6719 201.379C41.5044 201.379 41.356 201.259 41.3258 201.088L38.0986 182.747L36.398 183.997C36.2415 184.112 36.0213 184.078 35.9067 183.922C35.7917 183.766 35.8253 183.546 35.9819 183.431L38.1389 181.846C38.2367 181.773 38.3648 181.758 38.4778 181.803C38.5907 181.848 38.6721 181.948 38.6933 182.068L42.0188 200.966C42.0525 201.158 41.9244 201.34 41.7332 201.374C41.7125 201.377 41.6922 201.379 41.6719 201.379Z" fill="#450088"/>
<path d="M97.2749 144.882L159.476 152.648C159.476 152.648 158.639 149.795 157.534 145.394C173.101 153.577 184.68 147.994 190.013 143.331C196.258 152.446 201.981 163.955 199.501 173.143C194.61 191.265 155.577 202.461 99.063 186.127L91.002 148.993L97.2749 144.882Z" fill="#A790C4"/>
<path d="M157.525 145.393C155.443 137.099 152.409 123.303 152.235 112.718C151.968 96.5162 159.652 89.4742 162.444 90.5452C165.235 91.616 163.597 94.8715 162.444 97.7087C161.29 100.546 160.691 103.017 160.691 103.017C160.691 103.017 164.878 98.3913 168.027 103.62C168.027 103.62 172.895 98.6905 175.185 104.162C175.185 104.162 180.421 100.196 182.623 106.499C184.827 112.802 179.423 112.718 179.423 112.718C179.423 112.718 179.33 122.956 177.365 127.866C177.365 127.866 183.931 134.467 190.003 143.331C184.671 147.993 173.091 153.576 157.525 145.393Z" fill="#F4EAE2"/>
<path d="M152.506 107.263C152.493 107.263 152.479 107.262 152.466 107.261C152.273 107.239 152.134 107.065 152.156 106.872C153.185 97.78 156.905 92.5149 159.78 90.7688C160.836 90.127 161.829 89.9304 162.575 90.2167C163.332 90.5069 163.851 90.9717 164.12 91.598C164.753 93.0725 163.893 95.143 163.061 97.1454C162.964 97.379 162.868 97.6112 162.775 97.8405C162.113 99.469 161.632 100.987 161.346 101.97C162.152 101.362 163.41 100.658 164.812 100.794C166.066 100.915 167.171 101.682 168.102 103.074C168.916 102.357 171.126 100.668 173.165 101.415C173.348 101.482 173.441 101.684 173.375 101.866C173.308 102.049 173.106 102.142 172.924 102.075C170.839 101.312 168.308 103.841 168.283 103.866C168.206 103.944 168.098 103.982 167.991 103.969C167.883 103.956 167.787 103.894 167.731 103.801C166.876 102.38 165.872 101.604 164.747 101.494C162.757 101.3 160.975 103.233 160.957 103.253C160.849 103.372 160.674 103.402 160.532 103.327C160.39 103.252 160.317 103.09 160.355 102.934C160.361 102.909 160.973 100.404 162.123 97.5756C162.217 97.3446 162.315 97.1108 162.412 96.8756C163.188 95.0079 163.99 93.0768 163.474 91.8752C163.281 91.4236 162.904 91.0957 162.323 90.8729C161.794 90.6701 161 90.8504 160.145 91.3695C157.407 93.033 153.855 98.1117 152.855 106.951C152.834 107.13 152.682 107.263 152.506 107.263Z" fill="#450088"/>
<path d="M157.277 144.966C157.118 144.966 156.974 144.858 156.935 144.697C156.161 141.522 153.551 130.414 152.455 120.792C152.433 120.599 152.571 120.425 152.764 120.403C152.956 120.38 153.131 120.52 153.153 120.712C154.245 130.294 156.847 141.366 157.619 144.531C157.664 144.719 157.549 144.91 157.36 144.956C157.332 144.962 157.304 144.966 157.277 144.966Z" fill="#450088"/>
<path d="M179.138 111.479C178.974 111.479 178.828 111.364 178.794 111.197L178.234 108.449C178.195 108.259 178.318 108.073 178.508 108.035C178.698 107.996 178.884 108.118 178.922 108.309L179.483 111.057C179.522 111.247 179.399 111.433 179.209 111.471C179.185 111.476 179.162 111.479 179.138 111.479Z" fill="#450088"/>
<path d="M161.593 161.003C161.432 161.003 161.287 160.892 161.25 160.729L159.665 153.731C159.622 153.542 159.74 153.353 159.93 153.311C160.12 153.268 160.307 153.386 160.35 153.576L161.936 160.573C161.979 160.763 161.86 160.951 161.67 160.994C161.644 161 161.618 161.003 161.593 161.003Z" fill="#450088"/>
<path d="M85.4666 124.975L82.5162 143.52L89.8262 144.968C89.8262 144.968 88.6181 147.847 61.9811 146.505C42.5562 145.526 72.6023 114.591 72.6023 114.591C72.6023 114.591 78.7843 118.764 85.4666 124.975Z" fill="#F4EAE2"/>
<path d="M89.8221 145.204C89.8012 145.204 89.7798 145.202 89.7586 145.198L82.4485 143.865C82.2607 143.831 82.1346 143.653 82.1641 143.464L84.784 126.815C78.2105 120.622 76.4302 112.846 76.4126 112.767C76.3708 112.578 76.4902 112.39 76.6798 112.348C76.8703 112.306 77.0571 112.426 77.0994 112.615C77.1163 112.692 78.8811 120.369 85.3998 126.428C85.4856 126.507 85.5262 126.624 85.508 126.74L82.9125 143.235L89.8851 144.506C90.076 144.541 90.2027 144.724 90.1677 144.915C90.1366 145.085 89.9887 145.204 89.8221 145.204Z" fill="#450088"/>
<path d="M93.8558 86.0712C85.9882 83.9105 81.1279 82.3415 69.1163 89.0676C58.1906 95.1857 27.4997 137.559 23.2283 147.096C18.957 156.632 19.7929 168.45 26.0343 176.818C32.2756 185.186 43.9294 189.401 53.9248 186.239C62.736 183.451 69.2678 175.619 72.4567 166.981C75.6457 158.342 75.9194 148.927 75.5323 139.739C75.3443 135.28 75.022 122.489 77.4691 118.743C79.0007 116.397 81.4818 122.765 83.8213 121.216C87.9044 118.511 91.8054 108.995 97.2226 105.427C106.757 99.1488 102.535 88.4546 93.8558 86.0712Z" fill="#F66F6B"/>
<path d="M96.7189 100.731C96.7189 100.731 86.4 100.035 85.2532 104.81C84.1064 109.585 83.1363 111.826 80.2229 112.79C80.2229 112.79 73.5579 106.966 70.3175 111.94C67.0771 116.914 71.9096 121.489 76.8774 121.81C76.8774 121.81 79.3056 128.62 88.0216 128.253C96.7377 127.886 97.9475 114.526 96.7189 100.731Z" fill="#F4EAE2"/>
<path d="M87.3539 128.619C79.8866 128.619 77.139 123.293 76.6335 122.144C73.5629 121.874 70.7226 120.11 69.5181 117.706C68.8482 116.369 68.3916 114.25 70.021 111.749C70.8214 110.52 71.8899 109.806 73.1972 109.625C76.2102 109.207 79.5311 111.765 80.2951 112.393C82.9052 111.449 83.8055 109.326 84.9095 104.728C86.1123 99.722 96.3069 100.351 96.7409 100.38C96.9135 100.392 97.052 100.528 97.0674 100.7C98.2046 113.466 96.9928 121.979 93.4658 126.001C92.0309 127.637 90.2035 128.513 88.0346 128.604C87.804 128.614 87.576 128.619 87.3539 128.619ZM73.8747 110.282C73.6786 110.282 73.4847 110.295 73.2919 110.322C72.1962 110.474 71.2944 111.083 70.6103 112.133C69.4645 113.891 69.3041 115.71 70.1468 117.392C71.2541 119.602 74.0304 121.274 76.8983 121.459C77.038 121.468 77.1591 121.56 77.2065 121.692C77.3026 121.96 79.6646 128.252 88.0052 127.902C89.9747 127.819 91.6342 127.023 92.9375 125.537C96.2571 121.752 97.4509 113.294 96.3937 101.068C94.7166 101.003 86.5527 100.899 85.5934 104.893C84.4225 109.769 83.3852 112.114 80.3318 113.125C80.2143 113.164 80.0838 113.138 79.9898 113.056C79.9562 113.026 76.7757 110.282 73.8747 110.282Z" fill="#F66F6B"/>
<path d="M78.7268 117.956C78.5995 117.956 78.4768 117.887 78.4144 117.766C77.6009 116.197 75.8612 115.133 74.0849 115.119C73.8906 115.117 73.7347 114.959 73.7361 114.764C73.7378 114.571 73.8947 114.416 74.0876 114.416C74.0887 114.416 74.0894 114.416 74.0903 114.416C76.1203 114.432 78.1086 115.648 79.0384 117.442C79.1276 117.615 79.0604 117.827 78.8879 117.917C78.8367 117.943 78.781 117.956 78.7268 117.956Z" fill="#F66F6B"/>
<path d="M2.61777 79.9418L41.2494 79.9616L49.0422 86.394L49.1427 45.9468C49.1461 44.6093 48.062 43.5246 46.7215 43.524L2.70824 43.5015C1.36774 43.5008 0.278239 44.5844 0.275047 45.9219L0.196541 77.519C0.19319 78.8565 1.27727 79.9412 2.61777 79.9418Z" fill="#450088"/>
<path d="M16.4212 51.3296C19.9212 51.3296 22.7586 54.3701 22.7586 58.121C22.7586 58.1537 22.7677 58.213 22.7828 58.2917C22.7981 58.213 22.8072 58.1537 22.8072 58.121C22.8072 54.3701 25.6446 51.3296 29.1447 51.3296C32.6447 51.3296 35.4821 54.3701 35.4821 58.121C35.4821 67.8327 22.8074 71.2964 22.8074 71.2964C22.8074 71.2964 22.7983 71.2834 22.783 71.2609C22.7677 71.2834 22.7586 71.2964 22.7586 71.2964C22.7586 71.2964 10.0837 67.8327 10.0837 58.121C10.0837 54.3702 12.921 51.3296 16.4212 51.3296Z" fill="#F4EAE2"/>
</svg>
