<svg width="248" height="198" viewBox="0 0 248 198" fill="none" xmlns="http://www.w3.org/2000/svg">
  <path fill-rule="evenodd" clip-rule="evenodd"
    d="M248 0.77C221.341 -2.64736 183.148 5.35663 142.602 23.6105C78.2454 -5.36249 19.8208 -8.51328 4.02706 18.8423C-7.12692 38.1616 5.52712 68.287 34.097 98.8487C5.52784 129.41 -7.12577 159.535 4.02808 178.854C19.8218 206.209 78.2458 203.059 142.602 174.086C183.149 192.34 221.341 200.344 248 196.926V195.918C238.942 197.093 228.494 196.935 217.019 195.47C195.344 192.704 170.102 185.289 143.818 173.536C154.482 168.687 165.302 163.131 176.112 156.89C204.881 140.28 229.481 121.181 248 102.109V100.67C229.479 119.909 204.691 139.235 175.612 156.024C164.557 162.407 153.493 168.069 142.602 172.989C131.71 168.069 120.647 162.407 109.591 156.024C79.5942 138.705 54.1644 118.687 35.4685 98.8487C54.1645 79.0101 79.5947 58.9917 109.592 41.6728C120.648 35.2898 131.711 29.6274 142.602 24.7075C153.493 29.6274 164.556 35.2897 175.611 41.6726C204.691 58.4616 229.478 77.7875 248 97.0272V95.5885C229.481 76.5156 204.88 57.4162 176.111 40.8066C165.302 34.5656 154.482 29.01 143.818 24.1608C170.102 12.4071 195.345 4.99258 217.02 2.22601C228.495 0.761421 238.942 0.603023 248 1.77828V0.77ZM109.091 156.89C79.0508 139.546 53.5547 119.488 34.7829 99.5793C29.9557 104.746 25.5872 109.898 21.7159 114.985C12.2572 127.413 5.79717 139.409 2.83886 150.238C-0.118083 161.061 0.44053 170.64 4.89411 178.354C9.34769 186.068 17.3638 191.341 28.2157 194.192C39.0726 197.044 52.6918 197.448 68.1842 195.47C89.8594 192.704 115.102 185.29 141.386 173.536C130.721 168.687 119.901 163.131 109.091 156.89ZM109.092 40.8067C79.0513 58.1507 53.5548 78.2094 34.7829 98.1181C29.9553 92.951 25.5865 87.7984 21.7149 82.7114C12.2562 70.2832 5.79614 58.2869 2.83784 47.4584C-0.119109 36.6349 0.439507 27.0561 4.89309 19.3423C9.34667 11.6285 17.3628 6.35533 28.2147 3.50437C39.0716 0.652096 52.6908 0.248474 68.1832 2.22588C89.8586 4.99245 115.101 12.407 141.386 24.1608C130.722 29.01 119.902 34.5657 109.092 40.8067Z"
    fill="#AE02F2" />
</svg>