<svg width="33" height="40" viewBox="0 0 33 40" fill="none" xmlns="http://www.w3.org/2000/svg">
  <path
    d="M32.3559 13.63C32.3559 11.8605 32.3559 10.0905 32.3559 8.32101C32.3559 8.06588 32.3559 7.81131 32.3559 7.55619V0.635742L16.5807 0.671721L0.639433 0.635742V7.55292C0.639433 7.80749 0.639433 8.06207 0.639433 8.31719V13.6224C0.639433 13.8873 0.639433 14.1523 0.639433 14.4172V18.3263C0.628514 18.6202 0.521507 22.5533 2.35427 26.9907C3.45381 29.652 5.02615 31.9361 7.02815 33.7787C9.52752 36.0791 12.6995 37.6894 16.4567 38.5644L16.5796 38.5927L16.7024 38.5644C20.4602 37.6894 23.6245 36.0791 26.107 33.7776C28.0959 31.9339 29.6491 29.6493 30.7246 26.9869C32.5121 22.5615 32.3707 18.6387 32.3559 18.3236V14.4248C32.3559 14.1594 32.3559 13.895 32.3559 13.63ZM29.7059 26.6194C27.3965 32.3046 22.9803 35.9592 16.5796 37.4823C10.1767 35.9586 5.73316 32.303 3.37028 26.6156C1.58393 22.3151 1.71932 18.3972 1.72096 18.3591L1.72151 18.3476V1.71837L16.5807 1.75163L31.2739 1.71837V18.3362L31.2744 18.364C31.2766 18.4027 31.4524 22.32 29.7059 26.6194Z"
    fill="white" />
  <path
    d="M32.3568 0.636169V7.55661C32.3568 7.81174 32.3568 8.06631 32.3568 8.32143C32.3568 10.0909 32.3568 11.861 32.3568 13.6305C32.3568 13.8954 32.3568 14.1603 32.3568 14.4247V18.3235C32.3715 18.6386 32.5124 22.5614 30.7255 26.9867C29.6499 29.6492 28.0967 31.9338 26.1078 33.7774C23.6254 36.079 20.461 37.6893 16.7032 38.5642L16.5804 38.5926L16.4576 38.5642C12.7003 37.6893 9.52781 36.0795 7.02899 33.7791C5.02698 31.936 3.45464 29.6524 2.3551 26.9911C0.522339 22.5526 0.629346 18.6201 0.640265 18.3262V14.4171C0.640265 14.1522 0.640265 13.8872 0.640265 13.6223V8.31707C0.640265 8.0625 0.640265 7.80792 0.640265 7.5528V0.636169L16.5815 0.672147L32.3568 0.636169ZM16.5815 1.7526L1.72234 1.7188V18.3475L1.72179 18.3589C1.72016 18.3976 1.58476 22.315 3.37111 26.6155C5.73399 32.3029 10.1775 35.9585 16.5804 37.4822C22.9811 35.9591 27.3968 32.3045 29.7067 26.6193C31.4532 22.3199 31.2774 18.4026 31.2758 18.3638L31.2752 18.336V1.7188L16.5815 1.7526ZM32.9922 0L32.3551 0.00163539L16.5815 0.0370689L0.641357 0.00163539L0.00477739 0V0.636169V7.55334V8.31762V13.6228V14.4176V18.3153C-0.00286593 18.5437 -0.0252499 19.6111 0.17566 21.1849C0.294132 22.1138 0.468836 23.0471 0.695406 23.9591C0.975479 25.087 1.33581 26.1881 1.76765 27.2331C2.90269 29.9806 4.52798 32.3399 6.59823 34.2457C9.17894 36.6214 12.4476 38.2824 16.3134 39.1824L16.4363 39.2108L16.5804 39.2446L16.7245 39.2108L16.8474 39.1824C20.7143 38.2824 23.9753 36.6203 26.5396 34.243C28.5973 32.3356 30.2035 29.9741 31.314 27.2244C31.7349 26.1821 32.0849 25.0831 32.3535 23.958C32.5713 23.0476 32.7373 22.116 32.847 21.1887C33.0332 19.6176 33.0015 18.5459 32.9917 18.3099V14.4258V13.6316V8.32252V7.5577V0.636169V0H32.9922ZM2.35674 18.3846L2.35728 18.3753L2.35783 18.3617V18.348V2.35497L16.5799 2.38713H16.5815H16.5831L30.6397 2.35497V18.3366V18.3448V18.3529L30.6403 18.3807V18.3884L30.6408 18.396C30.6414 18.4047 30.6834 19.3718 30.5125 20.8491C30.4137 21.7039 30.2636 22.5597 30.0665 23.3932C29.8214 24.4301 29.502 25.4353 29.1182 26.3811C28.5629 27.7483 27.8723 29.0103 27.0659 30.1311C26.2629 31.2475 25.3233 32.2543 24.2729 33.1233C23.2208 33.9939 22.0301 34.7494 20.7329 35.3698C19.4696 35.9738 18.0736 36.4649 16.581 36.8296C15.0878 36.4644 13.689 35.9732 12.4219 35.3687C11.1209 34.7478 9.92417 33.9917 8.86502 33.1206C7.80751 32.2505 6.8592 31.2431 6.04573 30.1256C5.22899 29.0037 4.52689 27.7407 3.95856 26.3724C3.56547 25.426 3.23681 24.4208 2.9813 23.3834C2.77603 22.5494 2.6177 21.6935 2.51015 20.8387C2.32725 19.3843 2.35564 18.4238 2.35674 18.3846Z"
    fill="white" />
  <path
    d="M18.3447 11.245C18.0444 11.245 17.7562 11.245 17.4554 11.245C17.4554 14.6471 17.4554 18.0248 17.4554 21.446C17.7786 21.404 18.0963 21.3751 18.4097 21.3206C19.1707 21.1882 19.8919 20.9461 20.5285 20.4937C21.3758 19.8907 21.8235 19.0294 22.0916 18.0575C22.3782 17.019 22.4546 15.9484 22.5622 14.8832C22.6643 13.8725 22.7549 12.8602 23.0868 11.8888C23.7109 10.0604 25.1833 9.343 26.7382 9.40296C26.7382 10.0015 26.7382 10.6033 26.7382 11.2373C26.6754 11.2411 26.5766 11.246 26.4777 11.2531C25.6097 11.3131 25.0774 11.6843 24.8557 12.5211C24.669 13.2249 24.5718 13.9543 24.4648 14.6766C24.2912 15.8519 24.1962 17.0419 23.968 18.2057C23.6896 19.6215 23.041 20.8633 21.895 21.7987C20.9658 22.557 19.8794 22.9566 18.7132 23.161C18.3032 23.2329 17.8883 23.2744 17.4592 23.3316C17.4592 24.8743 17.4592 26.4149 17.4592 27.9821C18.0619 27.9821 18.6652 27.9821 19.2859 27.9821C19.2859 28.6167 19.2859 29.225 19.2859 29.8459C17.427 29.8459 15.5767 29.8459 13.7156 29.8459C13.7156 29.2272 13.7156 28.6238 13.7156 27.9941C14.3303 27.9941 14.9336 27.9941 15.5516 27.9941C15.5516 26.4274 15.5516 24.8874 15.5516 23.3322C15.1351 23.2766 14.7212 23.2346 14.3123 23.1632C13.1456 22.9598 12.0586 22.5619 11.1311 21.8003C10.0834 20.9401 9.44898 19.8139 9.164 18.5154C8.94398 17.5112 8.84407 16.4809 8.69393 15.4616C8.56127 14.5588 8.43406 13.6555 8.30139 12.7533C8.28993 12.6765 8.25499 12.6029 8.23097 12.5282C7.97328 11.7198 7.41531 11.3022 6.57127 11.2553C6.46318 11.2493 6.35453 11.2417 6.26172 11.2362C6.26172 10.6164 6.26172 10.0146 6.26172 9.3877C7.52942 9.3877 8.59839 9.73549 9.37637 10.7429C9.91195 11.4363 10.168 12.2485 10.2859 13.0979C10.4246 14.0955 10.5098 15.1007 10.6255 16.1021C10.726 16.971 10.8472 17.8351 11.1513 18.6642C11.6655 20.0679 12.6958 20.8731 14.1158 21.216C14.5793 21.3283 15.057 21.3844 15.5505 21.47C15.5505 18.0411 15.5505 14.6635 15.5505 11.2526C15.2612 11.2526 14.9669 11.2526 14.6574 11.2526C14.6574 10.617 14.6574 10.0141 14.6574 9.39424C15.8836 9.39424 17.1027 9.39424 18.3436 9.39424C18.3447 9.99988 18.3447 10.6012 18.3447 11.245Z"
    fill="white" />
  <path
    d="M6.26216 9.38539C7.52986 9.38539 8.59883 9.73318 9.37681 10.7406C9.91239 11.434 10.1684 12.2462 10.2864 13.0956C10.425 14.0931 10.5102 15.0984 10.626 16.0998C10.7264 16.9687 10.8476 17.8327 11.1517 18.6619C11.666 20.0656 12.6962 20.8708 14.1162 21.2137C14.5797 21.326 15.0574 21.3821 15.551 21.4677C15.551 18.0388 15.551 14.6612 15.551 11.2503C15.2616 11.2503 14.9674 11.2503 14.6578 11.2503C14.6578 10.6147 14.6578 10.0117 14.6578 9.39193C15.884 9.39193 17.1031 9.39193 18.3441 9.39193C18.3441 9.99812 18.3441 10.5994 18.3441 11.2427C18.0438 11.2427 17.7555 11.2427 17.4547 11.2427C17.4547 14.6448 17.4547 18.0225 17.4547 21.4437C17.7779 21.4017 18.0957 21.3728 18.409 21.3183C19.1701 21.1859 19.8913 20.9438 20.5279 20.4914C21.3752 19.8884 21.8229 19.0271 22.0909 18.0552C22.3776 17.0167 22.454 15.946 22.5615 14.8809C22.6636 13.8702 22.7543 12.8579 23.0862 11.8865C23.6867 10.1279 25.0718 9.39684 26.5606 9.39684C26.6196 9.39684 26.6786 9.39793 26.7375 9.40011C26.7375 9.99866 26.7375 10.6005 26.7375 11.2345C26.6747 11.2383 26.5759 11.2432 26.4771 11.2503C25.609 11.3102 25.0767 11.6815 24.8551 12.5183C24.6684 13.222 24.5712 13.9514 24.4642 14.6737C24.2906 15.849 24.1956 17.039 23.9674 18.2029C23.6889 19.6186 23.0403 20.8604 21.8944 21.7959C20.9652 22.5541 19.8787 22.9537 18.7126 23.1581C18.3026 23.2301 17.8876 23.2715 17.4585 23.3288C17.4585 24.8715 17.4585 26.412 17.4585 27.9793C18.0613 27.9793 18.6645 27.9793 19.2853 27.9793C19.2853 28.6138 19.2853 29.2222 19.2853 29.8431C17.4263 29.8431 15.5761 29.8431 13.7149 29.8431C13.7149 29.2244 13.7149 28.6209 13.7149 27.9913C14.3297 27.9913 14.933 27.9913 15.551 27.9913C15.551 26.4246 15.551 24.8846 15.551 23.3293C15.1344 23.2737 14.7206 23.2317 14.3117 23.1603C13.145 22.957 12.058 22.559 11.1304 21.7975C10.0827 20.9373 9.44834 19.811 9.16335 18.5125C8.94333 17.5084 8.84342 16.4781 8.69328 15.4587C8.56062 14.556 8.43341 13.6527 8.30075 12.7505C8.28928 12.6736 8.25434 12.6 8.23032 12.5253C7.97263 11.7169 7.41467 11.2993 6.57063 11.2525C6.46253 11.2465 6.35388 11.2388 6.26107 11.2334C6.26216 10.6141 6.26216 10.0123 6.26216 9.38539ZM6.01758 9.14117V9.38539V11.2339V11.4634L6.24688 11.4776C6.27527 11.4792 6.30475 11.4814 6.33532 11.4831C6.40739 11.4874 6.48164 11.4923 6.55752 11.4967C6.92932 11.5174 7.23723 11.6188 7.47199 11.7981C7.70839 11.9786 7.88528 12.2484 7.99774 12.6C8.00702 12.6295 8.01685 12.6562 8.02668 12.6818C8.04142 12.7216 8.05507 12.7592 8.05944 12.7865C8.1255 13.2351 8.19101 13.6919 8.25489 14.134C8.31931 14.5799 8.38537 15.0411 8.45197 15.4947C8.49565 15.7923 8.53605 16.097 8.57481 16.3914C8.66926 17.1066 8.76753 17.8458 8.92477 18.5649C9.23323 19.9713 9.92277 21.1226 10.9754 21.9867C11.85 22.7046 12.9277 23.1674 14.2696 23.4013C14.5557 23.4514 14.8472 23.4874 15.129 23.5223C15.1874 23.5294 15.2469 23.537 15.3064 23.5446V27.7481H13.7149H13.4704V27.9924V29.8442V30.0884H13.7149H19.2853H19.5299V29.8442V27.9804V27.7362H19.2853H17.7026V23.5441C17.7659 23.5359 17.8292 23.5283 17.8915 23.5207C18.1754 23.4858 18.4685 23.4492 18.7552 23.3991C20.0944 23.1641 21.1721 22.7013 22.0494 21.985C23.1752 21.0665 23.9008 19.8099 24.2076 18.2503C24.3528 17.51 24.4456 16.7512 24.5357 16.0169C24.5881 15.5874 24.6427 15.1431 24.7066 14.7097C24.7175 14.6366 24.7279 14.5636 24.7388 14.4905C24.8316 13.856 24.9277 13.2002 25.092 12.581C25.2793 11.8739 25.6986 11.549 26.4946 11.494C26.5639 11.4891 26.6338 11.4852 26.6906 11.482C26.714 11.4809 26.7348 11.4792 26.7528 11.4781L26.9826 11.4645V11.2345V9.40011V9.16516L26.7479 9.15589C26.6856 9.15371 26.6229 9.15207 26.5617 9.15207C25.7368 9.15207 24.9741 9.36849 24.3561 9.77788C23.6633 10.2369 23.1588 10.9194 22.8558 11.8069C22.5299 12.7619 22.4294 13.7584 22.3328 14.7217L22.3191 14.8552C22.3055 14.9915 22.2918 15.1284 22.2787 15.2646C22.1908 16.169 22.1002 17.1039 21.8556 17.9892C21.5614 19.0566 21.0946 19.7881 20.3865 20.2918C19.8422 20.6789 19.1816 20.9356 18.3675 21.0774C18.159 21.1134 17.9504 21.1379 17.7299 21.164C17.72 21.1651 17.7097 21.1662 17.6998 21.1673V11.4858H18.3452H18.5897V11.2416V9.39084V9.14662H18.3452H14.6583H14.4138V9.39084V11.2492V11.4934H14.6583H15.3069V21.1788C15.2452 21.169 15.1846 21.1597 15.124 21.1499C14.7932 21.0981 14.4804 21.049 14.1735 20.9749C13.4873 20.8092 12.9075 20.5306 12.4516 20.1468C11.9772 19.7478 11.6169 19.2196 11.381 18.5763C11.0813 17.7581 10.9633 16.8897 10.8689 16.0703C10.8269 15.7073 10.7881 15.3371 10.751 14.9795C10.6855 14.3504 10.6172 13.7001 10.5288 13.0612C10.389 12.0522 10.0751 11.2443 9.57063 10.5907C9.16717 10.0684 8.68509 9.69829 8.09547 9.45844C7.57026 9.24475 6.97026 9.14062 6.26216 9.14062L6.01758 9.14117Z"
    fill="white" />
</svg>