<svg width="49" height="49" viewBox="0 0 49 49" fill="none" xmlns="http://www.w3.org/2000/svg">
  <path
    d="M41.8215 7.17327C32.2523 -2.39312 16.7397 -2.39082 7.17327 7.17854C-2.39312 16.7479 -2.39082 32.2604 7.17854 41.8268C16.7479 51.3932 32.2604 51.3909 41.8268 41.8216C46.4211 37.2258 49.0015 30.9931 49 24.4948C48.9987 17.9975 46.4165 11.7668 41.8215 7.17327ZM37.1044 34.1283C37.1034 34.1293 37.1023 34.1305 37.1012 34.1315V34.1234L35.8598 35.3565C34.2544 36.9822 31.9163 37.6511 29.6939 37.1205C27.455 36.5212 25.3265 35.5673 23.3893 34.2949C21.5895 33.1446 19.9216 31.8 18.4158 30.285C17.0303 28.9097 15.7856 27.3995 14.6999 25.777C13.5125 24.0312 12.5726 22.1294 11.9069 20.1256C11.1439 17.7717 11.7762 15.1888 13.5403 13.4535L14.9939 11.9999C15.3981 11.5939 16.0548 11.5925 16.4607 11.9966C16.4617 11.9977 16.4629 11.9987 16.4639 11.9999L21.0536 16.5895C21.4595 16.9937 21.461 17.6504 21.0568 18.0563C21.0558 18.0573 21.0547 18.0584 21.0536 18.0595L18.3586 20.7545C17.5853 21.5194 17.4881 22.7348 18.1299 23.6129C19.1047 24.9506 20.1833 26.2094 21.3558 27.3777C22.663 28.6906 24.0841 29.8849 25.6024 30.9466C26.4798 31.5585 27.6691 31.4554 28.4281 30.7016L31.0332 28.0556C31.4374 27.6496 32.0941 27.6482 32.5 28.0524C32.501 28.0534 32.5021 28.0545 32.5032 28.0556L37.1011 32.6616C37.5071 33.0657 37.5086 33.7223 37.1044 34.1283Z"
    fill="white" />
</svg>